<svg id="svg" version="1.1" xmlns="http://www.w3.org/2000/svg" xmlns:xlink="http://www.w3.org/1999/xlink" width="400" height="400" viewBox="0, 0, 400,400"><g id="svgg"><path id="path0" d="M174.000 0.400 C 174.000 0.647,171.941 0.800,168.623 0.800 C 163.664 0.800,163.201 0.863,162.674 1.616 C 162.186 2.312,161.581 2.452,158.551 2.569 C 154.099 2.742,154.400 2.674,154.400 3.500 C 154.400 4.089,154.035 4.195,152.100 4.170 C 148.653 4.125,147.600 4.378,147.600 5.250 C 147.600 5.906,147.276 6.000,145.000 6.000 C 143.570 6.000,142.421 6.135,142.447 6.300 C 142.631 7.462,142.287 7.600,139.200 7.600 C 136.267 7.600,136.000 7.667,136.000 8.400 C 136.000 9.112,135.733 9.200,133.563 9.200 C 131.462 9.200,131.096 9.310,130.916 10.000 C 130.752 10.627,130.370 10.800,129.153 10.800 C 127.867 10.800,127.600 10.937,127.600 11.600 C 127.600 12.449,127.179 12.570,124.730 12.424 C 123.535 12.353,123.132 12.532,122.577 13.379 C 122.127 14.066,121.660 14.346,121.204 14.201 C 120.177 13.875,119.200 14.383,119.200 15.243 C 119.200 15.860,118.903 16.000,117.600 16.000 C 116.267 16.000,116.000 16.133,116.000 16.800 C 116.000 17.480,115.733 17.600,114.223 17.600 C 112.661 17.600,112.465 17.697,112.600 18.400 C 112.735 19.103,112.539 19.200,110.977 19.200 C 109.467 19.200,109.200 19.320,109.200 20.000 C 109.200 20.667,108.933 20.800,107.600 20.800 C 106.200 20.800,106.000 20.914,106.000 21.714 C 106.000 22.524,105.808 22.626,104.300 22.614 C 102.827 22.602,102.606 22.711,102.642 23.432 C 102.677 24.121,102.470 24.251,101.442 24.187 C 99.758 24.082,99.200 24.345,99.200 25.243 C 99.200 25.860,98.903 26.000,97.600 26.000 C 96.286 26.000,96.000 26.138,96.000 26.772 C 96.000 27.268,95.678 27.590,95.100 27.672 C 94.499 27.758,94.239 28.033,94.318 28.500 C 94.415 29.081,94.127 29.200,92.618 29.200 C 91.067 29.200,90.800 29.317,90.800 30.000 C 90.800 30.465,90.533 30.800,90.163 30.800 C 89.812 30.800,89.431 31.160,89.316 31.600 C 89.110 32.389,88.667 32.549,86.900 32.475 C 86.202 32.446,86.000 32.657,86.000 33.414 C 86.000 34.188,85.814 34.371,85.100 34.295 C 84.382 34.219,84.219 34.382,84.295 35.100 C 84.381 35.914,84.219 36.000,82.595 36.000 C 81.608 36.000,80.821 36.135,80.847 36.300 C 80.987 37.184,80.716 37.600,80.000 37.600 C 79.467 37.600,79.200 37.867,79.200 38.400 C 79.200 38.933,78.933 39.200,78.400 39.200 C 77.867 39.200,77.600 39.467,77.600 40.000 C 77.600 40.663,77.333 40.800,76.043 40.800 C 74.710 40.800,74.450 40.946,74.232 41.815 C 74.064 42.483,73.742 42.791,73.289 42.715 C 72.780 42.630,72.633 42.835,72.725 43.500 C 72.827 44.231,72.677 44.381,71.926 44.300 C 71.235 44.225,70.970 44.427,70.873 45.100 C 70.791 45.678,70.468 46.000,69.972 46.000 C 69.467 46.000,69.200 46.276,69.200 46.800 C 69.200 47.467,68.933 47.600,67.600 47.600 C 66.267 47.600,66.000 47.733,66.000 48.400 C 66.000 48.933,65.733 49.200,65.200 49.200 C 64.750 49.200,64.400 49.467,64.400 49.810 C 64.400 50.145,63.942 50.594,63.382 50.807 C 62.734 51.053,62.407 51.450,62.482 51.897 C 62.563 52.378,62.378 52.563,61.897 52.482 C 61.450 52.407,61.053 52.734,60.807 53.382 C 60.594 53.942,60.145 54.400,59.810 54.400 C 59.467 54.400,59.200 54.750,59.200 55.200 C 59.200 55.733,58.933 56.000,58.400 56.000 C 57.867 56.000,57.600 56.267,57.600 56.800 C 57.600 57.333,57.333 57.600,56.800 57.600 C 56.267 57.600,56.000 57.867,56.000 58.400 C 56.000 58.933,55.733 59.200,55.200 59.200 C 54.750 59.200,54.400 59.467,54.400 59.810 C 54.400 60.145,53.942 60.594,53.382 60.807 C 52.734 61.053,52.407 61.450,52.482 61.897 C 52.563 62.378,52.378 62.563,51.897 62.482 C 51.450 62.407,51.053 62.734,50.807 63.382 C 50.594 63.942,50.145 64.400,49.810 64.400 C 49.467 64.400,49.200 64.750,49.200 65.200 C 49.200 65.733,48.933 66.000,48.400 66.000 C 47.733 66.000,47.600 66.267,47.600 67.600 C 47.600 68.933,47.467 69.200,46.800 69.200 C 46.276 69.200,46.000 69.467,46.000 69.972 C 46.000 70.468,45.678 70.791,45.100 70.873 C 44.427 70.970,44.225 71.235,44.300 71.926 C 44.381 72.677,44.231 72.827,43.500 72.725 C 42.835 72.633,42.630 72.780,42.715 73.289 C 42.791 73.742,42.483 74.064,41.815 74.232 C 40.946 74.450,40.800 74.710,40.800 76.043 C 40.800 77.333,40.663 77.600,40.000 77.600 C 39.467 77.600,39.200 77.867,39.200 78.400 C 39.200 78.933,38.933 79.200,38.400 79.200 C 37.867 79.200,37.600 79.467,37.600 80.000 C 37.600 80.716,37.184 80.987,36.300 80.847 C 36.135 80.821,36.000 81.608,36.000 82.595 C 36.000 84.219,35.914 84.381,35.100 84.295 C 34.390 84.220,34.219 84.384,34.291 85.073 C 34.356 85.707,34.136 85.982,33.491 86.073 C 33.001 86.143,32.576 86.470,32.546 86.800 C 32.517 87.130,32.472 87.784,32.446 88.253 C 32.420 88.746,32.062 89.195,31.600 89.316 C 31.160 89.431,30.800 89.791,30.800 90.116 C 30.800 90.441,30.440 90.801,30.000 90.916 C 29.369 91.081,29.200 91.462,29.200 92.718 C 29.200 93.990,29.059 94.300,28.500 94.256 C 28.057 94.220,27.753 94.530,27.672 95.100 C 27.590 95.678,27.268 96.000,26.772 96.000 C 26.138 96.000,26.000 96.286,26.000 97.600 C 26.000 98.933,25.867 99.200,25.200 99.200 C 24.727 99.200,24.376 99.486,24.341 99.900 C 24.308 100.285,24.245 100.870,24.200 101.200 C 24.155 101.530,24.092 102.036,24.059 102.324 C 24.027 102.612,23.840 102.749,23.645 102.628 C 23.063 102.268,22.528 103.310,22.582 104.700 C 22.624 105.803,22.493 106.000,21.716 106.000 C 20.914 106.000,20.800 106.199,20.800 107.600 C 20.800 108.933,20.667 109.200,20.000 109.200 C 19.320 109.200,19.200 109.467,19.200 110.977 C 19.200 112.539,19.103 112.735,18.400 112.600 C 17.697 112.465,17.600 112.661,17.600 114.223 C 17.600 115.733,17.480 116.000,16.800 116.000 C 16.133 116.000,16.000 116.267,16.000 117.600 C 16.000 118.933,15.867 119.200,15.200 119.200 C 14.397 119.200,14.271 119.543,14.287 121.686 C 14.293 122.554,14.125 122.755,13.447 122.686 C 12.703 122.610,12.594 122.820,12.549 124.400 C 12.462 127.504,12.433 127.600,11.600 127.600 C 10.889 127.600,10.800 127.867,10.800 130.000 C 10.800 132.278,10.616 132.624,9.500 132.447 C 9.335 132.421,9.200 133.210,9.200 134.200 C 9.200 135.733,9.081 136.000,8.400 136.000 C 7.667 136.000,7.600 136.267,7.600 139.200 C 7.600 142.287,7.462 142.631,6.300 142.447 C 6.135 142.421,6.000 143.570,6.000 145.000 C 6.000 147.297,5.911 147.600,5.232 147.600 C 4.315 147.600,4.028 148.772,4.130 152.100 C 4.189 154.051,4.094 154.400,3.500 154.400 C 3.115 154.400,2.783 154.535,2.761 154.700 C 2.740 154.865,2.656 156.599,2.575 158.553 C 2.450 161.574,2.306 162.191,1.614 162.675 C 0.864 163.201,0.800 163.668,0.800 168.623 C 0.800 171.941,0.647 174.000,0.400 174.000 C 0.137 174.000,0.000 182.933,0.000 200.000 C 0.000 216.563,0.141 226.000,0.389 226.000 C 0.616 226.000,0.824 228.279,0.889 231.489 C 0.991 236.513,1.068 237.012,1.800 237.389 C 2.508 237.753,2.597 238.189,2.574 241.200 C 2.545 245.043,2.655 245.600,3.443 245.600 C 3.975 245.600,4.033 245.883,4.210 249.400 C 4.355 252.280,4.394 252.400,5.200 252.400 C 5.934 252.400,6.000 252.667,6.000 255.637 C 6.000 258.538,6.083 258.897,6.800 259.084 C 7.486 259.263,7.600 259.630,7.600 261.647 C 7.600 263.733,7.691 264.000,8.400 264.000 C 9.112 264.000,9.200 264.267,9.200 266.437 C 9.200 268.538,9.310 268.904,10.000 269.084 C 10.627 269.248,10.800 269.630,10.800 270.847 C 10.800 272.133,10.937 272.400,11.600 272.400 C 12.476 272.400,12.541 272.609,12.430 275.061 C 12.370 276.384,12.539 276.852,13.259 277.356 C 13.781 277.722,14.191 278.456,14.230 279.095 C 14.332 280.778,14.344 280.800,15.200 280.800 C 15.867 280.800,16.000 281.067,16.000 282.400 C 16.000 283.733,16.133 284.000,16.800 284.000 C 17.512 284.000,17.600 284.267,17.600 286.437 C 17.600 288.538,17.710 288.904,18.400 289.084 C 19.006 289.243,19.200 289.630,19.200 290.684 C 19.200 291.738,19.394 292.125,20.000 292.284 C 20.603 292.442,20.800 292.830,20.800 293.857 C 20.800 294.944,21.003 295.297,21.803 295.601 C 22.355 295.811,22.783 296.121,22.756 296.291 C 22.620 297.121,22.856 297.600,23.400 297.600 C 23.730 297.600,24.027 297.825,24.059 298.100 C 24.092 298.375,24.155 298.870,24.200 299.200 C 24.245 299.530,24.308 300.025,24.341 300.300 C 24.373 300.575,24.760 300.800,25.200 300.800 C 25.867 300.800,26.000 301.067,26.000 302.400 C 26.000 303.733,26.133 304.000,26.800 304.000 C 27.387 304.000,27.600 304.267,27.600 305.000 C 27.600 305.733,27.813 306.000,28.400 306.000 C 29.067 306.000,29.200 306.267,29.200 307.600 C 29.200 308.933,29.333 309.200,30.000 309.200 C 30.652 309.200,30.800 309.467,30.800 310.637 C 30.800 311.738,30.987 312.124,31.600 312.284 C 32.336 312.476,32.444 312.646,32.376 313.500 C 32.363 313.665,32.768 313.898,33.275 314.018 C 33.849 314.153,34.198 314.531,34.199 315.018 C 34.200 315.524,34.518 315.845,35.100 315.928 C 35.859 316.036,36.000 316.302,36.000 317.628 L 36.000 319.200 40.000 319.200 C 43.554 319.200,44.000 319.121,44.000 318.495 C 44.000 318.107,44.405 317.612,44.900 317.395 C 46.500 316.693,46.241 310.800,44.610 310.800 C 44.267 310.800,44.000 310.450,44.000 310.000 C 44.000 309.467,43.733 309.200,43.200 309.200 C 42.533 309.200,42.400 308.933,42.400 307.600 C 42.400 306.267,42.267 306.000,41.600 306.000 C 41.076 306.000,40.800 305.733,40.800 305.227 C 40.800 304.802,40.440 304.340,40.000 304.200 C 39.399 304.009,39.200 303.595,39.200 302.536 C 39.200 301.462,39.009 301.075,38.400 300.916 C 37.957 300.800,37.600 300.370,37.600 299.953 C 37.600 299.467,37.317 299.200,36.800 299.200 C 36.221 299.200,36.000 298.933,36.000 298.233 C 36.000 296.741,35.587 296.000,34.757 296.000 C 34.143 296.000,34.000 295.704,34.000 294.427 C 34.000 293.205,33.821 292.797,33.200 292.600 C 32.760 292.460,32.400 291.998,32.400 291.573 C 32.400 291.067,32.124 290.800,31.600 290.800 C 30.933 290.800,30.800 290.533,30.800 289.200 C 30.800 287.867,30.667 287.600,30.000 287.600 C 29.336 287.600,29.200 287.333,29.200 286.027 C 29.200 284.805,29.021 284.397,28.400 284.200 C 27.799 284.009,27.600 283.595,27.600 282.536 C 27.600 281.462,27.409 281.075,26.800 280.916 C 26.244 280.770,26.000 280.370,26.000 279.603 C 26.000 277.359,25.529 276.000,24.750 276.000 C 24.144 276.000,24.000 275.698,24.000 274.427 C 24.000 273.205,23.821 272.797,23.200 272.600 C 22.579 272.403,22.400 271.995,22.400 270.773 C 22.400 269.467,22.264 269.200,21.600 269.200 C 20.891 269.200,20.800 268.933,20.800 266.847 C 20.800 264.830,20.686 264.463,20.000 264.284 C 19.318 264.106,19.200 263.738,19.200 261.800 C 19.200 259.862,19.082 259.494,18.400 259.316 C 17.723 259.139,17.600 258.770,17.600 256.916 C 17.600 255.062,17.477 254.693,16.800 254.516 C 16.128 254.340,16.000 253.970,16.000 252.203 C 16.000 248.984,15.624 247.600,14.750 247.600 C 14.078 247.600,14.000 247.261,14.000 244.363 C 14.000 241.462,13.917 241.103,13.200 240.916 C 12.469 240.725,12.400 240.370,12.400 236.780 C 12.400 233.225,12.325 232.830,11.612 232.604 C 10.894 232.376,10.814 231.925,10.712 227.477 C 10.612 223.117,10.526 222.606,9.900 222.656 C 8.727 222.749,8.826 177.791,10.000 177.484 C 10.744 177.290,10.800 176.938,10.800 172.464 C 10.800 168.005,10.858 167.635,11.600 167.400 C 12.328 167.169,12.400 166.795,12.400 163.220 C 12.400 159.630,12.469 159.275,13.200 159.084 C 13.917 158.897,14.000 158.538,14.000 155.637 C 14.000 152.739,14.078 152.400,14.750 152.400 C 15.610 152.400,16.000 151.020,16.000 147.977 C 16.000 146.405,16.146 146.008,16.800 145.800 C 17.479 145.584,17.600 145.195,17.600 143.220 C 17.600 141.230,17.716 140.863,18.400 140.684 C 19.077 140.507,19.200 140.138,19.200 138.284 C 19.200 136.430,19.323 136.061,20.000 135.884 C 20.690 135.704,20.800 135.338,20.800 133.237 C 20.800 131.067,20.888 130.800,21.600 130.800 C 22.263 130.800,22.400 130.533,22.400 129.247 C 22.400 128.030,22.573 127.648,23.200 127.484 C 23.833 127.319,24.000 126.938,24.000 125.665 C 24.000 124.301,24.137 124.036,24.900 123.928 C 25.697 123.815,25.814 123.537,25.920 121.500 C 26.023 119.527,26.151 119.200,26.820 119.200 C 27.459 119.200,27.600 118.920,27.600 117.647 C 27.600 116.430,27.773 116.048,28.400 115.884 C 29.036 115.718,29.200 115.338,29.200 114.037 C 29.200 112.667,29.330 112.400,30.000 112.400 C 30.667 112.400,30.800 112.133,30.800 110.800 C 30.800 109.467,30.933 109.200,31.600 109.200 C 32.117 109.200,32.400 108.933,32.400 108.447 C 32.400 108.030,32.757 107.600,33.200 107.484 C 33.833 107.319,34.000 106.938,34.000 105.665 C 34.000 104.301,34.137 104.036,34.900 103.928 C 35.623 103.825,35.824 103.505,35.924 102.300 C 36.021 101.125,36.216 100.800,36.824 100.800 C 37.317 100.800,37.600 100.526,37.600 100.047 C 37.600 99.630,37.957 99.200,38.400 99.084 C 39.006 98.925,39.200 98.538,39.200 97.484 C 39.200 96.430,39.394 96.043,40.000 95.884 C 40.479 95.759,40.800 95.338,40.800 94.837 C 40.800 94.267,41.055 94.000,41.600 94.000 C 42.267 94.000,42.400 93.733,42.400 92.400 C 42.400 91.067,42.533 90.800,43.200 90.800 C 43.733 90.800,44.000 90.533,44.000 90.000 C 44.000 89.482,44.267 89.200,44.757 89.200 C 45.579 89.200,46.000 88.460,46.000 87.014 C 46.000 86.430,46.292 86.017,46.800 85.884 C 47.279 85.759,47.600 85.338,47.600 84.837 C 47.600 84.267,47.855 84.000,48.400 84.000 C 48.933 84.000,49.200 83.733,49.200 83.200 C 49.200 82.667,49.467 82.400,50.000 82.400 C 50.667 82.400,50.800 82.133,50.800 80.800 C 50.800 79.467,50.933 79.200,51.600 79.200 C 52.133 79.200,52.400 78.933,52.400 78.400 C 52.400 77.867,52.667 77.600,53.200 77.600 C 53.724 77.600,54.000 77.333,54.000 76.828 C 54.000 76.332,54.322 76.010,54.900 75.928 C 55.478 75.846,55.846 75.478,55.928 74.900 C 56.010 74.322,56.332 74.000,56.828 74.000 C 57.333 74.000,57.600 73.724,57.600 73.200 C 57.600 72.667,57.867 72.400,58.400 72.400 C 58.933 72.400,59.200 72.133,59.200 71.600 C 59.200 71.067,59.467 70.800,60.000 70.800 C 60.533 70.800,60.800 70.533,60.800 70.000 C 60.800 69.467,61.067 69.200,61.600 69.200 C 62.133 69.200,62.400 68.933,62.400 68.400 C 62.400 67.950,62.667 67.600,63.010 67.600 C 63.345 67.600,63.791 67.150,64.000 66.600 C 64.209 66.050,64.655 65.600,64.990 65.600 C 65.326 65.600,65.600 65.326,65.600 64.990 C 65.600 64.655,66.050 64.209,66.600 64.000 C 67.150 63.791,67.600 63.345,67.600 63.010 C 67.600 62.667,67.950 62.400,68.400 62.400 C 68.933 62.400,69.200 62.133,69.200 61.600 C 69.200 61.067,69.467 60.800,70.000 60.800 C 70.533 60.800,70.800 60.533,70.800 60.000 C 70.800 59.467,71.067 59.200,71.600 59.200 C 72.133 59.200,72.400 58.933,72.400 58.400 C 72.400 57.867,72.667 57.600,73.200 57.600 C 73.724 57.600,74.000 57.333,74.000 56.828 C 74.000 56.332,74.322 56.010,74.900 55.928 C 75.478 55.846,75.846 55.478,75.928 54.900 C 76.010 54.322,76.332 54.000,76.828 54.000 C 77.333 54.000,77.600 53.724,77.600 53.200 C 77.600 52.548,77.867 52.400,79.037 52.400 C 80.138 52.400,80.524 52.213,80.684 51.600 C 80.800 51.157,81.230 50.800,81.647 50.800 C 82.133 50.800,82.400 50.517,82.400 50.000 C 82.400 49.467,82.667 49.200,83.200 49.200 C 83.733 49.200,84.000 48.933,84.000 48.400 C 84.000 47.855,84.267 47.600,84.837 47.600 C 85.338 47.600,85.759 47.279,85.884 46.800 C 86.017 46.292,86.430 46.000,87.014 46.000 C 88.460 46.000,89.200 45.579,89.200 44.757 C 89.200 44.267,89.482 44.000,90.000 44.000 C 90.533 44.000,90.800 43.733,90.800 43.200 C 90.800 42.533,91.067 42.400,92.400 42.400 C 93.733 42.400,94.000 42.267,94.000 41.600 C 94.000 41.055,94.267 40.800,94.837 40.800 C 95.338 40.800,95.759 40.479,95.884 40.000 C 96.043 39.394,96.430 39.200,97.484 39.200 C 98.538 39.200,98.925 39.006,99.084 38.400 C 99.200 37.957,99.630 37.600,100.047 37.600 C 100.526 37.600,100.800 37.317,100.800 36.824 C 100.800 36.216,101.125 36.021,102.300 35.924 C 103.505 35.824,103.825 35.623,103.928 34.900 C 104.035 34.144,104.303 34.000,105.601 34.000 C 106.795 34.000,107.204 33.818,107.400 33.200 C 107.591 32.599,108.005 32.400,109.064 32.400 C 110.138 32.400,110.525 32.209,110.684 31.600 C 110.800 31.157,111.230 30.800,111.647 30.800 C 112.133 30.800,112.400 30.517,112.400 30.000 C 112.400 29.330,112.667 29.200,114.037 29.200 C 115.338 29.200,115.718 29.036,115.884 28.400 C 116.048 27.773,116.430 27.600,117.647 27.600 C 118.933 27.600,119.200 27.463,119.200 26.800 C 119.200 26.143,119.468 25.999,120.700 25.995 C 122.974 25.986,124.000 25.600,124.000 24.753 C 124.000 24.138,124.300 24.000,125.637 24.000 C 126.938 24.000,127.318 23.836,127.484 23.200 C 127.648 22.573,128.030 22.400,129.247 22.400 C 130.533 22.400,130.800 22.263,130.800 21.600 C 130.800 20.888,131.067 20.800,133.237 20.800 C 135.338 20.800,135.704 20.690,135.884 20.000 C 136.061 19.323,136.430 19.200,138.284 19.200 C 140.138 19.200,140.507 19.077,140.684 18.400 C 140.864 17.713,141.230 17.600,143.284 17.600 C 145.338 17.600,145.704 17.487,145.884 16.800 C 146.056 16.141,146.430 16.000,147.997 16.000 C 151.020 16.000,152.400 15.608,152.400 14.750 C 152.400 14.078,152.739 14.000,155.637 14.000 C 158.538 14.000,158.897 13.917,159.084 13.200 C 159.275 12.469,159.630 12.400,163.220 12.400 C 166.795 12.400,167.169 12.328,167.400 11.600 C 167.638 10.850,168.005 10.800,173.264 10.800 C 178.538 10.800,178.887 10.752,179.084 10.000 C 179.391 8.826,222.915 8.726,222.718 9.900 C 222.612 10.530,223.089 10.611,227.477 10.712 C 231.925 10.814,232.376 10.894,232.604 11.612 C 232.830 12.325,233.225 12.400,236.780 12.400 C 240.370 12.400,240.725 12.469,240.916 13.200 C 241.103 13.917,241.462 14.000,244.363 14.000 C 247.261 14.000,247.600 14.078,247.600 14.750 C 247.600 15.610,248.980 16.000,252.023 16.000 C 253.595 16.000,253.992 16.146,254.200 16.800 C 254.416 17.479,254.805 17.600,256.780 17.600 C 258.770 17.600,259.137 17.716,259.316 18.400 C 259.493 19.078,259.862 19.200,261.736 19.200 C 263.595 19.200,263.986 19.327,264.200 20.000 C 264.416 20.682,264.805 20.800,266.827 20.800 C 268.933 20.800,269.200 20.890,269.200 21.600 C 269.200 22.278,269.467 22.400,270.956 22.400 C 272.382 22.400,272.701 22.531,272.656 23.100 C 272.612 23.648,272.968 23.827,274.300 23.923 C 275.638 24.020,276.000 24.202,276.000 24.780 C 276.000 25.693,276.764 26.000,279.033 26.000 C 280.533 26.000,280.800 26.121,280.800 26.800 C 280.800 27.478,281.067 27.600,282.556 27.600 C 283.982 27.600,284.301 27.731,284.256 28.300 C 284.212 28.848,284.568 29.027,285.900 29.123 C 287.274 29.222,287.600 29.395,287.600 30.023 C 287.600 30.663,287.882 30.800,289.200 30.800 C 290.533 30.800,290.800 30.933,290.800 31.600 C 290.800 32.177,291.067 32.400,291.756 32.400 C 292.420 32.400,292.694 32.613,292.656 33.100 C 292.612 33.648,292.968 33.827,294.300 33.923 C 295.638 34.020,296.000 34.202,296.000 34.780 C 296.000 35.589,296.752 36.000,298.233 36.000 C 298.933 36.000,299.200 36.221,299.200 36.800 C 299.200 37.317,299.467 37.600,299.953 37.600 C 300.370 37.600,300.800 37.957,300.916 38.400 C 301.075 39.009,301.462 39.200,302.536 39.200 C 303.595 39.200,304.009 39.399,304.200 40.000 C 304.340 40.440,304.802 40.800,305.227 40.800 C 305.733 40.800,306.000 41.076,306.000 41.600 C 306.000 42.267,306.267 42.400,307.600 42.400 C 308.933 42.400,309.200 42.533,309.200 43.200 C 309.200 43.733,309.467 44.000,310.000 44.000 C 310.518 44.000,310.800 44.267,310.800 44.757 C 310.800 45.613,311.544 46.000,313.188 46.000 C 314.012 46.000,314.296 46.186,314.256 46.700 C 314.220 47.143,314.530 47.447,315.100 47.528 C 315.678 47.610,316.000 47.932,316.000 48.428 C 316.000 48.933,316.276 49.200,316.800 49.200 C 317.333 49.200,317.600 49.467,317.600 50.000 C 317.600 50.667,317.867 50.800,319.200 50.800 C 320.514 50.800,320.800 50.938,320.800 51.572 C 320.800 52.068,321.122 52.390,321.700 52.472 C 322.195 52.542,322.600 52.862,322.600 53.182 C 322.600 53.502,322.960 53.862,323.400 53.982 C 323.840 54.102,324.218 54.425,324.240 54.700 C 324.333 55.857,324.438 56.000,325.200 56.000 C 325.733 56.000,326.000 56.267,326.000 56.800 C 326.000 57.333,326.267 57.600,326.800 57.600 C 327.333 57.600,327.600 57.867,327.600 58.400 C 327.600 58.933,327.867 59.200,328.400 59.200 C 328.933 59.200,329.200 59.467,329.200 60.000 C 329.200 60.533,329.467 60.800,330.000 60.800 C 330.533 60.800,330.800 61.067,330.800 61.600 C 330.800 62.184,331.067 62.400,331.787 62.400 C 332.497 62.400,332.711 62.567,332.547 62.994 C 332.397 63.384,332.677 63.725,333.359 63.985 C 333.932 64.202,334.400 64.672,334.400 65.028 C 334.400 65.384,334.743 65.765,335.163 65.874 C 335.583 65.984,336.016 66.417,336.126 66.837 C 336.235 67.257,336.612 67.600,336.963 67.600 C 337.333 67.600,337.600 67.935,337.600 68.400 C 337.600 68.933,337.867 69.200,338.400 69.200 C 338.933 69.200,339.200 69.467,339.200 70.000 C 339.200 70.533,339.467 70.800,340.000 70.800 C 340.524 70.800,340.800 71.067,340.800 71.572 C 340.800 72.068,341.122 72.390,341.700 72.472 C 342.301 72.558,342.561 72.833,342.482 73.300 C 342.396 73.817,342.636 74.000,343.406 74.000 C 343.979 74.000,344.346 74.164,344.222 74.364 C 343.831 74.998,344.456 76.000,345.243 76.000 C 345.733 76.000,346.000 76.282,346.000 76.800 C 346.000 77.333,346.267 77.600,346.800 77.600 C 347.452 77.600,347.600 77.867,347.600 79.037 C 347.600 80.138,347.787 80.524,348.400 80.684 C 348.843 80.800,349.200 81.230,349.200 81.647 C 349.200 82.133,349.483 82.400,350.000 82.400 C 350.533 82.400,350.800 82.667,350.800 83.200 C 350.800 83.792,351.067 84.000,351.824 84.000 C 352.387 84.000,352.746 84.164,352.622 84.364 C 352.255 84.958,352.798 85.906,353.630 86.124 C 354.079 86.241,354.376 86.635,354.338 87.063 C 354.198 88.653,354.418 89.200,355.200 89.200 C 355.733 89.200,356.000 89.467,356.000 90.000 C 356.000 90.533,356.267 90.800,356.800 90.800 C 357.467 90.800,357.600 91.067,357.600 92.400 C 357.600 93.733,357.733 94.000,358.400 94.000 C 358.945 94.000,359.200 94.267,359.200 94.837 C 359.200 95.338,359.521 95.759,360.000 95.884 C 360.606 96.043,360.800 96.430,360.800 97.484 C 360.800 98.538,360.994 98.925,361.600 99.084 C 362.329 99.275,362.576 99.687,362.447 100.500 C 362.421 100.665,362.760 100.800,363.200 100.800 C 363.640 100.800,364.021 101.025,364.046 101.300 C 364.072 101.575,364.134 101.980,364.185 102.200 C 364.236 102.420,364.306 102.915,364.339 103.300 C 364.375 103.713,364.728 104.000,365.200 104.000 C 365.864 104.000,366.000 104.267,366.000 105.573 C 366.000 106.795,366.179 107.203,366.800 107.400 C 367.401 107.591,367.600 108.005,367.600 109.064 C 367.600 110.138,367.791 110.525,368.400 110.684 C 368.843 110.800,369.200 111.230,369.200 111.647 C 369.200 112.133,369.483 112.400,370.000 112.400 C 370.668 112.400,370.800 112.667,370.800 114.013 C 370.800 115.183,370.992 115.696,371.500 115.883 C 372.478 116.244,372.711 116.701,372.597 118.039 C 372.516 118.990,372.653 119.200,373.355 119.200 C 374.073 119.200,374.218 119.444,374.247 120.700 C 374.319 123.807,374.375 124.000,375.200 124.000 C 375.881 124.000,376.000 124.267,376.000 125.800 C 376.000 127.333,376.119 127.600,376.800 127.600 C 377.467 127.600,377.600 127.867,377.600 129.200 C 377.600 130.551,377.729 130.800,378.428 130.800 C 379.731 130.800,379.315 132.588,378.000 132.640 C 376.253 132.709,376.098 132.782,375.871 133.652 C 375.721 134.223,375.441 134.425,375.020 134.263 C 374.047 133.890,372.279 134.706,372.547 135.406 C 372.726 135.871,372.423 136.000,371.150 136.000 C 369.862 136.000,369.482 136.166,369.316 136.800 C 369.200 137.243,368.770 137.600,368.353 137.600 C 367.867 137.600,367.600 137.883,367.600 138.400 C 367.600 138.933,367.333 139.200,366.800 139.200 C 366.267 139.200,366.000 139.467,366.000 140.000 C 366.000 140.666,365.733 140.800,364.408 140.800 C 363.054 140.800,362.779 140.946,362.571 141.773 C 362.416 142.390,362.122 142.668,361.769 142.533 C 361.423 142.400,361.061 142.714,360.815 143.359 C 360.598 143.932,360.145 144.400,359.810 144.400 C 359.467 144.400,359.200 144.750,359.200 145.200 C 359.200 146.501,354.113 146.404,353.928 145.100 C 353.697 143.477,336.000 143.607,336.000 145.232 C 336.000 145.905,335.700 146.000,333.563 146.000 C 331.462 146.000,331.096 146.110,330.916 146.800 C 330.752 147.427,330.370 147.600,329.153 147.600 C 327.867 147.600,327.600 147.737,327.600 148.400 C 327.600 148.933,327.333 149.200,326.800 149.200 C 326.267 149.200,326.000 149.467,326.000 150.000 C 326.000 150.666,325.733 150.800,324.408 150.800 C 323.054 150.800,322.779 150.946,322.571 151.773 C 322.416 152.390,322.122 152.668,321.769 152.533 C 321.423 152.400,321.061 152.714,320.815 153.359 C 320.598 153.932,320.145 154.400,319.810 154.400 C 319.365 154.400,319.200 154.833,319.200 156.000 C 319.200 157.333,319.067 157.600,318.400 157.600 C 317.867 157.600,317.600 157.867,317.600 158.400 C 317.600 158.933,317.333 159.200,316.800 159.200 C 316.134 159.200,316.000 159.467,316.000 160.792 C 316.000 162.820,315.859 162.855,308.400 162.712 C 303.083 162.609,302.605 162.658,302.656 163.300 C 302.695 163.791,302.396 164.018,301.656 164.059 C 301.075 164.092,300.330 164.155,300.000 164.200 C 299.670 164.245,298.995 164.308,298.500 164.341 C 297.886 164.381,297.600 164.655,297.600 165.200 C 297.600 165.733,297.333 166.000,296.800 166.000 C 296.267 166.000,296.000 166.267,296.000 166.800 C 296.000 167.345,295.733 167.600,295.163 167.600 C 294.675 167.600,294.242 167.919,294.126 168.363 C 294.016 168.783,293.594 169.213,293.188 169.319 C 292.679 169.452,292.458 169.867,292.475 170.656 C 292.518 172.566,292.431 172.760,291.600 172.600 C 290.897 172.465,290.800 172.661,290.800 174.223 C 290.800 175.733,290.680 176.000,290.000 176.000 C 289.244 176.000,289.200 176.267,289.200 180.800 C 289.200 185.333,289.244 185.600,290.000 185.600 C 290.757 185.600,291.135 187.560,290.829 189.903 C 290.793 190.180,291.240 190.587,291.822 190.809 C 292.519 191.073,292.803 191.415,292.653 191.806 C 292.491 192.228,292.698 192.400,293.368 192.400 C 294.021 192.400,294.294 192.616,294.256 193.100 C 294.220 193.543,294.530 193.847,295.100 193.928 C 295.695 194.012,296.000 194.330,296.000 194.865 C 296.000 195.325,296.329 195.761,296.763 195.874 C 297.183 195.984,297.613 196.408,297.720 196.816 C 297.876 197.412,298.372 197.581,300.257 197.679 C 302.019 197.770,302.600 197.949,302.600 198.400 C 302.600 198.929,307.812 199.012,346.700 199.102 L 390.800 199.204 390.800 211.019 C 390.800 222.051,390.754 222.827,390.100 222.718 C 389.470 222.612,389.389 223.089,389.288 227.477 C 389.186 231.925,389.106 232.376,388.388 232.604 C 387.671 232.831,387.600 233.226,387.600 236.983 C 387.600 240.669,387.525 241.105,386.900 241.056 C 386.294 241.007,386.184 241.443,386.084 244.300 C 385.982 247.201,385.878 247.600,385.228 247.600 C 384.379 247.600,384.060 248.974,384.146 252.262 C 384.176 253.396,384.081 254.250,383.936 254.160 C 383.148 253.674,382.491 254.569,382.494 256.125 C 382.500 258.868,382.435 259.097,381.600 259.316 C 380.922 259.493,380.800 259.862,380.800 261.736 C 380.800 263.595,380.673 263.986,380.000 264.200 C 379.318 264.416,379.200 264.805,379.200 266.827 C 379.200 268.933,379.110 269.200,378.400 269.200 C 377.722 269.200,377.600 269.467,377.600 270.956 C 377.600 272.382,377.469 272.701,376.900 272.656 C 376.352 272.612,376.173 272.968,376.077 274.300 C 375.979 275.648,375.800 276.000,375.209 276.000 C 374.486 276.000,373.941 277.342,374.072 278.800 C 374.198 280.201,373.957 280.800,373.268 280.800 C 372.740 280.800,372.532 281.106,372.523 281.900 C 372.497 284.019,372.395 284.311,371.700 284.256 C 371.152 284.212,370.973 284.568,370.877 285.900 C 370.778 287.274,370.605 287.600,369.977 287.600 C 369.341 287.600,369.200 287.882,369.200 289.153 C 369.200 290.370,369.027 290.752,368.400 290.916 C 367.939 291.036,367.600 291.462,367.600 291.918 C 367.600 292.428,367.350 292.691,366.900 292.656 C 366.352 292.612,366.173 292.968,366.077 294.300 C 365.978 295.674,365.805 296.000,365.177 296.000 C 364.436 296.000,364.343 296.216,364.241 298.180 C 364.218 298.609,363.837 299.059,363.394 299.180 C 362.950 299.301,362.593 299.670,362.600 300.000 C 362.607 300.330,362.250 300.697,361.806 300.816 C 361.217 300.973,360.967 301.426,360.877 302.496 C 360.790 303.528,360.525 304.033,359.977 304.207 C 359.550 304.343,359.200 304.802,359.200 305.227 C 359.200 305.733,358.924 306.000,358.400 306.000 C 357.733 306.000,357.600 306.267,357.600 307.600 C 357.600 308.933,357.467 309.200,356.800 309.200 C 356.267 309.200,356.000 309.467,356.000 310.000 C 356.000 310.533,355.733 310.800,355.200 310.800 C 354.727 310.800,354.376 311.086,354.341 311.500 C 354.308 311.885,354.245 312.470,354.200 312.800 C 354.155 313.130,354.092 313.619,354.059 313.887 C 354.027 314.156,353.753 314.280,353.452 314.164 C 352.864 313.939,352.249 315.032,352.622 315.636 C 352.746 315.836,352.387 316.000,351.824 316.000 C 351.067 316.000,350.800 316.208,350.800 316.800 C 350.800 317.333,350.533 317.600,350.000 317.600 C 349.333 317.600,349.200 317.867,349.200 319.200 C 349.200 320.514,349.062 320.800,348.428 320.800 C 347.932 320.800,347.610 321.122,347.528 321.700 C 347.458 322.195,347.130 322.600,346.800 322.600 C 346.470 322.600,346.143 323.001,346.073 323.491 C 345.982 324.136,345.707 324.356,345.073 324.291 C 344.384 324.219,344.220 324.390,344.295 325.100 C 344.372 325.821,344.190 326.000,343.378 326.000 C 342.635 326.000,342.396 326.187,342.482 326.700 C 342.561 327.167,342.301 327.442,341.700 327.528 C 341.122 327.610,340.800 327.932,340.800 328.428 C 340.800 328.933,340.524 329.200,340.000 329.200 C 339.467 329.200,339.200 329.467,339.200 330.000 C 339.200 330.533,338.933 330.800,338.400 330.800 C 337.816 330.800,337.600 331.067,337.600 331.787 C 337.600 332.497,337.433 332.711,337.006 332.547 C 336.616 332.397,336.275 332.677,336.015 333.359 C 335.798 333.932,335.345 334.400,335.010 334.400 C 334.674 334.400,334.400 334.674,334.400 335.010 C 334.400 335.345,333.932 335.798,333.359 336.015 C 332.677 336.275,332.397 336.616,332.547 337.006 C 332.711 337.433,332.497 337.600,331.787 337.600 C 331.067 337.600,330.800 337.816,330.800 338.400 C 330.800 338.933,330.533 339.200,330.000 339.200 C 329.467 339.200,329.200 339.467,329.200 340.000 C 329.200 340.524,328.933 340.800,328.428 340.800 C 327.932 340.800,327.610 341.122,327.528 341.700 C 327.442 342.301,327.167 342.561,326.700 342.482 C 326.183 342.396,326.000 342.636,326.000 343.406 C 326.000 344.027,325.832 344.343,325.582 344.189 C 325.015 343.838,323.916 344.804,324.160 345.439 C 324.275 345.741,323.996 346.001,323.478 346.075 C 322.995 346.144,322.600 346.470,322.600 346.800 C 322.600 347.208,322.105 347.441,321.056 347.527 C 319.929 347.619,319.456 347.863,319.309 348.427 C 319.198 348.852,318.768 349.200,318.353 349.200 C 317.867 349.200,317.600 349.483,317.600 350.000 C 317.600 350.533,317.333 350.800,316.800 350.800 C 316.208 350.800,316.000 351.067,316.000 351.824 C 316.000 352.387,315.836 352.746,315.636 352.622 C 315.032 352.249,313.939 352.864,314.164 353.452 C 314.280 353.753,314.156 354.027,313.887 354.059 C 313.619 354.092,313.130 354.155,312.800 354.200 C 312.470 354.245,311.885 354.308,311.500 354.341 C 311.086 354.376,310.800 354.727,310.800 355.200 C 310.800 355.733,310.533 356.000,310.000 356.000 C 309.467 356.000,309.200 356.267,309.200 356.800 C 309.200 357.467,308.933 357.600,307.600 357.600 C 306.267 357.600,306.000 357.733,306.000 358.400 C 306.000 358.924,305.733 359.200,305.227 359.200 C 304.802 359.200,304.343 359.550,304.207 359.977 C 304.033 360.525,303.528 360.790,302.496 360.877 C 301.399 360.969,300.977 361.212,300.816 361.843 C 300.683 362.361,300.330 362.644,299.900 362.578 C 299.440 362.508,299.200 362.733,299.200 363.235 C 299.200 363.656,299.065 364.011,298.900 364.026 C 298.735 364.040,298.015 364.109,297.300 364.179 L 296.000 364.307 296.000 348.003 C 296.000 330.424,295.919 329.200,294.750 329.200 C 294.100 329.200,294.000 328.880,294.000 326.800 C 294.000 324.667,293.911 324.400,293.200 324.400 C 292.488 324.400,292.400 324.133,292.400 321.963 C 292.400 319.862,292.290 319.496,291.600 319.316 C 290.916 319.137,290.800 318.770,290.800 316.780 C 290.800 314.805,290.679 314.416,290.000 314.200 C 289.318 313.984,289.200 313.595,289.200 311.573 C 289.200 309.467,289.110 309.200,288.400 309.200 C 287.682 309.200,287.600 308.933,287.600 306.600 L 287.600 304.000 290.800 304.000 C 293.695 304.000,294.000 303.926,294.000 303.228 C 294.000 302.732,294.322 302.410,294.900 302.328 C 295.746 302.208,295.807 301.986,295.916 298.636 C 296.067 294.036,296.300 294.195,289.621 294.337 C 284.073 294.455,284.063 294.453,283.931 293.527 C 283.847 292.933,283.549 292.620,283.100 292.656 C 282.501 292.703,282.400 292.344,282.400 290.156 C 282.400 287.867,282.317 287.600,281.600 287.600 C 280.882 287.600,280.800 287.333,280.800 284.982 C 280.800 282.711,280.707 282.380,280.100 282.482 C 279.491 282.585,279.385 282.193,279.282 279.458 C 279.180 276.730,279.062 276.289,278.382 276.111 C 277.729 275.941,277.600 275.554,277.600 273.776 C 277.600 272.154,277.423 271.521,276.857 271.123 C 276.328 270.751,276.059 269.936,275.924 268.300 L 275.734 266.000 279.067 266.000 C 282.356 266.000,282.400 265.987,282.400 265.000 C 282.400 264.267,282.613 264.000,283.200 264.000 C 283.933 264.000,284.000 263.733,284.000 260.800 C 284.000 257.867,283.933 257.600,283.200 257.600 C 282.667 257.600,282.400 257.333,282.400 256.800 C 282.400 256.043,282.133 256.000,277.400 256.000 C 272.667 256.000,272.400 255.957,272.400 255.200 C 272.400 254.667,272.133 254.400,271.600 254.400 C 270.888 254.400,270.800 254.133,270.800 251.963 C 270.800 249.862,270.690 249.496,270.000 249.316 C 269.323 249.139,269.200 248.770,269.200 246.916 C 269.200 245.062,269.077 244.693,268.400 244.516 C 267.713 244.336,267.600 243.970,267.600 241.916 C 267.600 239.862,267.487 239.496,266.800 239.316 C 266.115 239.137,266.000 238.770,266.000 236.761 C 266.000 234.592,265.924 234.396,265.000 234.164 C 264.039 233.923,264.000 233.790,264.000 230.757 C 264.000 227.867,263.932 227.600,263.200 227.600 C 262.490 227.600,262.400 227.333,262.400 225.227 C 262.400 223.205,262.282 222.816,261.600 222.600 C 260.927 222.386,260.800 221.995,260.800 220.136 C 260.800 218.278,260.675 217.892,260.018 217.721 C 259.367 217.550,259.216 217.105,259.118 215.058 C 259.028 213.192,258.855 212.600,258.400 212.600 C 257.943 212.600,257.772 212.003,257.681 210.100 C 257.579 207.950,257.455 207.600,256.800 207.600 C 256.145 207.600,256.021 207.250,255.919 205.100 C 255.841 203.465,255.627 202.583,255.300 202.550 C 255.025 202.523,254.620 202.478,254.400 202.450 C 254.180 202.423,254.000 202.040,254.000 201.600 C 254.000 201.067,253.733 200.800,253.200 200.800 C 252.667 200.800,252.400 200.533,252.400 200.000 C 252.400 199.232,252.133 199.200,245.800 199.200 L 239.200 199.200 239.200 184.200 C 239.200 169.467,239.186 169.200,238.400 169.200 C 237.867 169.200,237.600 168.933,237.600 168.400 C 237.600 167.666,237.333 167.600,234.363 167.600 C 231.462 167.600,231.103 167.683,230.916 168.400 C 230.800 168.843,230.370 169.200,229.953 169.200 C 229.229 169.200,229.200 169.776,229.200 184.200 L 229.200 199.200 222.600 199.200 C 216.346 199.200,216.000 199.240,216.000 199.972 C 216.000 200.468,215.678 200.790,215.100 200.872 C 214.499 200.958,214.239 201.233,214.318 201.700 C 214.382 202.085,214.247 202.423,214.018 202.450 C 213.788 202.478,213.375 202.523,213.100 202.550 C 212.781 202.582,212.580 203.326,212.546 204.600 C 212.466 207.588,212.462 207.600,211.600 207.600 C 210.883 207.600,210.800 207.867,210.800 210.156 C 210.800 212.344,210.699 212.703,210.100 212.656 C 209.513 212.609,209.381 213.005,209.281 215.100 C 209.177 217.272,209.059 217.600,208.381 217.600 C 207.672 217.600,207.600 217.892,207.600 220.753 C 207.600 223.570,207.515 223.929,206.800 224.116 C 206.110 224.296,206.000 224.662,206.000 226.763 C 206.000 228.905,205.906 229.200,205.227 229.200 C 204.290 229.200,204.024 229.999,204.131 232.484 C 204.201 234.102,204.098 234.385,203.406 234.484 C 202.743 234.580,202.592 234.918,202.555 236.400 C 202.488 239.038,202.472 239.088,201.600 239.316 C 200.883 239.503,200.800 239.862,200.800 242.763 C 200.800 245.733,200.734 246.000,200.000 246.000 C 199.289 246.000,199.200 246.267,199.200 248.400 C 199.200 250.533,199.111 250.800,198.400 250.800 C 197.682 250.800,197.600 251.067,197.600 253.400 L 197.600 256.000 191.800 256.000 C 186.267 256.000,186.000 256.037,186.000 256.800 C 186.000 257.327,185.733 257.600,185.218 257.600 C 183.694 257.600,183.580 263.712,185.100 263.928 C 185.751 264.020,186.000 264.324,186.000 265.028 C 186.000 265.979,186.071 266.000,189.312 266.000 L 192.625 266.000 192.612 269.199 C 192.606 270.959,192.465 272.422,192.300 272.449 C 192.135 272.477,191.775 272.522,191.500 272.550 C 191.173 272.583,190.959 273.465,190.881 275.100 C 190.777 277.272,190.659 277.600,189.981 277.600 C 189.288 277.600,189.200 277.887,189.200 280.156 C 189.200 282.344,189.099 282.703,188.500 282.656 C 187.913 282.609,187.781 283.005,187.681 285.100 C 187.577 287.272,187.459 287.600,186.781 287.600 C 186.094 287.600,186.000 287.886,186.000 289.973 C 186.000 291.995,185.882 292.384,185.200 292.600 C 184.742 292.745,184.400 293.205,184.400 293.676 C 184.400 294.472,184.240 294.492,179.296 294.310 C 172.287 294.052,172.609 293.849,172.557 298.540 C 172.514 302.341,172.527 302.400,173.457 302.400 C 174.133 302.400,174.400 302.626,174.400 303.200 C 174.400 303.940,174.677 304.002,178.100 304.032 C 180.135 304.049,181.575 304.154,181.300 304.265 C 180.979 304.394,180.800 305.314,180.800 306.833 C 180.800 308.933,180.710 309.200,180.000 309.200 C 179.288 309.200,179.200 309.467,179.200 311.637 C 179.200 313.738,179.090 314.104,178.400 314.284 C 177.687 314.471,177.600 314.830,177.600 317.600 C 177.600 320.370,177.513 320.729,176.800 320.916 C 176.112 321.096,176.000 321.462,176.000 323.535 C 176.000 325.729,175.920 325.956,175.100 326.072 C 174.404 326.171,174.193 326.472,174.167 327.400 C 174.087 330.318,173.981 330.745,173.309 330.874 C 172.435 331.043,172.488 329.148,172.440 362.100 L 172.400 389.200 170.027 389.200 C 168.005 389.200,167.616 389.082,167.400 388.400 C 167.169 387.671,166.795 387.600,163.173 387.600 C 159.467 387.600,159.200 387.546,159.200 386.800 C 159.200 386.063,158.933 386.000,155.800 386.000 C 152.667 386.000,152.400 385.937,152.400 385.200 C 152.400 384.376,152.077 384.278,149.200 384.225 L 147.800 384.200 147.699 266.062 C 147.600 149.002,147.591 147.923,146.813 147.719 C 146.380 147.606,145.918 147.173,145.786 146.757 C 145.586 146.126,145.150 146.000,143.173 146.000 C 141.099 146.000,140.800 145.903,140.800 145.232 C 140.800 144.315,139.631 144.033,136.300 144.145 C 134.217 144.214,134.000 144.144,134.000 143.394 C 134.000 142.636,133.746 142.562,130.952 142.504 C 128.374 142.450,127.815 142.313,127.329 141.620 C 126.799 140.863,126.345 140.800,121.404 140.800 C 116.405 140.800,116.037 140.747,115.800 140.000 C 115.562 139.249,115.195 139.200,109.773 139.200 L 104.000 139.200 104.000 110.000 C 104.000 81.067,103.993 80.800,103.200 80.800 C 102.667 80.800,102.400 80.533,102.400 80.000 C 102.400 78.778,96.435 78.778,96.116 80.000 C 96.000 80.443,95.570 80.800,95.153 80.800 C 94.706 80.800,94.396 81.085,94.390 81.500 C 94.384 81.885,94.389 95.025,94.400 110.700 L 94.420 139.200 86.973 139.200 C 79.862 139.200,79.516 139.236,79.316 140.000 C 79.121 140.744,78.770 140.800,74.343 140.800 C 69.772 140.800,69.566 140.836,69.238 141.700 C 68.916 142.548,68.683 142.598,65.230 142.557 C 61.982 142.520,61.501 142.607,61.001 143.321 C 60.564 143.944,59.957 144.136,58.318 144.169 C 56.446 144.206,56.185 144.315,56.072 145.106 C 55.962 145.879,55.703 146.000,54.155 146.000 C 52.672 146.000,52.385 146.120,52.482 146.700 C 52.561 147.167,52.301 147.442,51.699 147.528 L 50.798 147.656 50.899 242.328 L 51.000 337.000 51.905 337.397 C 52.421 337.623,52.722 338.027,52.604 338.334 C 52.484 338.646,52.730 338.961,53.185 339.080 C 53.619 339.194,54.082 339.627,54.214 340.043 C 54.346 340.459,54.802 340.800,55.227 340.800 C 55.733 340.800,56.000 341.076,56.000 341.600 C 56.000 342.133,56.267 342.400,56.800 342.400 C 57.333 342.400,57.600 342.667,57.600 343.200 C 57.600 343.733,57.867 344.000,58.400 344.000 C 58.945 344.000,59.200 344.267,59.200 344.837 C 59.200 345.325,59.519 345.758,59.963 345.874 C 60.383 345.984,60.816 346.417,60.926 346.837 C 61.041 347.277,61.475 347.600,61.950 347.600 C 62.515 347.600,62.703 347.787,62.547 348.194 C 62.397 348.584,62.677 348.925,63.359 349.185 C 63.932 349.402,64.400 349.855,64.400 350.190 C 64.400 350.533,64.750 350.800,65.200 350.800 C 65.733 350.800,66.000 351.067,66.000 351.600 C 66.000 352.267,66.267 352.400,67.600 352.400 C 68.933 352.400,69.200 352.533,69.200 353.200 C 69.200 353.733,69.467 354.000,70.000 354.000 C 70.537 354.000,70.800 354.267,70.800 354.810 C 70.800 355.311,71.191 355.768,71.824 356.009 C 72.387 356.223,72.736 356.579,72.600 356.800 C 72.464 357.021,72.813 357.377,73.376 357.591 C 73.939 357.805,74.400 358.255,74.400 358.590 C 74.400 359.035,74.833 359.200,76.000 359.200 C 77.333 359.200,77.600 359.333,77.600 360.000 C 77.600 360.533,77.867 360.800,78.400 360.800 C 78.933 360.800,79.200 361.067,79.200 361.600 C 79.200 362.133,79.467 362.400,80.000 362.400 C 80.533 362.400,80.800 362.667,80.800 363.200 C 80.800 363.881,81.067 364.000,82.595 364.000 C 84.218 364.000,84.381 364.086,84.295 364.899 C 84.226 365.551,84.436 365.831,85.059 365.921 C 85.532 365.989,86.010 366.395,86.122 366.822 C 86.276 367.411,86.675 367.600,87.763 367.600 C 88.933 367.600,89.200 367.748,89.200 368.400 C 89.200 368.917,89.467 369.200,89.953 369.200 C 90.370 369.200,90.800 369.557,90.916 370.000 C 91.083 370.637,91.462 370.800,92.780 370.800 C 94.134 370.800,94.414 370.927,94.318 371.500 C 94.239 371.967,94.499 372.242,95.100 372.328 C 95.678 372.410,96.000 372.732,96.000 373.228 C 96.000 373.860,96.286 374.000,97.572 374.000 C 98.898 374.000,99.164 374.141,99.272 374.900 C 99.378 375.644,99.712 375.835,101.200 376.000 C 102.190 376.110,102.955 376.335,102.900 376.500 C 102.614 377.358,102.944 377.600,104.400 377.600 C 105.733 377.600,106.000 377.733,106.000 378.400 C 106.000 379.067,106.267 379.200,107.600 379.200 C 108.933 379.200,109.200 379.333,109.200 380.000 C 109.200 380.680,109.467 380.800,110.977 380.800 C 112.539 380.800,112.735 380.897,112.600 381.600 C 112.465 382.303,112.661 382.400,114.223 382.400 C 115.733 382.400,116.000 382.520,116.000 383.200 C 116.000 383.864,116.267 384.000,117.572 384.000 C 118.898 384.000,119.164 384.141,119.272 384.900 C 119.374 385.620,119.720 385.840,121.000 386.000 C 122.067 386.133,122.600 386.400,122.600 386.800 C 122.600 387.257,123.197 387.428,125.100 387.519 C 127.272 387.623,127.600 387.741,127.600 388.419 C 127.600 389.113,127.888 389.200,130.177 389.200 C 132.539 389.200,132.741 389.267,132.600 390.000 C 132.465 390.703,132.661 390.800,134.223 390.800 C 135.733 390.800,136.000 390.920,136.000 391.600 C 136.000 392.333,136.267 392.400,139.200 392.400 C 142.287 392.400,142.631 392.538,142.447 393.700 C 142.421 393.865,143.570 394.000,145.000 394.000 C 147.284 394.000,147.600 394.092,147.600 394.757 C 147.600 395.770,148.348 396.000,151.633 396.000 C 153.731 396.000,154.400 396.135,154.400 396.557 C 154.400 397.388,155.322 397.600,158.936 397.600 C 161.774 397.600,162.274 397.706,162.707 398.400 C 163.167 399.136,163.640 399.200,168.603 399.200 C 171.934 399.200,174.000 399.353,174.000 399.600 C 174.000 399.863,182.933 400.000,200.000 400.000 C 217.067 400.000,226.000 399.863,226.000 399.600 C 226.000 399.353,228.066 399.200,231.397 399.200 C 236.360 399.200,236.833 399.136,237.293 398.400 C 237.726 397.706,238.226 397.600,241.064 397.600 C 244.678 397.600,245.600 397.388,245.600 396.557 C 245.600 396.150,246.179 396.000,247.750 396.000 C 251.015 396.000,252.400 395.628,252.400 394.750 C 252.400 394.094,252.724 394.000,255.000 394.000 C 257.333 394.000,257.600 393.918,257.600 393.200 C 257.600 392.467,257.867 392.400,260.800 392.400 C 263.733 392.400,264.000 392.333,264.000 391.600 C 264.000 390.888,264.267 390.800,266.437 390.800 C 268.538 390.800,268.904 390.690,269.084 390.000 C 269.248 389.373,269.630 389.200,270.847 389.200 C 272.133 389.200,272.400 389.063,272.400 388.400 C 272.400 387.698,272.667 387.600,274.577 387.600 C 276.271 387.600,276.874 387.429,277.293 386.832 C 277.602 386.390,278.419 386.007,279.215 385.932 C 280.297 385.829,280.628 385.603,280.728 384.900 C 280.836 384.141,281.102 384.000,282.428 384.000 C 283.733 384.000,284.000 383.864,284.000 383.200 C 284.000 382.519,284.267 382.400,285.800 382.400 C 287.333 382.400,287.600 382.281,287.600 381.600 C 287.600 380.933,287.867 380.800,289.200 380.800 C 290.533 380.800,290.800 380.667,290.800 380.000 C 290.800 379.333,291.067 379.200,292.400 379.200 C 293.733 379.200,294.000 379.067,294.000 378.400 C 294.000 377.730,294.267 377.600,295.637 377.600 C 296.923 377.600,297.319 377.433,297.478 376.822 C 297.625 376.263,298.093 376.009,299.141 375.922 C 300.304 375.825,300.626 375.618,300.728 374.900 C 300.836 374.141,301.102 374.000,302.428 374.000 C 303.733 374.000,304.000 373.864,304.000 373.200 C 304.000 372.613,304.267 372.400,305.000 372.400 C 305.733 372.400,306.000 372.187,306.000 371.600 C 306.000 370.933,306.267 370.800,307.600 370.800 C 308.933 370.800,309.200 370.667,309.200 370.000 C 309.200 369.467,309.467 369.200,310.000 369.200 C 310.533 369.200,310.800 368.933,310.800 368.400 C 310.800 367.733,311.067 367.600,312.400 367.600 C 313.714 367.600,314.000 367.462,314.000 366.828 C 314.000 366.332,314.322 366.010,314.900 365.928 C 315.478 365.846,315.846 365.478,315.928 364.900 C 316.036 364.141,316.302 364.000,317.628 364.000 C 318.933 364.000,319.200 363.864,319.200 363.200 C 319.200 362.667,319.467 362.400,320.000 362.400 C 320.533 362.400,320.800 362.133,320.800 361.600 C 320.800 361.067,321.067 360.800,321.600 360.800 C 322.133 360.800,322.400 360.533,322.400 360.000 C 322.400 359.336,322.667 359.200,323.973 359.200 C 325.165 359.200,325.604 359.017,325.786 358.443 C 325.918 358.027,326.381 357.594,326.813 357.481 C 327.246 357.367,327.600 357.009,327.600 356.684 C 327.600 356.359,327.960 355.999,328.400 355.884 C 328.879 355.759,329.200 355.338,329.200 354.837 C 329.200 354.267,329.455 354.000,330.000 354.000 C 330.533 354.000,330.800 353.733,330.800 353.200 C 330.800 352.533,331.067 352.400,332.400 352.400 C 333.733 352.400,334.000 352.267,334.000 351.600 C 334.000 351.076,334.267 350.800,334.773 350.800 C 335.198 350.800,335.654 350.459,335.786 350.043 C 335.918 349.627,336.381 349.194,336.813 349.081 C 337.246 348.967,337.600 348.609,337.600 348.284 C 337.600 347.959,337.960 347.599,338.400 347.484 C 338.840 347.369,339.200 347.000,339.200 346.664 C 339.200 346.329,339.560 345.940,340.000 345.800 C 340.440 345.660,340.800 345.198,340.800 344.773 C 340.800 344.267,341.076 344.000,341.600 344.000 C 342.133 344.000,342.400 343.733,342.400 343.200 C 342.400 342.667,342.667 342.400,343.200 342.400 C 343.733 342.400,344.000 342.133,344.000 341.600 C 344.000 341.076,344.267 340.800,344.773 340.800 C 345.198 340.800,345.654 340.459,345.786 340.043 C 345.918 339.627,346.381 339.194,346.813 339.081 C 347.246 338.967,347.600 338.609,347.600 338.284 C 347.600 337.959,347.960 337.599,348.400 337.484 C 348.840 337.369,349.200 337.000,349.200 336.664 C 349.200 336.329,349.560 335.940,350.000 335.800 C 350.440 335.660,350.800 335.198,350.800 334.773 C 350.800 334.267,351.076 334.000,351.600 334.000 C 352.267 334.000,352.400 333.733,352.400 332.400 C 352.400 331.067,352.533 330.800,353.200 330.800 C 353.733 330.800,354.000 330.533,354.000 330.000 C 354.000 329.455,354.267 329.200,354.837 329.200 C 355.325 329.200,355.758 328.881,355.874 328.437 C 355.984 328.017,356.417 327.584,356.837 327.474 C 357.257 327.365,357.600 327.000,357.600 326.664 C 357.600 326.329,357.960 325.940,358.400 325.800 C 359.021 325.603,359.200 325.195,359.200 323.973 C 359.200 322.667,359.336 322.400,360.000 322.400 C 360.533 322.400,360.800 322.133,360.800 321.600 C 360.800 321.067,361.067 320.800,361.600 320.800 C 362.133 320.800,362.400 320.533,362.400 320.000 C 362.400 319.467,362.667 319.200,363.200 319.200 C 363.864 319.200,364.000 318.933,364.000 317.628 C 364.000 316.302,364.141 316.036,364.900 315.928 C 365.463 315.848,365.846 315.479,365.922 314.941 C 365.990 314.468,366.395 313.990,366.822 313.878 C 367.411 313.724,367.600 313.325,367.600 312.237 C 367.600 311.067,367.748 310.800,368.400 310.800 C 368.917 310.800,369.200 310.533,369.200 310.047 C 369.200 309.630,369.557 309.200,370.000 309.084 C 370.613 308.924,370.800 308.538,370.800 307.437 C 370.800 306.267,370.948 306.000,371.600 306.000 C 372.187 306.000,372.400 305.733,372.400 305.000 C 372.400 304.267,372.613 304.000,373.200 304.000 C 373.867 304.000,374.000 303.733,374.000 302.400 C 374.000 301.097,374.140 300.800,374.757 300.800 C 375.579 300.800,376.000 300.060,376.000 298.614 C 376.000 298.030,376.292 297.617,376.800 297.484 C 377.436 297.318,377.600 296.938,377.600 295.637 C 377.600 294.267,377.730 294.000,378.400 294.000 C 379.067 294.000,379.200 293.733,379.200 292.400 C 379.200 291.067,379.333 290.800,380.000 290.800 C 380.667 290.800,380.800 290.533,380.800 289.200 C 380.800 287.867,380.933 287.600,381.600 287.600 C 382.281 287.600,382.400 287.333,382.400 285.800 C 382.400 284.267,382.519 284.000,383.200 284.000 C 383.867 284.000,384.000 283.733,384.000 282.400 C 384.000 281.067,384.133 280.800,384.800 280.800 C 385.240 280.800,385.627 280.575,385.661 280.300 C 385.694 280.025,385.764 279.620,385.815 279.400 C 385.866 279.180,385.928 278.706,385.954 278.347 C 385.979 277.987,386.360 277.599,386.800 277.484 C 387.490 277.304,387.600 276.938,387.600 274.837 C 387.600 272.667,387.688 272.400,388.400 272.400 C 389.111 272.400,389.200 272.133,389.200 270.000 C 389.200 267.867,389.289 267.600,390.000 267.600 C 390.681 267.600,390.800 267.333,390.800 265.800 C 390.800 264.267,390.919 264.000,391.600 264.000 C 392.333 264.000,392.400 263.733,392.400 260.800 C 392.400 257.867,392.467 257.600,393.200 257.600 C 393.918 257.600,394.000 257.333,394.000 255.000 C 394.000 252.716,394.092 252.400,394.757 252.400 C 395.770 252.400,396.000 251.652,396.000 248.367 C 396.000 246.269,396.135 245.600,396.557 245.600 C 397.388 245.600,397.600 244.678,397.600 241.064 C 397.600 238.226,397.706 237.726,398.400 237.293 C 399.136 236.833,399.200 236.360,399.200 231.397 C 399.200 228.066,399.353 226.000,399.600 226.000 C 399.863 226.000,400.000 217.067,400.000 200.000 C 400.000 182.933,399.863 174.000,399.600 174.000 C 399.353 174.000,399.200 171.934,399.200 168.603 C 399.200 163.640,399.136 163.167,398.400 162.707 C 397.706 162.274,397.600 161.774,397.600 158.936 C 397.600 155.322,397.388 154.400,396.557 154.400 C 396.150 154.400,396.000 153.821,396.000 152.250 C 396.000 148.985,395.628 147.600,394.750 147.600 C 394.094 147.600,394.000 147.276,394.000 145.000 C 394.000 143.570,393.865 142.421,393.700 142.447 C 392.538 142.631,392.400 142.287,392.400 139.200 C 392.400 136.267,392.333 136.000,391.600 136.000 C 390.888 136.000,390.800 135.733,390.800 133.563 C 390.800 131.462,390.690 131.096,390.000 130.916 C 389.373 130.752,389.200 130.370,389.200 129.153 C 389.200 127.867,389.063 127.600,388.400 127.600 C 387.698 127.600,387.600 127.333,387.600 125.423 C 387.600 123.729,387.429 123.126,386.832 122.707 C 386.390 122.398,386.007 121.581,385.932 120.785 C 385.829 119.703,385.603 119.372,384.900 119.272 C 384.141 119.164,384.000 118.898,384.000 117.572 C 384.000 116.267,383.864 116.000,383.200 116.000 C 382.520 116.000,382.400 115.733,382.400 114.223 C 382.400 112.661,382.303 112.465,381.600 112.600 C 380.897 112.735,380.800 112.539,380.800 110.977 C 380.800 109.467,380.680 109.200,380.000 109.200 C 379.333 109.200,379.200 108.933,379.200 107.600 C 379.200 106.282,379.063 106.000,378.423 106.000 C 377.795 106.000,377.622 105.674,377.523 104.300 C 377.437 103.110,377.220 102.600,376.800 102.600 C 376.400 102.600,376.133 102.067,376.000 101.000 C 375.840 99.720,375.620 99.374,374.900 99.272 C 374.141 99.164,374.000 98.898,374.000 97.572 C 374.000 96.286,373.860 96.000,373.228 96.000 C 372.732 96.000,372.410 95.678,372.328 95.100 C 372.242 94.499,371.967 94.239,371.500 94.318 C 370.919 94.415,370.800 94.127,370.800 92.618 C 370.800 91.067,370.683 90.800,370.000 90.800 C 369.467 90.800,369.200 90.533,369.200 90.000 C 369.200 89.467,368.933 89.200,368.400 89.200 C 367.733 89.200,367.600 88.933,367.600 87.600 C 367.600 86.286,367.462 86.000,366.828 86.000 C 366.332 86.000,366.009 85.678,365.927 85.100 C 365.831 84.436,365.562 84.225,364.899 84.295 C 364.086 84.381,364.000 84.218,364.000 82.595 C 364.000 81.067,363.881 80.800,363.200 80.800 C 362.667 80.800,362.400 80.533,362.400 80.000 C 362.400 79.467,362.133 79.200,361.600 79.200 C 361.067 79.200,360.800 78.933,360.800 78.400 C 360.800 77.867,360.533 77.600,360.000 77.600 C 359.333 77.600,359.200 77.333,359.200 76.000 C 359.200 74.833,359.035 74.400,358.590 74.400 C 358.255 74.400,357.810 73.953,357.603 73.408 C 357.363 72.777,357.014 72.496,356.645 72.638 C 356.256 72.787,356.020 72.553,355.932 71.931 C 355.846 71.322,355.489 70.956,354.900 70.872 C 354.322 70.790,354.000 70.468,354.000 69.972 C 354.000 69.467,353.724 69.200,353.200 69.200 C 352.533 69.200,352.400 68.933,352.400 67.600 C 352.400 66.267,352.267 66.000,351.600 66.000 C 351.067 66.000,350.800 65.733,350.800 65.200 C 350.800 64.750,350.533 64.400,350.190 64.400 C 349.855 64.400,349.402 63.932,349.185 63.359 C 348.925 62.677,348.584 62.397,348.194 62.547 C 347.787 62.703,347.600 62.515,347.600 61.950 C 347.600 61.466,347.275 61.040,346.813 60.919 C 346.381 60.806,345.918 60.373,345.786 59.957 C 345.654 59.541,345.198 59.200,344.773 59.200 C 344.267 59.200,344.000 58.924,344.000 58.400 C 344.000 57.867,343.733 57.600,343.200 57.600 C 342.667 57.600,342.400 57.333,342.400 56.800 C 342.400 56.267,342.133 56.000,341.600 56.000 C 341.067 56.000,340.800 55.733,340.800 55.200 C 340.800 54.750,340.533 54.400,340.190 54.400 C 339.855 54.400,339.402 53.932,339.185 53.359 C 338.925 52.677,338.584 52.397,338.194 52.547 C 337.787 52.703,337.600 52.515,337.600 51.950 C 337.600 51.466,337.275 51.040,336.813 50.919 C 336.381 50.806,335.918 50.373,335.786 49.957 C 335.654 49.541,335.198 49.200,334.773 49.200 C 334.267 49.200,334.000 48.924,334.000 48.400 C 334.000 47.733,333.733 47.600,332.400 47.600 C 331.067 47.600,330.800 47.467,330.800 46.800 C 330.800 46.276,330.533 46.000,330.028 46.000 C 329.532 46.000,329.210 45.678,329.128 45.100 C 329.058 44.605,328.730 44.200,328.400 44.200 C 328.070 44.200,327.698 43.840,327.573 43.400 C 327.449 42.960,327.064 42.648,326.719 42.707 C 326.333 42.773,325.993 42.425,325.838 41.807 C 325.620 40.942,325.360 40.800,323.992 40.800 C 322.667 40.800,322.400 40.666,322.400 40.000 C 322.400 39.467,322.133 39.200,321.600 39.200 C 321.067 39.200,320.800 38.933,320.800 38.400 C 320.800 37.867,320.533 37.600,320.000 37.600 C 319.467 37.600,319.200 37.333,319.200 36.800 C 319.200 36.136,318.933 36.000,317.628 36.000 C 316.302 36.000,316.035 35.859,315.927 35.100 C 315.833 34.446,315.560 34.225,314.925 34.291 C 314.293 34.356,314.018 34.136,313.927 33.491 C 313.804 32.628,313.627 32.545,311.700 32.446 C 311.082 32.414,310.800 32.149,310.800 31.600 C 310.800 31.083,310.533 30.800,310.047 30.800 C 309.630 30.800,309.200 30.443,309.084 30.000 C 308.925 29.394,308.538 29.200,307.484 29.200 C 306.430 29.200,306.043 29.006,305.884 28.400 C 305.759 27.921,305.338 27.600,304.837 27.600 C 304.267 27.600,304.000 27.345,304.000 26.800 C 304.000 26.133,303.733 26.000,302.400 26.000 C 301.067 26.000,300.800 25.867,300.800 25.200 C 300.800 24.418,300.253 24.198,298.663 24.338 C 298.228 24.377,297.840 24.076,297.716 23.602 C 297.601 23.161,297.348 22.777,297.153 22.750 C 296.353 22.637,295.163 22.497,294.600 22.450 C 294.270 22.422,294.000 22.040,294.000 21.600 C 294.000 20.933,293.733 20.800,292.400 20.800 C 291.067 20.800,290.800 20.667,290.800 20.000 C 290.800 19.333,290.533 19.200,289.200 19.200 C 287.867 19.200,287.600 19.067,287.600 18.400 C 287.600 17.719,287.333 17.600,285.800 17.600 C 284.267 17.600,284.000 17.481,284.000 16.800 C 284.000 16.133,283.733 16.000,282.400 16.000 C 281.067 16.000,280.800 15.867,280.800 15.200 C 280.800 14.436,280.598 14.346,278.642 14.241 C 278.226 14.218,277.757 13.840,277.602 13.400 C 277.400 12.829,276.929 12.585,275.960 12.547 C 275.212 12.518,274.105 12.473,273.500 12.447 C 272.682 12.412,272.400 12.195,272.400 11.600 C 272.400 10.889,272.133 10.800,270.000 10.800 C 267.867 10.800,267.600 10.711,267.600 10.000 C 267.600 9.319,267.333 9.200,265.800 9.200 C 264.267 9.200,264.000 9.081,264.000 8.400 C 264.000 7.667,263.733 7.600,260.800 7.600 C 257.867 7.600,257.600 7.533,257.600 6.800 C 257.600 6.082,257.333 6.000,255.000 6.000 C 252.687 6.000,252.400 5.914,252.400 5.218 C 252.400 4.434,250.954 3.953,249.000 4.088 C 246.882 4.233,245.600 3.974,245.600 3.400 C 245.600 2.697,245.924 2.761,241.447 2.575 C 238.426 2.450,237.809 2.306,237.325 1.614 C 236.799 0.864,236.332 0.800,231.377 0.800 C 228.059 0.800,226.000 0.647,226.000 0.400 C 226.000 0.137,217.067 0.000,200.000 0.000 C 182.933 0.000,174.000 0.137,174.000 0.400 M202.482 29.900 C 202.561 30.367,202.301 30.642,201.700 30.728 L 200.800 30.856 200.800 41.628 L 200.800 52.400 201.763 52.400 C 202.528 52.400,202.682 52.564,202.516 53.200 C 202.316 53.963,202.504 54.000,206.553 54.000 L 210.800 54.000 210.800 41.600 L 210.800 29.200 206.582 29.200 C 202.788 29.200,202.377 29.270,202.482 29.900 M168.156 42.724 C 167.928 42.876,167.625 43.315,167.483 43.700 C 167.341 44.085,166.949 44.400,166.613 44.400 C 166.103 44.400,166.000 45.075,166.000 48.400 C 166.000 52.133,166.053 52.400,166.800 52.400 C 167.333 52.400,167.600 52.667,167.600 53.200 C 167.600 53.733,167.867 54.000,168.400 54.000 C 168.924 54.000,169.200 54.267,169.200 54.773 C 169.200 55.198,169.541 55.654,169.957 55.786 C 170.373 55.918,170.806 56.381,170.919 56.813 C 171.040 57.275,171.466 57.600,171.950 57.600 C 172.515 57.600,172.703 57.787,172.547 58.194 C 172.397 58.584,172.677 58.925,173.359 59.185 C 173.932 59.402,174.400 59.855,174.400 60.190 C 174.400 60.533,174.750 60.800,175.200 60.800 C 175.733 60.800,176.000 61.067,176.000 61.600 C 176.000 62.133,176.267 62.400,176.800 62.400 C 177.333 62.400,177.600 62.667,177.600 63.200 C 177.600 63.949,177.867 64.000,181.800 64.000 C 185.647 64.000,186.000 63.937,186.000 63.247 C 186.000 62.830,186.357 62.400,186.800 62.284 C 188.135 61.935,187.906 56.000,186.557 56.000 C 186.251 56.000,186.000 55.713,186.000 55.363 C 186.000 55.012,185.626 54.627,185.169 54.508 C 184.712 54.388,184.170 53.847,183.964 53.305 C 183.721 52.666,183.379 52.399,182.994 52.547 C 182.567 52.711,182.400 52.497,182.400 51.787 C 182.400 51.067,182.184 50.800,181.600 50.800 C 181.067 50.800,180.800 50.533,180.800 50.000 C 180.800 49.467,180.533 49.200,180.000 49.200 C 179.467 49.200,179.200 48.933,179.200 48.400 C 179.200 47.867,178.933 47.600,178.400 47.600 C 177.935 47.600,177.600 47.333,177.600 46.963 C 177.600 46.612,177.240 46.231,176.800 46.116 C 176.360 46.001,176.000 45.652,176.000 45.341 C 176.000 44.737,175.269 44.345,173.865 44.195 C 172.489 44.047,172.465 44.034,172.329 43.329 C 172.193 42.623,169.002 42.160,168.156 42.724 M239.700 42.665 C 239.425 42.776,239.200 43.220,239.200 43.651 C 239.200 44.176,238.969 44.396,238.500 44.318 C 238.033 44.239,237.758 44.499,237.672 45.100 C 237.590 45.678,237.268 46.000,236.772 46.000 C 236.276 46.000,236.000 46.276,236.000 46.772 C 236.000 47.268,235.678 47.590,235.100 47.672 C 234.499 47.758,234.239 48.033,234.318 48.500 C 234.404 49.017,234.164 49.200,233.400 49.200 C 232.636 49.200,232.396 49.383,232.482 49.900 C 232.560 50.363,232.303 50.642,231.725 50.725 C 231.179 50.802,230.802 51.179,230.725 51.725 C 230.642 52.303,230.363 52.560,229.900 52.482 C 229.383 52.396,229.200 52.636,229.200 53.400 C 229.200 54.164,229.017 54.404,228.500 54.318 C 228.033 54.239,227.758 54.499,227.672 55.100 C 227.590 55.678,227.268 56.000,226.772 56.000 C 226.061 56.000,226.000 56.315,226.000 60.000 L 226.000 64.000 230.000 64.000 C 233.733 64.000,234.000 63.947,234.000 63.200 C 234.000 62.613,234.267 62.400,235.000 62.400 C 235.733 62.400,236.000 62.187,236.000 61.600 C 236.000 61.067,236.267 60.800,236.800 60.800 C 237.333 60.800,237.600 60.533,237.600 60.000 C 237.600 59.467,237.867 59.200,238.400 59.200 C 238.933 59.200,239.200 58.933,239.200 58.400 C 239.200 57.867,239.467 57.600,240.000 57.600 C 240.533 57.600,240.800 57.333,240.800 56.800 C 240.800 56.267,241.067 56.000,241.600 56.000 C 242.187 56.000,242.400 55.733,242.400 55.000 C 242.400 54.267,242.613 54.000,243.200 54.000 C 243.733 54.000,244.000 53.733,244.000 53.200 C 244.000 52.613,244.267 52.400,245.000 52.400 C 245.733 52.400,246.000 52.187,246.000 51.600 C 246.000 51.160,246.251 50.800,246.557 50.800 C 247.848 50.800,248.094 46.454,246.822 46.122 C 246.395 46.010,245.989 45.532,245.921 45.059 C 245.831 44.436,245.551 44.226,244.899 44.295 C 244.252 44.364,244.000 44.180,244.000 43.638 C 244.000 42.544,241.437 41.964,239.700 42.665 M197.600 60.000 C 197.600 60.701,197.333 60.800,195.449 60.800 C 193.342 60.800,192.037 61.490,192.557 62.330 C 192.680 62.530,192.381 62.673,191.891 62.647 C 191.250 62.613,190.964 62.856,190.871 63.511 C 190.787 64.104,190.507 64.383,190.071 64.311 C 189.636 64.239,189.355 64.517,189.272 65.100 C 189.190 65.678,188.868 66.000,188.372 66.000 C 187.867 66.000,187.600 66.276,187.600 66.800 C 187.600 67.333,187.333 67.600,186.800 67.600 C 186.267 67.600,186.000 67.867,186.000 68.400 C 186.000 68.933,185.733 69.200,185.200 69.200 C 184.397 69.200,184.271 69.543,184.287 71.686 C 184.293 72.554,184.125 72.755,183.447 72.686 C 182.703 72.610,182.594 72.820,182.549 74.400 C 182.462 77.504,182.433 77.600,181.600 77.600 C 180.833 77.600,180.800 77.867,180.800 84.037 C 180.800 90.138,180.842 90.486,181.600 90.684 C 182.040 90.799,182.423 91.187,182.452 91.547 C 182.480 91.906,182.544 92.740,182.593 93.400 C 182.745 95.447,182.781 95.538,183.499 95.676 C 183.885 95.750,184.199 96.167,184.199 96.605 C 184.200 97.125,184.512 97.444,185.100 97.528 C 185.859 97.636,186.000 97.902,186.000 99.228 C 186.000 100.533,186.136 100.800,186.800 100.800 C 187.333 100.800,187.600 101.067,187.600 101.600 C 187.600 102.133,187.867 102.400,188.400 102.400 C 188.933 102.400,189.200 102.667,189.200 103.200 C 189.200 103.863,189.467 104.000,190.757 104.000 C 192.083 104.000,192.350 104.148,192.564 105.000 C 192.779 105.857,193.043 106.000,194.408 106.000 C 195.733 106.000,196.000 106.134,196.000 106.800 C 196.000 107.463,196.267 107.600,197.553 107.600 C 198.770 107.600,199.152 107.773,199.316 108.400 C 199.514 109.158,199.862 109.200,205.963 109.200 C 212.133 109.200,212.400 109.167,212.400 108.400 C 212.400 107.688,212.667 107.600,214.837 107.600 C 216.938 107.600,217.304 107.490,217.484 106.800 C 217.617 106.292,218.030 106.000,218.614 106.000 C 220.060 106.000,220.800 105.579,220.800 104.757 C 220.800 104.267,221.082 104.000,221.600 104.000 C 222.133 104.000,222.400 103.733,222.400 103.200 C 222.400 102.667,222.667 102.400,223.200 102.400 C 223.733 102.400,224.000 102.133,224.000 101.600 C 224.000 101.013,224.267 100.800,225.000 100.800 C 225.713 100.800,226.000 100.584,226.000 100.047 C 226.000 99.630,226.357 99.200,226.800 99.084 C 227.406 98.925,227.600 98.538,227.600 97.484 C 227.600 96.430,227.794 96.043,228.400 95.884 C 229.036 95.718,229.200 95.338,229.200 94.037 C 229.200 92.667,229.330 92.400,230.000 92.400 C 230.776 92.400,230.800 92.133,230.800 83.400 C 230.800 74.667,230.776 74.400,230.000 74.400 C 229.319 74.400,229.200 74.133,229.200 72.600 C 229.200 71.067,229.081 70.800,228.400 70.800 C 227.821 70.800,227.600 70.533,227.600 69.833 C 227.600 68.470,227.204 67.600,226.584 67.600 C 226.293 67.600,225.940 67.240,225.800 66.800 C 225.660 66.360,225.198 66.000,224.773 66.000 C 224.267 66.000,224.000 65.724,224.000 65.200 C 224.000 64.735,223.733 64.400,223.363 64.400 C 223.012 64.400,222.634 64.052,222.523 63.628 C 222.289 62.732,221.787 62.479,220.397 62.554 C 219.709 62.591,219.333 62.359,219.184 61.804 C 219.027 61.218,218.572 60.967,217.504 60.877 C 216.472 60.790,215.967 60.525,215.793 59.977 C 215.402 58.746,197.600 58.768,197.600 60.000 M210.916 70.000 C 211.077 70.618,211.462 70.800,212.600 70.800 C 213.738 70.800,214.123 70.982,214.284 71.600 C 214.400 72.043,214.830 72.400,215.247 72.400 C 215.733 72.400,216.000 72.683,216.000 73.200 C 216.000 73.733,216.267 74.000,216.800 74.000 C 217.345 74.000,217.600 74.267,217.600 74.837 C 217.600 75.338,217.921 75.759,218.400 75.884 C 219.006 76.043,219.200 76.430,219.200 77.484 C 219.200 78.538,219.394 78.925,220.000 79.084 C 221.220 79.403,221.242 89.200,220.023 89.200 C 219.395 89.200,219.222 89.526,219.123 90.900 C 219.025 92.261,218.861 92.577,218.300 92.482 C 217.782 92.395,217.600 92.637,217.600 93.409 C 217.600 94.272,217.461 94.410,216.800 94.200 C 216.145 93.992,216.000 94.128,216.000 94.950 C 216.000 95.845,215.816 95.967,214.300 96.077 C 212.968 96.173,212.612 96.352,212.656 96.900 C 212.703 97.499,212.344 97.600,210.156 97.600 C 207.867 97.600,207.600 97.683,207.600 98.400 C 207.600 99.081,207.333 99.200,205.800 99.200 C 204.267 99.200,204.000 99.081,204.000 98.400 C 204.000 97.689,203.733 97.600,201.600 97.600 C 199.467 97.600,199.200 97.511,199.200 96.800 C 199.200 96.283,198.933 96.000,198.447 96.000 C 198.030 96.000,197.600 95.643,197.484 95.200 C 197.369 94.760,197.031 94.400,196.732 94.400 C 196.434 94.400,196.010 93.995,195.791 93.500 C 195.571 93.005,195.078 92.625,194.696 92.656 C 194.213 92.694,194.000 92.418,194.000 91.756 C 194.000 91.067,193.777 90.800,193.200 90.800 C 192.489 90.800,192.400 90.533,192.400 88.400 C 192.400 86.267,192.311 86.000,191.600 86.000 C 190.882 86.000,190.800 85.733,190.800 83.400 C 190.800 81.067,190.882 80.800,191.600 80.800 C 192.263 80.800,192.400 80.533,192.400 79.247 C 192.400 78.030,192.573 77.648,193.200 77.484 C 193.836 77.318,194.000 76.938,194.000 75.637 C 194.000 74.158,194.096 74.000,195.000 74.000 C 195.733 74.000,196.000 73.787,196.000 73.200 C 196.000 72.548,196.267 72.400,197.437 72.400 C 198.538 72.400,198.924 72.213,199.084 71.600 C 199.200 71.157,199.630 70.800,200.047 70.800 C 200.533 70.800,200.800 70.517,200.800 70.000 C 200.800 69.243,201.067 69.200,205.753 69.200 C 210.370 69.200,210.721 69.254,210.916 70.000 M152.482 79.900 C 152.561 80.370,152.299 80.643,151.684 80.730 C 150.370 80.916,150.477 87.224,151.800 87.583 C 152.240 87.702,152.600 88.070,152.600 88.400 C 152.600 88.919,154.133 89.000,164.000 89.000 L 175.400 89.000 175.763 87.530 C 175.983 86.639,176.417 85.984,176.863 85.868 C 177.992 85.572,177.948 81.216,176.813 80.919 C 176.381 80.806,175.918 80.373,175.786 79.957 C 175.427 78.825,152.293 78.769,152.482 79.900 M236.000 83.400 C 236.000 87.333,236.051 87.600,236.800 87.600 C 237.333 87.600,237.600 87.867,237.600 88.400 C 237.600 89.180,237.867 89.200,248.400 89.200 C 258.933 89.200,259.200 89.180,259.200 88.400 C 259.200 87.867,259.467 87.600,260.000 87.600 C 260.749 87.600,260.800 87.333,260.800 83.400 L 260.800 79.200 248.400 79.200 L 236.000 79.200 236.000 83.400 M179.200 103.462 C 179.200 104.167,179.007 104.403,178.500 104.318 C 178.033 104.239,177.758 104.499,177.672 105.100 C 177.590 105.678,177.268 106.000,176.772 106.000 C 176.276 106.000,176.000 106.276,176.000 106.772 C 176.000 107.268,175.678 107.590,175.100 107.672 C 174.499 107.758,174.239 108.033,174.318 108.500 C 174.404 109.017,174.164 109.200,173.400 109.200 C 172.636 109.200,172.396 109.383,172.482 109.900 C 172.560 110.363,172.303 110.642,171.725 110.725 C 171.179 110.802,170.802 111.179,170.725 111.725 C 170.642 112.303,170.363 112.560,169.900 112.482 C 169.383 112.396,169.200 112.636,169.200 113.400 C 169.200 114.164,169.017 114.404,168.500 114.318 C 168.033 114.239,167.758 114.499,167.672 115.100 C 167.590 115.678,167.268 116.000,166.772 116.000 C 166.074 116.000,166.000 116.305,166.000 119.200 C 166.000 122.133,166.067 122.400,166.800 122.400 C 167.333 122.400,167.600 122.667,167.600 123.200 C 167.600 123.933,167.867 124.000,170.800 124.000 C 173.733 124.000,174.000 123.933,174.000 123.200 C 174.000 122.613,174.267 122.400,175.000 122.400 C 175.733 122.400,176.000 122.187,176.000 121.600 C 176.000 121.067,176.267 120.800,176.800 120.800 C 177.333 120.800,177.600 120.533,177.600 120.000 C 177.600 119.467,177.867 119.200,178.400 119.200 C 178.933 119.200,179.200 118.933,179.200 118.400 C 179.200 117.867,179.467 117.600,180.000 117.600 C 180.533 117.600,180.800 117.333,180.800 116.800 C 180.800 116.267,181.067 116.000,181.600 116.000 C 182.187 116.000,182.400 115.733,182.400 115.000 C 182.400 114.267,182.613 114.000,183.200 114.000 C 183.733 114.000,184.000 113.733,184.000 113.200 C 184.000 112.613,184.267 112.400,185.000 112.400 C 185.733 112.400,186.000 112.187,186.000 111.600 C 186.000 111.067,186.267 110.800,186.800 110.800 C 187.522 110.800,187.599 110.535,187.594 108.100 C 187.586 104.560,187.438 104.377,184.300 104.033 C 184.135 104.015,184.000 103.685,184.000 103.300 C 184.000 102.717,183.598 102.590,181.600 102.544 C 179.309 102.492,179.200 102.534,179.200 103.462 M227.600 103.445 C 227.600 104.024,227.368 104.293,226.900 104.256 C 226.282 104.207,226.187 104.680,226.086 108.300 C 225.978 112.194,226.013 112.400,226.786 112.400 C 227.333 112.400,227.600 112.662,227.600 113.200 C 227.600 113.733,227.867 114.000,228.400 114.000 C 228.924 114.000,229.200 114.267,229.200 114.773 C 229.200 115.198,229.541 115.654,229.957 115.786 C 230.373 115.918,230.806 116.381,230.919 116.813 C 231.040 117.275,231.466 117.600,231.950 117.600 C 232.515 117.600,232.703 117.787,232.547 118.194 C 232.397 118.584,232.677 118.925,233.359 119.185 C 233.932 119.402,234.400 119.855,234.400 120.190 C 234.400 120.533,234.750 120.800,235.200 120.800 C 235.733 120.800,236.000 121.067,236.000 121.600 C 236.000 122.133,236.267 122.400,236.800 122.400 C 237.338 122.400,237.600 122.667,237.600 123.214 C 237.600 123.987,237.806 124.022,241.700 123.914 L 245.800 123.800 245.922 122.341 C 246.009 121.293,246.263 120.825,246.822 120.678 C 247.938 120.386,247.921 118.009,246.800 117.716 C 246.194 117.557,246.000 117.170,246.000 116.116 C 246.000 115.044,245.809 114.675,245.169 114.508 C 244.712 114.388,244.170 113.847,243.964 113.305 C 243.721 112.666,243.379 112.399,242.994 112.547 C 242.567 112.711,242.400 112.497,242.400 111.787 C 242.400 111.067,242.184 110.800,241.600 110.800 C 241.067 110.800,240.800 110.533,240.800 110.000 C 240.800 109.467,240.533 109.200,240.000 109.200 C 239.467 109.200,239.200 108.933,239.200 108.400 C 239.200 107.883,238.933 107.600,238.447 107.600 C 238.030 107.600,237.600 107.243,237.484 106.800 C 237.369 106.360,236.988 106.000,236.637 106.000 C 236.287 106.000,236.000 105.726,236.000 105.390 C 236.000 105.055,235.565 104.615,235.034 104.413 C 234.502 104.211,234.005 103.721,233.929 103.324 C 233.695 102.113,227.600 102.230,227.600 103.445 M202.781 113.023 C 202.533 113.321,202.450 113.757,202.595 113.992 C 202.741 114.227,202.711 114.394,202.530 114.363 C 200.726 114.049,200.781 113.672,200.894 125.688 C 200.996 136.517,201.033 136.994,201.800 137.388 C 202.240 137.615,202.600 138.070,202.600 138.400 C 202.600 138.875,203.285 139.024,205.900 139.116 C 208.993 139.225,209.200 139.181,209.200 138.416 C 209.200 137.865,209.461 137.600,210.006 137.600 C 210.798 137.600,210.810 137.398,210.706 125.900 C 210.615 115.814,210.517 114.200,210.000 114.200 C 209.670 114.200,209.302 113.842,209.183 113.404 C 208.909 112.401,203.561 112.083,202.781 113.023 M382.597 144.050 C 382.517 145.377,382.644 145.739,383.249 145.897 C 383.979 146.088,384.057 146.372,384.210 149.400 C 384.355 152.280,384.394 152.400,385.200 152.400 C 385.934 152.400,386.000 152.667,386.000 155.637 C 386.000 158.538,386.083 158.897,386.800 159.084 C 387.531 159.275,387.600 159.630,387.600 163.220 C 387.600 166.795,387.672 167.169,388.400 167.400 C 389.150 167.638,389.200 168.005,389.200 173.264 C 389.200 178.538,389.248 178.887,390.000 179.084 C 390.746 179.279,390.800 179.630,390.800 184.247 L 390.800 189.200 348.447 189.200 C 306.430 189.200,306.092 189.194,305.884 188.400 C 305.718 187.764,305.338 187.600,304.037 187.600 C 302.667 187.600,302.400 187.470,302.400 186.800 C 302.400 186.279,302.133 186.000,301.634 186.000 C 300.268 186.000,300.216 177.839,301.579 177.407 C 301.983 177.278,302.406 176.819,302.519 176.387 C 302.633 175.954,303.012 175.600,303.363 175.600 C 303.733 175.600,304.000 175.265,304.000 174.800 C 304.000 174.213,304.267 174.000,305.000 174.000 C 305.733 174.000,306.000 173.787,306.000 173.200 C 306.000 172.426,306.267 172.400,314.200 172.400 C 322.133 172.400,322.400 172.374,322.400 171.600 C 322.400 171.067,322.667 170.800,323.200 170.800 C 323.864 170.800,324.000 170.533,324.000 169.227 C 324.000 168.006,324.179 167.597,324.800 167.400 C 325.352 167.225,325.677 166.660,325.851 165.573 C 326.040 164.392,326.289 164.000,326.851 164.000 C 327.333 164.000,327.600 163.715,327.600 163.200 C 327.600 162.667,327.867 162.400,328.400 162.400 C 328.933 162.400,329.200 162.133,329.200 161.600 C 329.200 161.067,329.467 160.800,330.000 160.800 C 330.533 160.800,330.800 160.533,330.800 160.000 C 330.800 159.467,331.067 159.200,331.600 159.200 C 332.133 159.200,332.400 158.933,332.400 158.400 C 332.400 157.753,332.667 157.600,333.797 157.600 C 334.760 157.600,335.348 157.352,335.693 156.800 C 335.987 156.329,336.626 156.000,337.246 156.000 C 339.443 156.000,340.800 155.523,340.800 154.750 C 340.800 154.057,341.178 154.000,345.800 154.000 C 350.439 154.000,350.800 154.055,350.800 154.757 C 350.800 155.711,351.551 156.000,354.033 156.000 C 355.733 156.000,356.000 156.108,356.000 156.800 C 356.000 157.547,356.267 157.600,360.000 157.600 C 363.685 157.600,364.000 157.539,364.000 156.828 C 364.000 156.332,364.322 156.010,364.900 155.928 C 365.478 155.846,365.846 155.478,365.928 154.900 C 366.010 154.322,366.332 154.000,366.828 154.000 C 367.333 154.000,367.600 153.724,367.600 153.200 C 367.600 152.667,367.867 152.400,368.400 152.400 C 368.933 152.400,369.200 152.133,369.200 151.600 C 369.200 151.067,369.467 150.800,370.000 150.800 C 370.533 150.800,370.800 150.533,370.800 150.000 C 370.800 149.467,371.067 149.200,371.600 149.200 C 372.133 149.200,372.400 148.933,372.400 148.400 C 372.400 147.867,372.667 147.600,373.200 147.600 C 373.725 147.600,374.000 147.333,374.000 146.823 C 374.000 146.195,374.326 146.022,375.700 145.923 C 377.113 145.821,377.422 145.648,377.528 144.900 C 377.636 144.141,377.902 144.000,379.228 144.000 C 380.533 144.000,380.800 143.864,380.800 143.200 C 380.800 142.625,381.067 142.400,381.748 142.400 C 382.609 142.400,382.687 142.553,382.597 144.050 M94.400 155.800 C 94.400 160.779,94.277 162.416,93.900 162.464 C 93.625 162.499,90.925 162.544,87.900 162.564 L 82.400 162.600 82.400 156.700 C 82.400 151.067,82.436 150.800,83.200 150.800 C 83.733 150.800,84.000 150.533,84.000 150.000 C 84.000 149.241,84.267 149.200,89.200 149.200 L 94.400 149.200 94.400 155.800 M110.916 150.000 C 111.096 150.690,111.462 150.800,113.563 150.800 L 116.000 150.800 115.968 157.500 C 115.951 161.185,115.834 163.930,115.708 163.600 C 115.306 162.543,114.740 162.452,109.320 162.575 L 104.000 162.696 104.000 155.948 L 104.000 149.200 107.353 149.200 C 110.370 149.200,110.728 149.280,110.916 150.000 M72.400 158.195 L 72.400 163.991 70.800 164.246 C 69.618 164.435,69.200 164.691,69.200 165.225 C 69.200 165.869,68.738 165.962,64.999 166.074 L 60.798 166.200 60.799 160.100 L 60.800 154.000 63.153 154.000 C 65.170 154.000,65.537 153.886,65.716 153.200 C 65.903 152.483,66.262 152.400,69.163 152.400 L 72.400 152.400 72.400 158.195 M130.800 153.200 C 130.800 153.937,131.067 154.000,134.200 154.000 L 137.600 154.000 137.600 160.800 L 137.600 167.600 135.800 167.600 C 134.267 167.600,134.000 167.481,134.000 166.800 C 134.000 166.053,133.733 166.000,130.000 166.000 L 126.000 166.000 126.000 159.200 L 126.000 152.400 128.400 152.400 C 130.533 152.400,130.800 152.489,130.800 153.200 M110.916 173.200 C 111.113 173.954,111.462 174.000,116.986 174.000 C 120.956 174.000,122.764 174.135,122.589 174.418 C 121.917 175.505,123.299 176.000,127.002 176.000 C 130.370 176.000,130.726 176.073,130.916 176.800 C 131.096 177.487,131.462 177.600,133.516 177.600 C 135.570 177.600,135.936 177.713,136.116 178.400 C 136.231 178.840,136.612 179.200,136.963 179.200 C 137.527 179.200,137.600 180.249,137.600 188.400 L 137.600 197.600 135.800 197.600 C 134.267 197.600,134.000 197.481,134.000 196.800 C 134.000 196.051,133.733 196.000,129.800 196.000 C 125.949 196.000,125.600 195.937,125.600 195.245 C 125.600 194.219,124.194 194.026,117.720 194.163 C 112.624 194.271,112.435 194.245,112.320 193.437 C 112.136 192.149,83.214 192.113,82.648 193.400 C 82.323 194.140,81.945 194.195,77.648 194.137 C 71.846 194.057,70.800 194.225,70.800 195.232 C 70.800 195.938,70.479 196.000,66.827 196.000 C 63.205 196.000,62.831 196.071,62.600 196.800 C 62.460 197.240,61.998 197.600,61.573 197.600 C 60.830 197.600,60.800 197.217,60.800 187.600 L 60.800 177.600 62.997 177.600 C 64.760 177.600,65.292 177.442,65.693 176.800 C 66.120 176.116,66.629 175.999,69.196 175.995 C 72.962 175.988,74.000 175.720,74.000 174.753 C 74.000 174.050,74.385 174.000,79.753 174.000 C 85.170 174.000,85.519 173.953,85.716 173.200 C 85.919 172.422,86.262 172.400,98.316 172.400 C 110.370 172.400,110.712 172.422,110.916 173.200 M94.400 280.800 L 94.400 359.200 93.400 359.200 C 92.667 359.200,92.400 358.987,92.400 358.400 C 92.400 357.867,92.133 357.600,91.600 357.600 C 91.067 357.600,90.800 357.333,90.800 356.800 C 90.800 356.267,90.533 356.000,90.000 356.000 C 89.482 356.000,89.200 355.733,89.200 355.243 C 89.200 354.453,87.520 353.755,86.755 354.228 C 86.530 354.367,86.251 354.115,86.134 353.668 C 85.908 352.804,84.968 352.249,84.364 352.622 C 84.164 352.746,84.000 352.387,84.000 351.824 C 84.000 351.067,83.792 350.800,83.200 350.800 C 82.403 350.800,82.400 350.533,82.400 277.400 L 82.400 204.000 84.837 204.000 C 86.938 204.000,87.304 203.890,87.484 203.200 C 87.672 202.480,88.030 202.400,91.047 202.400 L 94.400 202.400 94.400 280.800 M107.600 203.200 C 107.600 203.949,107.867 204.000,111.800 204.000 L 116.000 204.000 116.000 287.503 L 116.000 371.006 114.200 370.863 C 112.749 370.747,112.400 370.572,112.400 369.960 C 112.400 369.340,112.105 369.200,110.800 369.200 C 109.467 369.200,109.200 369.067,109.200 368.400 C 109.200 367.883,108.933 367.600,108.447 367.600 C 108.030 367.600,107.600 367.243,107.484 366.800 C 107.318 366.164,106.938 366.000,105.637 366.000 L 104.000 366.000 104.000 284.200 L 104.000 202.400 105.800 202.400 C 107.333 202.400,107.600 202.519,107.600 203.200 M72.400 273.400 C 72.400 340.533,72.397 340.800,71.600 340.800 C 71.067 340.800,70.800 340.533,70.800 340.000 C 70.800 339.467,70.533 339.200,70.000 339.200 C 69.467 339.200,69.200 338.933,69.200 338.400 C 69.200 337.876,68.933 337.600,68.427 337.600 C 68.002 337.600,67.540 337.240,67.400 336.800 C 67.260 336.360,66.798 336.000,66.373 336.000 C 65.867 336.000,65.600 335.724,65.600 335.200 C 65.600 334.667,65.333 334.400,64.800 334.400 C 64.276 334.400,64.000 334.133,64.000 333.627 C 64.000 333.202,63.659 332.746,63.243 332.614 C 62.827 332.482,62.388 331.996,62.267 331.535 C 62.121 330.977,61.839 330.776,61.424 330.935 C 60.860 331.152,60.800 325.196,60.800 269.387 L 60.800 207.600 63.797 207.600 C 66.360 207.600,66.865 207.484,67.293 206.800 C 67.698 206.150,68.226 206.000,70.096 206.000 L 72.400 206.000 72.400 273.400 M129.316 206.800 C 129.503 207.517,129.862 207.600,132.763 207.600 C 135.733 207.600,136.000 207.666,136.000 208.400 C 136.000 208.933,136.267 209.200,136.800 209.200 C 137.598 209.200,137.600 209.467,137.600 295.000 C 137.600 379.536,137.589 380.800,136.827 380.800 C 136.402 380.800,135.940 380.440,135.800 380.000 C 135.584 379.318,135.195 379.200,133.173 379.200 C 131.067 379.200,130.800 379.110,130.800 378.400 C 130.800 377.733,130.533 377.600,129.200 377.600 C 128.003 377.600,127.600 377.440,127.600 376.963 C 127.600 376.612,127.240 376.231,126.800 376.116 C 126.003 375.908,126.000 375.570,126.000 290.953 L 126.000 206.000 127.553 206.000 C 128.770 206.000,129.152 206.173,129.316 206.800 M246.000 210.000 C 246.000 210.533,246.267 210.800,246.800 210.800 C 247.512 210.800,247.600 211.067,247.600 213.237 C 247.600 215.338,247.710 215.704,248.400 215.884 C 249.027 216.048,249.200 216.430,249.200 217.647 L 249.200 219.200 234.200 219.200 C 219.776 219.200,219.200 219.171,219.200 218.447 C 219.200 218.030,219.557 217.600,220.000 217.484 C 220.717 217.297,220.800 216.938,220.800 214.037 C 220.800 211.067,220.866 210.800,221.600 210.800 C 222.133 210.800,222.400 210.533,222.400 210.000 C 222.400 209.218,222.667 209.200,234.200 209.200 C 245.733 209.200,246.000 209.218,246.000 210.000 M252.525 230.744 C 252.467 231.774,252.631 232.135,253.225 232.291 C 254.005 232.495,254.080 232.774,254.182 235.900 L 254.238 237.600 234.119 237.600 L 214.000 237.600 214.000 235.028 C 214.000 232.665,214.073 232.445,214.900 232.328 C 215.623 232.225,215.824 231.905,215.924 230.696 L 216.049 229.192 234.324 229.296 L 252.600 229.400 252.525 230.744 M257.716 248.400 C 257.831 248.840,258.212 249.200,258.563 249.200 C 259.075 249.200,259.200 249.671,259.200 251.600 C 259.200 253.733,259.289 254.000,260.000 254.000 C 260.587 254.000,260.800 254.267,260.800 255.000 L 260.800 256.000 234.200 256.000 L 207.600 256.000 207.600 255.000 C 207.600 254.267,207.813 254.000,208.400 254.000 C 209.109 254.000,209.200 253.733,209.200 251.647 C 209.200 249.630,209.314 249.263,210.000 249.084 C 210.440 248.969,210.800 248.588,210.800 248.237 C 210.800 247.119,257.423 247.281,257.716 248.400 M209.200 267.600 C 209.200 268.933,209.067 269.200,208.400 269.200 C 207.682 269.200,207.600 269.467,207.600 271.800 C 207.600 274.133,207.518 274.400,206.800 274.400 C 206.067 274.400,206.000 274.667,206.000 277.572 C 206.000 280.557,205.947 280.752,205.100 280.872 C 204.276 280.989,204.200 281.212,204.200 283.500 C 204.200 285.779,204.125 286.000,203.354 286.000 C 202.592 286.000,202.515 286.207,202.579 288.067 C 202.639 289.782,202.493 290.272,201.725 290.940 C 201.106 291.479,200.800 292.183,200.800 293.072 L 200.800 294.400 198.400 294.400 C 195.860 294.400,194.679 292.839,196.800 292.284 C 197.510 292.098,197.600 291.738,197.600 289.084 C 197.600 286.430,197.690 286.070,198.400 285.884 C 199.090 285.704,199.200 285.338,199.200 283.237 C 199.200 281.067,199.288 280.800,200.000 280.800 C 200.709 280.800,200.800 280.533,200.800 278.447 C 200.800 276.430,200.914 276.063,201.600 275.884 C 202.290 275.704,202.400 275.338,202.400 273.237 C 202.400 271.067,202.488 270.800,203.200 270.800 C 203.911 270.800,204.000 270.533,204.000 268.400 L 204.000 266.000 206.600 266.000 L 209.200 266.000 209.200 267.600 M247.600 266.637 C 247.600 266.988,247.960 267.369,248.400 267.484 C 249.086 267.663,249.200 268.030,249.200 270.047 C 249.200 272.133,249.291 272.400,250.000 272.400 C 250.533 272.400,250.800 272.667,250.800 273.200 C 250.800 273.987,250.533 274.000,234.900 274.001 L 219.000 274.002 219.130 270.801 C 219.246 267.954,219.346 267.600,220.030 267.600 C 220.533 267.600,220.800 267.323,220.800 266.800 C 220.800 266.016,221.067 266.000,234.200 266.000 C 246.194 266.000,247.600 266.067,247.600 266.637 M264.258 266.900 C 263.835 268.519,264.415 270.800,265.251 270.800 C 265.900 270.800,266.000 271.121,266.000 273.200 C 266.000 275.333,266.089 275.600,266.800 275.600 C 267.518 275.600,267.600 275.867,267.600 278.200 C 267.600 280.533,267.682 280.800,268.400 280.800 C 269.112 280.800,269.200 281.067,269.200 283.237 C 269.200 285.338,269.310 285.704,270.000 285.884 C 270.686 286.063,270.800 286.430,270.800 288.447 C 270.800 290.533,270.891 290.800,271.600 290.800 C 272.391 290.800,272.452 290.948,272.550 293.100 C 272.599 294.176,272.546 294.203,270.100 294.319 L 267.600 294.438 267.600 292.782 C 267.600 291.462,267.438 291.083,266.800 290.916 C 266.141 290.744,266.000 290.370,266.000 288.803 C 266.000 285.780,265.608 284.400,264.750 284.400 C 264.099 284.400,264.000 284.079,264.000 281.963 C 264.000 279.862,263.890 279.496,263.200 279.316 C 262.517 279.137,262.400 278.770,262.400 276.800 C 262.400 274.830,262.283 274.463,261.600 274.284 C 260.910 274.104,260.800 273.738,260.800 271.637 C 260.800 269.467,260.712 269.200,260.000 269.200 C 259.333 269.200,259.200 268.933,259.200 267.600 L 259.200 266.000 261.847 266.000 C 264.394 266.000,264.485 266.034,264.258 266.900 M254.059 284.900 C 254.092 285.395,254.155 286.070,254.200 286.400 C 254.245 286.730,254.308 287.422,254.341 287.937 C 254.377 288.508,254.714 288.957,255.200 289.084 C 255.884 289.263,256.000 289.630,256.000 291.619 C 256.000 293.712,256.090 293.962,256.900 294.118 C 257.395 294.213,247.180 294.291,234.200 294.291 C 221.220 294.291,211.005 294.213,211.500 294.118 C 212.313 293.961,212.400 293.714,212.400 291.572 C 212.400 289.467,212.490 289.200,213.200 289.200 C 213.918 289.200,214.000 288.933,214.000 286.600 L 214.000 284.000 234.000 284.000 L 254.000 284.000 254.059 284.900 M197.600 305.800 C 197.600 307.333,197.481 307.600,196.800 307.600 C 196.089 307.600,196.000 307.867,196.000 310.000 C 196.000 312.278,195.816 312.624,194.700 312.447 C 194.333 312.389,194.320 312.468,194.067 316.453 C 194.024 317.122,193.718 317.580,193.228 317.709 C 192.554 317.885,192.471 318.220,192.576 320.341 C 192.689 322.612,192.641 322.767,191.848 322.686 C 191.078 322.608,190.989 322.825,190.882 325.058 C 190.784 327.105,190.633 327.550,189.982 327.721 C 189.389 327.876,189.200 328.273,189.200 329.363 L 189.200 330.800 186.600 330.800 C 183.900 330.800,182.541 329.463,184.900 329.128 C 185.706 329.013,185.812 328.744,185.918 326.542 C 186.016 324.495,186.167 324.050,186.818 323.879 C 187.474 323.708,187.600 323.322,187.600 321.484 C 187.600 319.630,187.723 319.261,188.400 319.084 C 189.087 318.904,189.200 318.538,189.200 316.484 C 189.200 314.430,189.313 314.064,190.000 313.884 C 190.711 313.698,190.800 313.338,190.800 310.637 C 190.800 307.867,190.870 307.600,191.600 307.600 C 192.281 307.600,192.400 307.333,192.400 305.800 L 192.400 304.000 195.000 304.000 L 197.600 304.000 197.600 305.800 M259.200 304.800 C 259.200 305.333,259.467 305.600,260.000 305.600 C 260.802 305.600,261.006 306.525,260.871 309.541 C 260.844 310.147,261.096 310.552,261.577 310.678 C 261.989 310.786,262.416 311.217,262.526 311.637 C 262.720 312.382,262.070 312.400,234.363 312.400 C 206.852 312.400,206.000 312.377,206.000 311.647 C 206.000 311.230,206.357 310.800,206.800 310.684 C 207.478 310.507,207.600 310.138,207.600 308.264 C 207.600 306.405,207.727 306.014,208.400 305.800 C 208.840 305.660,209.200 305.198,209.200 304.773 C 209.200 304.017,209.757 304.000,234.200 304.000 C 258.933 304.000,259.200 304.009,259.200 304.800 M276.000 305.637 C 276.000 306.938,276.164 307.318,276.800 307.484 C 277.486 307.663,277.600 308.030,277.600 310.047 C 277.600 312.133,277.691 312.400,278.400 312.400 C 279.134 312.400,279.200 312.667,279.200 315.637 C 279.200 318.538,279.283 318.897,280.000 319.084 C 280.677 319.261,280.800 319.630,280.800 321.484 C 280.800 323.338,280.923 323.707,281.600 323.884 C 282.406 324.095,282.564 324.563,282.452 326.400 C 282.354 327.993,282.766 329.200,283.408 329.200 C 283.733 329.200,284.000 329.560,284.000 330.000 C 284.000 330.711,283.733 330.800,281.600 330.800 L 279.200 330.800 279.200 329.200 C 279.200 327.880,279.063 327.600,278.419 327.600 C 277.741 327.600,277.623 327.272,277.519 325.100 C 277.428 323.197,277.257 322.600,276.800 322.600 C 276.356 322.600,276.148 321.978,276.000 320.200 C 275.824 318.088,275.692 317.785,274.900 317.672 C 274.052 317.552,274.000 317.359,274.000 314.335 C 274.000 311.462,273.916 311.103,273.200 310.916 C 272.514 310.737,272.400 310.370,272.400 308.353 C 272.400 306.267,272.309 306.000,271.600 306.000 C 271.013 306.000,270.800 305.733,270.800 305.000 C 270.800 304.036,270.893 304.000,273.400 304.000 L 276.000 304.000 276.000 305.637 M266.000 324.037 C 266.000 325.338,266.164 325.718,266.800 325.884 C 267.486 326.063,267.600 326.430,267.600 328.447 L 267.600 330.800 234.200 330.800 L 200.800 330.800 200.800 329.247 C 200.800 328.030,200.973 327.648,201.600 327.484 C 202.290 327.304,202.400 326.938,202.400 324.837 L 202.400 322.400 234.200 322.400 L 266.000 322.400 266.000 324.037 M197.600 365.800 L 197.600 390.800 190.000 390.800 L 182.400 390.800 182.400 365.800 L 182.400 340.800 190.000 340.800 L 197.600 340.800 197.600 365.800 M260.800 343.400 L 260.800 346.000 234.200 346.000 L 207.600 346.000 207.600 343.400 L 207.600 340.800 234.200 340.800 L 260.800 340.800 260.800 343.400 M286.000 355.772 L 286.000 370.744 285.100 370.872 C 284.530 370.953,284.220 371.257,284.256 371.700 C 284.311 372.395,284.019 372.497,281.900 372.523 C 281.054 372.533,280.800 372.730,280.800 373.374 C 280.800 374.070,280.545 374.218,279.300 374.247 C 276.193 374.319,276.000 374.375,276.000 375.200 C 276.000 375.881,275.733 376.000,274.200 376.000 L 272.400 376.000 272.400 358.400 L 272.400 340.800 279.200 340.800 L 286.000 340.800 286.000 355.772 M219.200 373.400 L 219.200 390.800 213.400 390.800 L 207.600 390.800 207.600 373.400 L 207.600 356.000 213.400 356.000 L 219.200 356.000 219.200 373.400 M239.200 371.800 L 239.200 387.600 236.027 387.600 C 233.205 387.600,232.826 387.689,232.600 388.400 C 232.403 389.021,231.995 389.200,230.773 389.200 L 229.200 389.200 229.200 372.600 L 229.200 356.000 234.200 356.000 L 239.200 356.000 239.200 371.800 M260.800 368.353 C 260.800 380.370,260.778 380.712,260.000 380.916 C 259.560 381.031,259.200 381.391,259.200 381.716 C 259.200 382.446,258.187 382.732,256.055 382.603 C 254.758 382.525,254.372 382.659,254.183 383.252 C 254.053 383.664,253.643 384.002,253.273 384.005 C 252.903 384.008,252.195 384.119,251.700 384.252 L 250.800 384.493 250.800 370.247 L 250.800 356.000 255.800 356.000 L 260.800 356.000 260.800 368.353 " stroke="none" fill="#000000" fill-rule="evenodd"></path><path id="path1" d="M94.189 111.200 C 94.189 126.710,94.239 133.055,94.300 125.300 C 94.361 117.545,94.361 104.855,94.300 97.100 C 94.239 89.345,94.189 95.690,94.189 111.200 M94.164 155.800 C 94.163 159.540,94.223 161.124,94.297 159.320 C 94.371 157.515,94.372 154.455,94.298 152.520 C 94.225 150.584,94.164 152.060,94.164 155.800 M91.100 162.682 C 91.595 162.778,92.405 162.778,92.900 162.682 C 93.395 162.587,92.990 162.509,92.000 162.509 C 91.010 162.509,90.605 162.587,91.100 162.682 M104.500 162.676 C 104.885 162.776,105.515 162.776,105.900 162.676 C 106.285 162.575,105.970 162.493,105.200 162.493 C 104.430 162.493,104.115 162.575,104.500 162.676 M310.300 162.693 C 311.235 162.777,312.765 162.777,313.700 162.693 C 314.635 162.609,313.870 162.540,312.000 162.540 C 310.130 162.540,309.365 162.609,310.300 162.693 M88.900 192.676 C 89.285 192.776,89.915 192.776,90.300 192.676 C 90.685 192.575,90.370 192.493,89.600 192.493 C 88.830 192.493,88.515 192.575,88.900 192.676 M96.711 192.693 C 97.651 192.778,99.091 192.777,99.911 192.691 C 100.730 192.605,99.960 192.536,98.200 192.537 C 96.440 192.539,95.770 192.609,96.711 192.693 M74.500 194.276 C 74.885 194.376,75.515 194.376,75.900 194.276 C 76.285 194.175,75.970 194.093,75.200 194.093 C 74.430 194.093,74.115 194.175,74.500 194.276 M113.105 194.283 C 113.602 194.379,114.322 194.375,114.705 194.275 C 115.087 194.175,114.680 194.096,113.800 194.101 C 112.920 194.105,112.607 194.187,113.105 194.283 M94.196 280.800 C 94.196 324.030,94.243 341.715,94.300 320.100 C 94.357 298.485,94.357 263.115,94.300 241.500 C 94.243 219.885,94.196 237.570,94.196 280.800 M270.000 294.000 L 267.400 294.262 269.876 294.331 C 271.238 294.369,272.464 294.220,272.600 294.000 C 272.736 293.780,272.792 293.631,272.724 293.669 C 272.656 293.707,271.430 293.856,270.000 294.000 M178.713 294.295 C 179.876 294.376,181.676 294.376,182.713 294.293 C 183.751 294.211,182.800 294.145,180.600 294.146 C 178.400 294.147,177.551 294.214,178.713 294.295 M197.100 294.289 C 197.815 294.378,198.985 294.378,199.700 294.289 C 200.415 294.201,199.830 294.128,198.400 294.128 C 196.970 294.128,196.385 294.201,197.100 294.289 M222.529 294.300 C 229.089 294.362,239.709 294.361,246.129 294.300 C 252.548 294.238,247.180 294.187,234.200 294.188 C 221.220 294.188,215.968 294.238,222.529 294.300 M286.115 294.296 C 287.388 294.376,289.368 294.375,290.515 294.294 C 291.662 294.214,290.620 294.149,288.200 294.150 C 285.780 294.151,284.842 294.216,286.115 294.296 " stroke="none" fill="#000000" fill-rule="evenodd"></path><path id="path2" d="M94.189 111.200 C 94.189 126.710,94.239 133.055,94.300 125.300 C 94.361 117.545,94.361 104.855,94.300 97.100 C 94.239 89.345,94.189 95.690,94.189 111.200 M94.164 155.800 C 94.163 159.540,94.223 161.124,94.297 159.320 C 94.371 157.515,94.372 154.455,94.298 152.520 C 94.225 150.584,94.164 152.060,94.164 155.800 M91.100 162.682 C 91.595 162.778,92.405 162.778,92.900 162.682 C 93.395 162.587,92.990 162.509,92.000 162.509 C 91.010 162.509,90.605 162.587,91.100 162.682 M104.500 162.676 C 104.885 162.776,105.515 162.776,105.900 162.676 C 106.285 162.575,105.970 162.493,105.200 162.493 C 104.430 162.493,104.115 162.575,104.500 162.676 M310.300 162.693 C 311.235 162.777,312.765 162.777,313.700 162.693 C 314.635 162.609,313.870 162.540,312.000 162.540 C 310.130 162.540,309.365 162.609,310.300 162.693 M88.900 192.676 C 89.285 192.776,89.915 192.776,90.300 192.676 C 90.685 192.575,90.370 192.493,89.600 192.493 C 88.830 192.493,88.515 192.575,88.900 192.676 M96.711 192.693 C 97.651 192.778,99.091 192.777,99.911 192.691 C 100.730 192.605,99.960 192.536,98.200 192.537 C 96.440 192.539,95.770 192.609,96.711 192.693 M74.500 194.276 C 74.885 194.376,75.515 194.376,75.900 194.276 C 76.285 194.175,75.970 194.093,75.200 194.093 C 74.430 194.093,74.115 194.175,74.500 194.276 M113.105 194.283 C 113.602 194.379,114.322 194.375,114.705 194.275 C 115.087 194.175,114.680 194.096,113.800 194.101 C 112.920 194.105,112.607 194.187,113.105 194.283 M94.196 280.800 C 94.196 324.030,94.243 341.715,94.300 320.100 C 94.357 298.485,94.357 263.115,94.300 241.500 C 94.243 219.885,94.196 237.570,94.196 280.800 M270.000 294.000 L 267.400 294.262 269.876 294.331 C 271.238 294.369,272.464 294.220,272.600 294.000 C 272.736 293.780,272.792 293.631,272.724 293.669 C 272.656 293.707,271.430 293.856,270.000 294.000 M178.713 294.295 C 179.876 294.376,181.676 294.376,182.713 294.293 C 183.751 294.211,182.800 294.145,180.600 294.146 C 178.400 294.147,177.551 294.214,178.713 294.295 M197.100 294.289 C 197.815 294.378,198.985 294.378,199.700 294.289 C 200.415 294.201,199.830 294.128,198.400 294.128 C 196.970 294.128,196.385 294.201,197.100 294.289 M222.529 294.300 C 229.089 294.362,239.709 294.361,246.129 294.300 C 252.548 294.238,247.180 294.187,234.200 294.188 C 221.220 294.188,215.968 294.238,222.529 294.300 M286.115 294.296 C 287.388 294.376,289.368 294.375,290.515 294.294 C 291.662 294.214,290.620 294.149,288.200 294.150 C 285.780 294.151,284.842 294.216,286.115 294.296 " stroke="none" fill="#000000" fill-rule="evenodd"></path><path id="path3" d="M94.189 111.200 C 94.189 126.710,94.239 133.055,94.300 125.300 C 94.361 117.545,94.361 104.855,94.300 97.100 C 94.239 89.345,94.189 95.690,94.189 111.200 M94.164 155.800 C 94.163 159.540,94.223 161.124,94.297 159.320 C 94.371 157.515,94.372 154.455,94.298 152.520 C 94.225 150.584,94.164 152.060,94.164 155.800 M91.100 162.682 C 91.595 162.778,92.405 162.778,92.900 162.682 C 93.395 162.587,92.990 162.509,92.000 162.509 C 91.010 162.509,90.605 162.587,91.100 162.682 M104.500 162.676 C 104.885 162.776,105.515 162.776,105.900 162.676 C 106.285 162.575,105.970 162.493,105.200 162.493 C 104.430 162.493,104.115 162.575,104.500 162.676 M310.300 162.693 C 311.235 162.777,312.765 162.777,313.700 162.693 C 314.635 162.609,313.870 162.540,312.000 162.540 C 310.130 162.540,309.365 162.609,310.300 162.693 M88.900 192.676 C 89.285 192.776,89.915 192.776,90.300 192.676 C 90.685 192.575,90.370 192.493,89.600 192.493 C 88.830 192.493,88.515 192.575,88.900 192.676 M96.711 192.693 C 97.651 192.778,99.091 192.777,99.911 192.691 C 100.730 192.605,99.960 192.536,98.200 192.537 C 96.440 192.539,95.770 192.609,96.711 192.693 M74.500 194.276 C 74.885 194.376,75.515 194.376,75.900 194.276 C 76.285 194.175,75.970 194.093,75.200 194.093 C 74.430 194.093,74.115 194.175,74.500 194.276 M113.105 194.283 C 113.602 194.379,114.322 194.375,114.705 194.275 C 115.087 194.175,114.680 194.096,113.800 194.101 C 112.920 194.105,112.607 194.187,113.105 194.283 M94.196 280.800 C 94.196 324.030,94.243 341.715,94.300 320.100 C 94.357 298.485,94.357 263.115,94.300 241.500 C 94.243 219.885,94.196 237.570,94.196 280.800 M270.000 294.000 L 267.400 294.262 269.876 294.331 C 271.238 294.369,272.464 294.220,272.600 294.000 C 272.736 293.780,272.792 293.631,272.724 293.669 C 272.656 293.707,271.430 293.856,270.000 294.000 M178.713 294.295 C 179.876 294.376,181.676 294.376,182.713 294.293 C 183.751 294.211,182.800 294.145,180.600 294.146 C 178.400 294.147,177.551 294.214,178.713 294.295 M197.100 294.289 C 197.815 294.378,198.985 294.378,199.700 294.289 C 200.415 294.201,199.830 294.128,198.400 294.128 C 196.970 294.128,196.385 294.201,197.100 294.289 M222.529 294.300 C 229.089 294.362,239.709 294.361,246.129 294.300 C 252.548 294.238,247.180 294.187,234.200 294.188 C 221.220 294.188,215.968 294.238,222.529 294.300 M286.115 294.296 C 287.388 294.376,289.368 294.375,290.515 294.294 C 291.662 294.214,290.620 294.149,288.200 294.150 C 285.780 294.151,284.842 294.216,286.115 294.296 " stroke="none" fill="#000000" fill-rule="evenodd"></path><path id="path4" d="M94.189 111.200 C 94.189 126.710,94.239 133.055,94.300 125.300 C 94.361 117.545,94.361 104.855,94.300 97.100 C 94.239 89.345,94.189 95.690,94.189 111.200 M94.164 155.800 C 94.163 159.540,94.223 161.124,94.297 159.320 C 94.371 157.515,94.372 154.455,94.298 152.520 C 94.225 150.584,94.164 152.060,94.164 155.800 M91.100 162.682 C 91.595 162.778,92.405 162.778,92.900 162.682 C 93.395 162.587,92.990 162.509,92.000 162.509 C 91.010 162.509,90.605 162.587,91.100 162.682 M104.500 162.676 C 104.885 162.776,105.515 162.776,105.900 162.676 C 106.285 162.575,105.970 162.493,105.200 162.493 C 104.430 162.493,104.115 162.575,104.500 162.676 M310.300 162.693 C 311.235 162.777,312.765 162.777,313.700 162.693 C 314.635 162.609,313.870 162.540,312.000 162.540 C 310.130 162.540,309.365 162.609,310.300 162.693 M88.900 192.676 C 89.285 192.776,89.915 192.776,90.300 192.676 C 90.685 192.575,90.370 192.493,89.600 192.493 C 88.830 192.493,88.515 192.575,88.900 192.676 M96.711 192.693 C 97.651 192.778,99.091 192.777,99.911 192.691 C 100.730 192.605,99.960 192.536,98.200 192.537 C 96.440 192.539,95.770 192.609,96.711 192.693 M74.500 194.276 C 74.885 194.376,75.515 194.376,75.900 194.276 C 76.285 194.175,75.970 194.093,75.200 194.093 C 74.430 194.093,74.115 194.175,74.500 194.276 M113.105 194.283 C 113.602 194.379,114.322 194.375,114.705 194.275 C 115.087 194.175,114.680 194.096,113.800 194.101 C 112.920 194.105,112.607 194.187,113.105 194.283 M94.196 280.800 C 94.196 324.030,94.243 341.715,94.300 320.100 C 94.357 298.485,94.357 263.115,94.300 241.500 C 94.243 219.885,94.196 237.570,94.196 280.800 M270.000 294.000 L 267.400 294.262 269.876 294.331 C 271.238 294.369,272.464 294.220,272.600 294.000 C 272.736 293.780,272.792 293.631,272.724 293.669 C 272.656 293.707,271.430 293.856,270.000 294.000 M178.713 294.295 C 179.876 294.376,181.676 294.376,182.713 294.293 C 183.751 294.211,182.800 294.145,180.600 294.146 C 178.400 294.147,177.551 294.214,178.713 294.295 M197.100 294.289 C 197.815 294.378,198.985 294.378,199.700 294.289 C 200.415 294.201,199.830 294.128,198.400 294.128 C 196.970 294.128,196.385 294.201,197.100 294.289 M222.529 294.300 C 229.089 294.362,239.709 294.361,246.129 294.300 C 252.548 294.238,247.180 294.187,234.200 294.188 C 221.220 294.188,215.968 294.238,222.529 294.300 M286.115 294.296 C 287.388 294.376,289.368 294.375,290.515 294.294 C 291.662 294.214,290.620 294.149,288.200 294.150 C 285.780 294.151,284.842 294.216,286.115 294.296 " stroke="none" fill="#000000" fill-rule="evenodd"></path></g></svg>