<?xml version="1.0" standalone="no"?>
<!DOCTYPE svg PUBLIC "-//W3C//DTD SVG 20010904//EN"
 "http://www.w3.org/TR/2001/REC-SVG-20010904/DTD/svg10.dtd">
<svg version="1.0" xmlns="http://www.w3.org/2000/svg"
 width="240.000000pt" height="240.000000pt" viewBox="0 0 240.000000 240.000000"
 preserveAspectRatio="xMidYMid meet">

<g transform="translate(0.000000,240.000000) scale(0.100000,-0.100000)"
fill="#000000" stroke="none">
<path d="M1055 2389 c-448 -58 -829 -373 -975 -807 -80 -239 -80 -525 0 -764
46 -137 128 -288 156 -288 20 0 17 27 -5 58 -31 45 -87 163 -114 242 -46 136
-60 237 -54 415 5 177 20 252 81 402 72 175 220 367 374 483 113 85 306 174
445 204 23 6 27 3 27 -16 0 -32 43 -119 71 -145 130 -119 342 -58 391 111 6
23 12 42 13 44 1 1 40 -9 86 -24 451 -142 773 -562 796 -1039 12 -260 -54
-500 -200 -718 l-52 -78 -68 3 -69 3 -44 115 c-24 63 -44 121 -44 127 0 8 14
13 35 13 23 0 35 5 35 14 0 20 -23 26 -96 26 l-64 0 0 215 0 215 60 0 60 0 0
-190 c0 -183 1 -190 20 -190 19 0 20 7 20 189 l0 190 33 3 c20 2 32 8 32 18 0
13 -32 15 -217 18 l-218 2 0 100 c0 107 3 112 50 85 l25 -13 -27 -11 c-31 -12
-38 -41 -10 -41 29 1 102 38 102 53 0 15 -157 90 -171 81 -5 -3 -9 -61 -9
-129 l0 -125 -212 -2 c-182 -3 -213 -5 -213 -18 0 -13 44 -15 323 -18 l322 -2
0 -215 0 -215 -80 0 -80 0 0 128 c0 71 -3 132 -7 135 -3 4 -12 2 -20 -4 -9 -9
-13 -44 -13 -135 l0 -124 -170 0 -170 0 -2 188 c-3 158 -5 187 -18 187 -13 0
-15 -31 -18 -208 l-2 -207 40 0 c22 0 40 -3 40 -7 0 -5 -21 -63 -47 -130 l-47
-123 -213 0 -213 0 -2 433 c-3 376 -5 432 -18 432 -13 0 -15 -56 -18 -432 l-2
-433 -30 0 -30 0 0 465 0 465 234 0 c158 0 237 4 242 11 8 14 -41 65 -96 97
-33 20 -63 28 -117 32 l-74 5 81 87 c48 51 78 92 74 99 -11 18 -132 5 -180
-19 -41 -21 -102 -81 -124 -123 l-13 -23 -14 30 c-43 84 -125 135 -229 142
-67 4 -74 3 -74 -14 0 -10 37 -56 82 -101 l83 -83 -65 0 c-78 0 -138 -25 -193
-78 -63 -61 -60 -62 153 -62 l190 0 0 -465 0 -465 -145 0 c-183 0 -185 -3 -89
-102 322 -329 793 -443 1229 -297 533 179 873 737 791 1298 -40 268 -144 478
-330 670 -261 268 -625 396 -991 350z m344 -45 c20 -6 22 -11 17 -43 -11 -69
-88 -140 -160 -148 -69 -8 -113 4 -158 45 -43 39 -68 85 -68 126 0 21 6 25 38
29 50 7 301 -1 331 -9z m-892 -669 c28 -15 63 -42 78 -61 27 -36 59 -116 53
-134 -2 -6 -55 42 -118 105 -99 100 -111 115 -89 115 14 0 48 -11 76 -25z
m293 -90 c-116 -116 -135 -125 -110 -51 27 83 127 166 199 166 22 0 10 -15
-89 -115z m-254 -105 c80 -34 65 -40 -105 -40 -89 0 -161 2 -161 5 0 8 82 48
115 56 39 10 100 1 151 -21z m448 -9 l50 -26 -82 -3 c-45 -2 -119 -2 -164 0
l-83 3 28 19 c41 28 115 45 162 39 22 -3 62 -17 89 -32z m396 -744 c0 -1 -22
-59 -48 -127 l-48 -125 -47 -3 c-26 -2 -47 -1 -47 1 0 7 90 238 96 249 5 7 94
12 94 5z m337 -112 c24 -60 46 -118 49 -127 5 -17 -10 -18 -219 -18 l-225 0
51 130 50 131 126 -3 125 -3 43 -110z m121 38 c17 -43 40 -102 51 -130 l21
-53 -48 0 -49 0 -46 123 c-26 68 -47 126 -47 130 0 4 20 7 44 7 l45 0 29 -77z
m185 -247 c-32 -40 -135 -127 -206 -173 -96 -63 -218 -118 -328 -149 -115 -32
-352 -44 -477 -24 -162 26 -345 101 -479 196 -71 51 -183 152 -183 165 0 5
357 9 846 9 l845 0 -18 -24z"/>
<path d="M575 360 c-9 -15 14 -40 31 -33 22 8 18 43 -5 43 -11 0 -23 -5 -26
-10z"/>
<path d="M1790 352 c0 -24 8 -32 26 -25 22 8 17 43 -6 43 -13 0 -20 -7 -20
-18z"/>
<path d="M934 335 c-7 -18 3 -35 21 -35 15 0 24 19 18 38 -6 17 -32 15 -39 -3z"/>
<path d="M1434 335 c-7 -18 3 -35 21 -35 15 0 24 19 18 38 -6 17 -32 15 -39
-3z"/>
<path d="M1184 295 c-7 -18 3 -35 21 -35 21 0 28 19 15 35 -16 19 -29 19 -36
0z"/>
<path d="M767 274 c-15 -15 -7 -45 11 -42 9 2 17 12 17 22 0 20 -16 31 -28 20z"/>
<path d="M1606 264 c-4 -10 -2 -22 3 -27 14 -14 43 0 39 20 -4 24 -34 28 -42
7z"/>
<path d="M1027 174 c-16 -16 -7 -44 14 -44 15 0 20 5 17 22 -3 22 -19 33 -31
22z"/>
<path d="M1344 165 c-4 -9 -2 -21 4 -27 15 -15 44 -1 40 19 -4 23 -36 29 -44
8z"/>
<path d="M878 2169 c-63 -37 -88 -69 -54 -69 25 0 146 75 143 89 -4 25 -20 21
-89 -20z"/>
<path d="M1480 2193 c1 -18 119 -93 146 -93 34 0 9 31 -55 69 -77 46 -91 49
-91 24z"/>
<path d="M1017 2025 c-39 -68 -46 -95 -23 -95 16 0 98 139 90 152 -13 20 -33
3 -67 -57z"/>
<path d="M1366 2081 c-9 -14 73 -151 90 -151 23 0 16 27 -23 95 -35 61 -54 77
-67 56z"/>
<path d="M1210 1960 c0 -73 3 -90 15 -90 12 0 15 17 15 90 0 73 -3 90 -15 90
-12 0 -15 -17 -15 -90z"/>
<path d="M1373 1124 c-10 -4 -13 -45 -13 -155 0 -142 1 -149 20 -149 19 0 20
7 20 135 l0 135 96 0 c86 0 95 2 92 18 -3 15 -17 17 -103 19 -55 1 -106 -1
-112 -3z"/>
</g>
</svg>
