<?xml version="1.0" standalone="no"?>
<!DOCTYPE svg PUBLIC "-//W3C//DTD SVG 20010904//EN"
 "http://www.w3.org/TR/2001/REC-SVG-20010904/DTD/svg10.dtd">
<svg version="1.0" xmlns="http://www.w3.org/2000/svg"
 width="240.000000pt" height="240.000000pt" viewBox="0 0 240.000000 240.000000"
 preserveAspectRatio="xMidYMid meet">

<g transform="translate(0.000000,240.000000) scale(0.100000,-0.100000)"
fill="#000000" stroke="none">
<path d="M1055 2389 c-500 -68 -892 -414 -1016 -899 -96 -371 1 -777 255
-1071 170 -198 394 -330 660 -391 128 -30 352 -30 486 -1 369 81 676 317 835
644 l27 56 -242 432 c-189 337 -249 435 -271 446 -19 10 -61 15 -132 15 -88 0
-108 -3 -129 -19 -13 -11 -114 -179 -224 -374 l-199 -355 -5 181 c-5 179 -5
182 -27 185 -20 3 -23 10 -23 43 l0 40 -102 -3 -103 -3 -3 -37 c-3 -35 -6 -38
-33 -38 -27 0 -29 2 -29 40 l0 40 -100 0 -100 0 0 -35 c0 -29 -5 -37 -25 -45
l-25 -10 0 -240 0 -240 -40 0 -40 0 0 284 c0 275 -1 284 -20 289 -15 4 -20 14
-20 42 l0 36 -72 -3 -73 -3 -3 -37 c-3 -30 -7 -38 -23 -38 -18 0 -19 -10 -19
-285 l0 -285 -44 0 -45 0 -21 57 c-131 350 -69 777 157 1078 438 585 1273 636
1773 109 284 -299 382 -696 275 -1117 -6 -23 -4 -27 13 -27 17 0 23 12 36 67
90 382 -6 774 -261 1069 -167 192 -396 328 -652 385 -102 22 -298 32 -396 18z
m727 -826 c14 -17 458 -800 458 -809 0 -2 -256 -4 -570 -4 -538 0 -570 1 -570
18 0 22 426 782 448 800 10 8 51 12 117 12 85 0 105 -3 117 -17z m-1404 -220
c-2 -13 -14 -19 -41 -21 -32 -3 -37 0 -37 17 0 18 6 21 41 21 33 0 40 -3 37
-17z m42 -328 l0 -265 -30 0 -30 0 -2 247 c-3 227 -4 248 -20 251 -17 3 -18
-14 -18 -247 l0 -251 -30 0 -30 0 0 265 0 265 80 0 80 0 0 -265z m328 248 c-3
-15 -16 -19 -71 -21 -62 -3 -67 -1 -67 18 0 18 6 20 71 20 62 0 70 -2 67 -17z
m262 -3 c0 -18 -7 -20 -65 -20 -58 0 -65 2 -65 20 0 18 7 20 65 20 58 0 65 -2
65 -20z m-220 -285 c0 -218 -1 -225 -20 -225 -19 0 -20 7 -20 184 0 192 -3
216 -26 216 -12 0 -14 -36 -14 -200 l0 -200 -25 0 -25 0 -2 197 c-3 179 -5
198 -20 201 -17 3 -18 -11 -18 -197 l0 -201 -25 0 -25 0 0 225 0 225 110 0
110 0 0 -225z m270 0 l0 -225 -25 0 -25 0 0 201 c0 186 -1 200 -17 197 -16 -3
-18 -22 -21 -201 l-2 -197 -25 0 -25 0 0 201 c0 186 -1 200 -17 197 -16 -3
-18 -22 -21 -201 l-2 -197 -25 0 -25 0 0 225 0 225 115 0 115 0 0 -225z m1163
-320 l-27 -55 -334 0 c-312 0 -333 -1 -330 -17 3 -17 27 -18 316 -21 171 -1
312 -5 312 -9 0 -3 -15 -25 -32 -49 l-33 -43 -167 -1 c-161 0 -168 -1 -168
-20 0 -19 7 -20 147 -20 l147 0 -54 -55 -54 -55 -298 0 c-258 0 -298 -2 -298
-15 0 -13 37 -15 271 -15 305 0 299 2 185 -68 l-61 -37 -170 -5 c-142 -4 -170
-7 -170 -20 0 -12 22 -16 115 -20 l115 -5 -65 -22 c-232 -80 -491 -82 -720 -6
l-85 28 60 5 c44 4 60 9 60 20 0 12 -22 16 -115 20 -111 5 -119 7 -174 40
-117 71 -119 70 137 70 195 0 227 2 227 15 0 13 -35 15 -253 15 l-253 0 -54
55 c-39 39 -49 55 -36 55 11 0 16 6 14 18 -2 11 -14 18 -38 20 -28 3 -42 12
-67 47 -18 24 -33 47 -33 50 0 3 74 5 165 5 103 0 165 4 165 10 0 6 0 13 0 18
0 4 -82 9 -182 12 l-183 5 -28 53 -28 52 1050 0 1051 0 -27 -55z"/>
<path d="M1560 1425 c0 -69 3 -85 15 -85 12 0 15 16 15 85 0 69 -3 85 -15 85
-12 0 -15 -16 -15 -85z"/>
<path d="M1645 1498 c-3 -8 -4 -63 -3 -124 2 -89 6 -109 18 -109 12 0 15 20
15 119 0 87 -3 120 -12 123 -7 3 -15 -2 -18 -9z"/>
<path d="M1737 1504 c-4 -4 -7 -43 -7 -86 0 -72 2 -78 20 -78 20 0 21 5 18 82
-3 75 -12 100 -31 82z"/>
<path d="M636 591 c-17 -26 28 -31 255 -29 213 3 234 5 237 21 3 16 -14 17
-242 17 -135 0 -247 -4 -250 -9z"/>
<path d="M1192 583 c3 -16 18 -18 138 -18 120 0 135 2 138 18 3 16 -9 17 -138
17 -129 0 -141 -1 -138 -17z"/>
<path d="M447 454 c-4 -4 -7 -13 -7 -21 0 -10 43 -13 216 -13 200 0 215 1 212
18 -3 15 -22 17 -209 20 -113 1 -208 -1 -212 -4z"/>
<path d="M935 449 c-4 -6 -3 -15 2 -20 5 -5 164 -8 384 -7 325 3 374 5 374 18
0 13 -50 15 -377 18 -266 1 -379 -1 -383 -9z"/>
<path d="M1020 295 c0 -13 22 -15 135 -15 113 0 135 2 135 15 0 13 -22 15
-135 15 -113 0 -135 -2 -135 -15z"/>
<path d="M952 153 c3 -16 19 -18 193 -18 162 0 190 2 190 15 0 13 -29 15 -193
18 -181 2 -193 1 -190 -15z"/>
<path d="M910 2095 c0 -58 2 -66 18 -63 14 3 17 14 17 63 0 49 -3 60 -17 63
-16 3 -18 -5 -18 -63z"/>
<path d="M700 2057 c0 -16 72 -87 88 -87 23 0 12 36 -21 68 -34 33 -67 42 -67
19z"/>
<path d="M1086 2031 c-36 -37 -41 -61 -12 -61 15 0 86 72 86 88 0 24 -37 11
-74 -27z"/>
<path d="M854 1961 c-17 -10 -38 -34 -47 -54 -47 -99 15 -197 123 -197 56 0
96 26 121 78 29 58 19 104 -31 154 -33 34 -43 38 -86 38 -30 0 -61 -7 -80 -19z
m141 -45 c66 -66 23 -170 -71 -170 -49 0 -94 48 -94 100 0 81 108 127 165 70z"/>
<path d="M610 1846 c0 -17 22 -26 65 -26 43 0 65 9 65 26 0 11 -16 14 -65 14
-49 0 -65 -3 -65 -14z"/>
<path d="M1117 1853 c-4 -3 -2 -12 4 -20 22 -25 140 -9 124 18 -7 10 -118 13
-128 2z"/>
<path d="M737 1682 c-38 -38 -45 -56 -27 -67 14 -8 90 64 90 86 0 29 -22 23
-63 -19z"/>
<path d="M1054 1709 c-9 -15 80 -104 95 -95 20 13 12 33 -29 70 -42 38 -55 43
-66 25z"/>
<path d="M917 1654 c-4 -4 -7 -34 -7 -66 0 -51 2 -59 18 -56 14 3 17 14 17 62
0 55 -11 77 -28 60z"/>
<path d="M320 1516 c0 -41 4 -77 9 -80 19 -12 32 24 29 86 -2 50 -6 63 -20 66
-16 3 -18 -6 -18 -72z"/>
</g>
</svg>
