<?xml version="1.0" standalone="no"?>
<!DOCTYPE svg PUBLIC "-//W3C//DTD SVG 20010904//EN"
 "http://www.w3.org/TR/2001/REC-SVG-20010904/DTD/svg10.dtd">
<svg version="1.0" xmlns="http://www.w3.org/2000/svg"
 width="240.000000pt" height="240.000000pt" viewBox="0 0 240.000000 240.000000"
 preserveAspectRatio="xMidYMid meet">

<g transform="translate(0.000000,240.000000) scale(0.100000,-0.100000)"
fill="#000000" stroke="none">
<path d="M1056 2389 c-401 -55 -726 -279 -915 -629 -44 -83 -106 -258 -117
-333 -6 -44 -5 -49 11 -45 13 2 22 20 32 63 82 367 334 671 681 821 632 273
1372 -80 1566 -748 24 -83 47 -216 40 -229 -2 -3 -27 -2 -56 2 -163 26 -301
128 -378 279 -36 72 -50 124 -58 224 l-7 81 -67 3 -68 3 0 -43 c-1 -157 -52
-290 -152 -394 -203 -212 -533 -212 -736 0 -100 104 -151 237 -152 394 l0 42
-70 0 -70 0 0 -57 c-1 -181 -80 -342 -215 -439 -74 -52 -145 -80 -245 -97
l-75 -12 2 -110 c11 -732 693 -1278 1422 -1140 404 77 753 372 891 754 43 119
48 144 25 140 -13 -3 -25 -26 -41 -74 -13 -38 -42 -109 -66 -158 -50 -103 -58
-106 -138 -46 -52 39 -58 41 -110 37 -42 -3 -65 -11 -93 -32 l-37 -28 0 201 0
201 263 2 262 3 9 85 c23 218 -43 497 -166 703 -168 282 -450 485 -777 558
-102 22 -298 32 -395 18z m-408 -1166 l-3 -618 -32 -3 -33 -3 0 620 0 621 35
0 35 0 -2 -617z m1172 -4 l0 -620 -32 3 -33 3 -3 605 c-1 333 0 611 3 618 2 6
18 12 35 12 l30 0 0 -621z m-1280 146 l0 -215 -70 0 -70 0 0 121 0 121 41 46
c23 26 52 68 65 95 13 26 27 47 29 47 3 0 5 -97 5 -215z m170 175 c11 -21 40
-64 65 -94 l45 -56 0 -120 0 -120 -70 0 -70 0 0 215 c0 118 2 215 5 215 2 0
14 -18 25 -40z m1010 -175 l0 -215 -70 0 -70 0 0 120 0 120 45 56 c25 30 54
73 65 94 11 22 23 40 25 40 3 0 5 -97 5 -215z m179 160 c17 -31 47 -73 66 -94
l35 -38 0 -122 0 -121 -70 0 -70 0 0 215 c0 118 2 215 4 215 2 0 18 -25 35
-55z m-1539 -275 l0 -100 -70 0 -70 0 0 64 0 65 63 34 c34 19 65 35 70 36 4 0
7 -44 7 -99z m575 64 l65 -36 0 -64 0 -64 -70 0 -70 0 0 100 c0 55 2 100 5
100 2 0 34 -16 70 -36z m605 -64 l0 -100 -70 0 -70 0 0 64 0 64 63 35 c34 20
65 36 70 36 4 1 7 -44 7 -99z m575 64 l65 -36 0 -64 0 -64 -70 0 -70 0 0 100
c0 55 2 100 5 100 2 0 34 -16 70 -36z m-1935 -104 l0 -60 -71 0 -70 0 3 48 3
47 59 7 c32 4 61 10 64 13 11 10 12 4 12 -55z m962 40 l38 0 0 -50 0 -50 -70
0 -70 0 0 59 0 60 32 -10 c18 -5 50 -9 70 -9z m218 -40 l0 -60 -70 0 -70 0 0
50 0 50 38 1 c29 1 85 11 100 18 1 0 2 -26 2 -59z m943 41 l52 -6 3 -47 3 -48
-70 0 -71 0 0 60 c0 49 3 58 15 54 8 -4 39 -9 68 -13z m-1763 -166 l0 -25
-245 0 c-142 0 -245 4 -245 9 0 5 -3 16 -6 25 -6 14 20 16 245 16 l251 0 0
-25z m1180 0 l0 -25 -520 0 -520 0 0 25 0 25 520 0 520 0 0 -25z m632 0 l-4
-25 -244 0 -244 0 0 25 0 25 249 0 248 0 -5 -25z m-1812 -260 c0 -107 -2 -195
-5 -195 -3 0 -23 12 -45 26 -58 39 -128 32 -195 -20 -28 -21 -58 -36 -70 -34
-39 6 -145 250 -162 373 l-6 45 242 0 241 0 0 -195z m1178 3 c1 -104 0 -188
-3 -188 -2 0 -19 9 -37 20 -55 34 -115 27 -184 -20 -78 -53 -110 -53 -188 0
-48 32 -67 40 -105 40 -44 0 -53 -4 -140 -62 -43 -29 -91 -23 -145 19 -61 47
-136 57 -189 24 -19 -11 -37 -21 -41 -21 -8 0 -8 365 1 373 3 4 236 6 517 5
l511 -3 3 -187z m-1213 -229 c55 -37 65 -40 111 -37 39 3 61 13 99 41 66 51
114 51 179 0 37 -29 58 -37 99 -41 48 -4 57 0 112 37 79 54 118 55 186 5 50
-37 107 -52 152 -40 13 3 43 21 68 41 55 44 109 47 160 10 69 -49 90 -57 140
-53 36 4 61 14 95 42 65 49 108 49 183 -1 31 -21 60 -41 65 -44 5 -4 -8 -31
-29 -59 -31 -43 -42 -50 -59 -45 -12 4 -41 10 -66 12 -40 4 -52 0 -105 -36
-80 -54 -124 -56 -186 -6 -75 59 -146 59 -220 0 -62 -49 -116 -49 -178 0 -74
59 -145 59 -220 0 -62 -49 -106 -48 -185 5 -80 55 -122 55 -204 0 -80 -54
-120 -54 -187 -2 -43 33 -54 37 -104 36 -31 0 -65 -4 -76 -8 -16 -6 -27 3 -58
44 -36 48 -40 70 -14 70 7 0 32 16 56 35 62 50 106 48 186 -6z m-11 -206 c38
-29 58 -37 102 -41 53 -4 59 -2 114 37 77 54 117 55 179 6 52 -42 77 -49 135
-43 30 4 59 17 91 42 54 41 103 47 146 18 87 -58 96 -62 140 -62 38 0 57 8
105 40 77 52 108 52 186 0 49 -32 69 -40 107 -40 27 0 57 7 72 18 83 55 97 62
131 62 20 0 39 -4 42 -9 12 -18 -145 -153 -255 -219 l-37 -22 -30 25 c-78 65
-156 69 -230 10 -73 -57 -115 -56 -194 7 -34 28 -48 33 -93 33 -45 0 -61 -6
-110 -40 -77 -53 -115 -53 -180 -3 -78 61 -136 62 -219 3 -56 -39 -51 -40
-156 33 -94 66 -194 164 -178 174 32 19 85 8 132 -29z m375 -196 c19 -12 46
-30 60 -39 16 -11 45 -18 76 -18 42 0 60 7 109 40 77 52 107 52 177 0 48 -36
60 -40 110 -40 50 0 62 4 105 38 64 48 123 52 173 9 l33 -27 -57 -26 c-224
-99 -495 -120 -740 -57 -94 23 -216 74 -212 86 7 22 70 57 101 57 17 0 46 -10
65 -23z"/>
<path d="M1190 2075 c0 -58 2 -66 18 -63 14 3 17 14 17 63 0 49 -3 60 -17 63
-16 3 -18 -5 -18 -63z"/>
<path d="M980 2042 c0 -23 60 -82 83 -82 27 0 20 23 -21 63 -41 41 -62 47 -62
19z"/>
<path d="M1370 2005 c-35 -35 -41 -48 -32 -57 10 -10 22 -3 58 34 26 25 43 51
40 57 -11 18 -19 14 -66 -34z"/>
<path d="M1128 1943 c-33 -21 -68 -82 -68 -120 0 -71 67 -136 141 -135 141 2
189 184 67 256 -34 21 -106 20 -140 -1z m137 -46 c17 -14 28 -36 32 -63 5 -36
1 -46 -25 -75 -25 -28 -37 -34 -72 -34 -35 0 -47 6 -71 33 -40 44 -40 93 0
133 38 37 97 40 136 6z"/>
<path d="M885 1840 c-13 -21 8 -30 66 -30 52 0 59 2 59 20 0 18 -7 20 -59 20
-33 0 -63 -4 -66 -10z"/>
<path d="M1390 1815 c0 -13 11 -15 62 -13 38 2 63 8 66 16 3 9 -14 12 -62 12
-53 0 -66 -3 -66 -15z"/>
<path d="M996 1661 c-36 -37 -41 -61 -12 -61 15 0 86 72 86 88 0 24 -37 11
-74 -27z"/>
<path d="M1320 1677 c0 -16 72 -87 88 -87 23 0 12 26 -26 63 -39 38 -62 47
-62 24z"/>
<path d="M1177 1634 c-4 -4 -7 -34 -7 -66 0 -52 2 -58 20 -58 19 0 21 5 18 62
-3 57 -14 79 -31 62z"/>
</g>
</svg>
