<svg id="svg" version="1.1" xmlns="http://www.w3.org/2000/svg" xmlns:xlink="http://www.w3.org/1999/xlink" width="400" height="400" viewBox="0, 0, 400,400"><g id="svgg"><path id="path0" d="M174.000 0.400 C 174.000 0.647,171.941 0.800,168.623 0.800 C 163.664 0.800,163.201 0.863,162.674 1.616 C 162.186 2.312,161.581 2.452,158.551 2.569 C 154.099 2.742,154.400 2.674,154.400 3.500 C 154.400 4.089,154.035 4.195,152.100 4.170 C 148.653 4.125,147.600 4.378,147.600 5.250 C 147.600 5.906,147.276 6.000,145.000 6.000 C 143.570 6.000,142.421 6.135,142.447 6.300 C 142.631 7.462,142.287 7.600,139.200 7.600 C 136.267 7.600,136.000 7.667,136.000 8.400 C 136.000 9.112,135.733 9.200,133.563 9.200 C 131.462 9.200,131.096 9.310,130.916 10.000 C 130.752 10.627,130.370 10.800,129.153 10.800 C 127.867 10.800,127.600 10.937,127.600 11.600 C 127.600 12.429,127.130 12.553,124.528 12.412 C 123.556 12.360,123.095 12.589,122.575 13.382 C 122.126 14.067,121.659 14.346,121.204 14.201 C 120.177 13.875,119.200 14.383,119.200 15.243 C 119.200 15.860,118.903 16.000,117.600 16.000 C 116.267 16.000,116.000 16.133,116.000 16.800 C 116.000 17.480,115.733 17.600,114.223 17.600 C 112.661 17.600,112.465 17.697,112.600 18.400 C 112.735 19.103,112.539 19.200,110.977 19.200 C 109.467 19.200,109.200 19.320,109.200 20.000 C 109.200 20.667,108.933 20.800,107.600 20.800 C 106.200 20.800,106.000 20.914,106.000 21.714 C 106.000 22.524,105.808 22.626,104.300 22.614 C 102.827 22.602,102.606 22.711,102.642 23.432 C 102.677 24.121,102.470 24.251,101.442 24.187 C 99.758 24.082,99.200 24.345,99.200 25.243 C 99.200 25.860,98.903 26.000,97.600 26.000 C 96.286 26.000,96.000 26.138,96.000 26.772 C 96.000 27.268,95.678 27.590,95.100 27.672 C 94.499 27.758,94.239 28.033,94.318 28.500 C 94.415 29.081,94.127 29.200,92.618 29.200 C 91.067 29.200,90.800 29.317,90.800 30.000 C 90.800 30.533,90.533 30.800,90.000 30.800 C 89.467 30.800,89.200 31.067,89.200 31.600 C 89.200 32.392,88.774 32.554,86.900 32.475 C 86.202 32.446,86.000 32.657,86.000 33.414 C 86.000 34.188,85.814 34.371,85.100 34.295 C 84.382 34.219,84.219 34.382,84.295 35.100 C 84.381 35.914,84.219 36.000,82.595 36.000 C 81.608 36.000,80.821 36.135,80.847 36.300 C 80.987 37.184,80.716 37.600,80.000 37.600 C 79.467 37.600,79.200 37.867,79.200 38.400 C 79.200 38.933,78.933 39.200,78.400 39.200 C 77.867 39.200,77.600 39.467,77.600 40.000 C 77.600 40.663,77.333 40.800,76.043 40.800 C 74.710 40.800,74.450 40.946,74.232 41.815 C 74.064 42.483,73.742 42.791,73.289 42.715 C 72.780 42.630,72.633 42.835,72.725 43.500 C 72.827 44.231,72.677 44.381,71.926 44.300 C 71.235 44.225,70.970 44.427,70.873 45.100 C 70.791 45.678,70.468 46.000,69.972 46.000 C 69.467 46.000,69.200 46.276,69.200 46.800 C 69.200 47.467,68.933 47.600,67.600 47.600 C 66.267 47.600,66.000 47.733,66.000 48.400 C 66.000 48.933,65.733 49.200,65.200 49.200 C 64.750 49.200,64.400 49.467,64.400 49.810 C 64.400 50.145,63.942 50.594,63.382 50.807 C 62.734 51.053,62.407 51.450,62.482 51.897 C 62.563 52.378,62.378 52.563,61.897 52.482 C 61.450 52.407,61.053 52.734,60.807 53.382 C 60.594 53.942,60.145 54.400,59.810 54.400 C 59.467 54.400,59.200 54.750,59.200 55.200 C 59.200 55.733,58.933 56.000,58.400 56.000 C 57.867 56.000,57.600 56.267,57.600 56.800 C 57.600 57.333,57.333 57.600,56.800 57.600 C 56.267 57.600,56.000 57.867,56.000 58.400 C 56.000 58.933,55.733 59.200,55.200 59.200 C 54.750 59.200,54.400 59.467,54.400 59.810 C 54.400 60.145,53.942 60.594,53.382 60.807 C 52.734 61.053,52.407 61.450,52.482 61.897 C 52.563 62.378,52.378 62.563,51.897 62.482 C 51.450 62.407,51.053 62.734,50.807 63.382 C 50.594 63.942,50.145 64.400,49.810 64.400 C 49.467 64.400,49.200 64.750,49.200 65.200 C 49.200 65.733,48.933 66.000,48.400 66.000 C 47.733 66.000,47.600 66.267,47.600 67.600 C 47.600 68.933,47.467 69.200,46.800 69.200 C 46.276 69.200,46.000 69.467,46.000 69.972 C 46.000 70.468,45.678 70.791,45.100 70.873 C 44.427 70.970,44.225 71.235,44.300 71.926 C 44.381 72.677,44.231 72.827,43.500 72.725 C 42.835 72.633,42.630 72.780,42.715 73.289 C 42.791 73.742,42.483 74.064,41.815 74.232 C 40.946 74.450,40.800 74.710,40.800 76.043 C 40.800 77.333,40.663 77.600,40.000 77.600 C 39.467 77.600,39.200 77.867,39.200 78.400 C 39.200 78.933,38.933 79.200,38.400 79.200 C 37.867 79.200,37.600 79.467,37.600 80.000 C 37.600 80.716,37.184 80.987,36.300 80.847 C 36.135 80.821,36.000 81.608,36.000 82.595 C 36.000 84.219,35.914 84.381,35.100 84.295 C 34.390 84.220,34.219 84.384,34.291 85.073 C 34.356 85.707,34.136 85.982,33.491 86.073 C 32.628 86.196,32.545 86.373,32.446 88.300 C 32.414 88.918,32.149 89.200,31.600 89.200 C 31.083 89.200,30.800 89.467,30.800 89.953 C 30.800 90.370,30.443 90.800,30.000 90.916 C 29.369 91.081,29.200 91.462,29.200 92.718 C 29.200 93.990,29.059 94.300,28.500 94.256 C 28.057 94.220,27.753 94.530,27.672 95.100 C 27.590 95.678,27.268 96.000,26.772 96.000 C 26.138 96.000,26.000 96.286,26.000 97.600 C 26.000 98.933,25.867 99.200,25.200 99.200 C 24.727 99.200,24.376 99.486,24.341 99.900 C 24.308 100.285,24.245 100.870,24.200 101.200 C 24.155 101.530,24.092 102.036,24.059 102.324 C 24.027 102.612,23.840 102.749,23.645 102.628 C 23.063 102.268,22.528 103.310,22.582 104.700 C 22.624 105.803,22.493 106.000,21.716 106.000 C 20.914 106.000,20.800 106.199,20.800 107.600 C 20.800 108.933,20.667 109.200,20.000 109.200 C 19.320 109.200,19.200 109.467,19.200 110.977 C 19.200 112.539,19.103 112.735,18.400 112.600 C 17.697 112.465,17.600 112.661,17.600 114.223 C 17.600 115.733,17.480 116.000,16.800 116.000 C 16.133 116.000,16.000 116.267,16.000 117.600 C 16.000 118.933,15.867 119.200,15.200 119.200 C 14.397 119.200,14.271 119.543,14.287 121.686 C 14.293 122.554,14.125 122.755,13.447 122.686 C 12.703 122.610,12.594 122.820,12.549 124.400 C 12.462 127.504,12.433 127.600,11.600 127.600 C 10.889 127.600,10.800 127.867,10.800 130.000 C 10.800 132.278,10.616 132.624,9.500 132.447 C 9.335 132.421,9.200 133.210,9.200 134.200 C 9.200 135.733,9.081 136.000,8.400 136.000 C 7.667 136.000,7.600 136.267,7.600 139.200 C 7.600 142.287,7.462 142.631,6.300 142.447 C 6.135 142.421,6.000 143.570,6.000 145.000 C 6.000 147.297,5.911 147.600,5.232 147.600 C 4.315 147.600,4.028 148.772,4.130 152.100 C 4.189 154.051,4.094 154.400,3.500 154.400 C 3.115 154.400,2.783 154.535,2.761 154.700 C 2.740 154.865,2.656 156.599,2.575 158.553 C 2.450 161.574,2.306 162.191,1.614 162.675 C 0.864 163.201,0.800 163.668,0.800 168.623 C 0.800 171.941,0.647 174.000,0.400 174.000 C 0.137 174.000,0.000 182.933,0.000 200.000 C 0.000 216.563,0.141 226.000,0.389 226.000 C 0.616 226.000,0.824 228.279,0.889 231.489 C 0.991 236.513,1.068 237.012,1.800 237.389 C 2.508 237.753,2.597 238.189,2.574 241.200 C 2.545 245.043,2.655 245.600,3.443 245.600 C 3.975 245.600,4.033 245.883,4.210 249.400 C 4.355 252.280,4.394 252.400,5.200 252.400 C 5.934 252.400,6.000 252.667,6.000 255.637 C 6.000 258.538,6.083 258.897,6.800 259.084 C 7.486 259.263,7.600 259.630,7.600 261.647 C 7.600 263.733,7.691 264.000,8.400 264.000 C 9.112 264.000,9.200 264.267,9.200 266.437 C 9.200 268.538,9.310 268.904,10.000 269.084 C 10.627 269.248,10.800 269.630,10.800 270.847 C 10.800 272.133,10.937 272.400,11.600 272.400 C 12.476 272.400,12.541 272.609,12.430 275.061 C 12.370 276.384,12.539 276.852,13.259 277.356 C 13.781 277.722,14.191 278.456,14.230 279.095 C 14.332 280.778,14.344 280.800,15.200 280.800 C 15.867 280.800,16.000 281.067,16.000 282.400 L 16.000 284.000 20.000 284.000 C 23.733 284.000,24.000 283.947,24.000 283.200 C 24.000 282.682,24.267 282.400,24.757 282.400 C 25.641 282.400,26.000 281.653,26.000 279.817 C 26.000 277.366,25.553 276.000,24.750 276.000 C 24.144 276.000,24.000 275.698,24.000 274.427 C 24.000 273.205,23.821 272.797,23.200 272.600 C 22.579 272.403,22.400 271.995,22.400 270.773 C 22.400 269.467,22.264 269.200,21.600 269.200 C 20.890 269.200,20.800 268.933,20.800 266.827 C 20.800 264.805,20.682 264.416,20.000 264.200 C 19.327 263.986,19.200 263.595,19.200 261.736 C 19.200 259.862,19.078 259.493,18.400 259.316 C 17.723 259.139,17.600 258.770,17.600 256.916 C 17.600 255.062,17.477 254.693,16.800 254.516 C 16.128 254.340,16.000 253.970,16.000 252.203 C 16.000 248.984,15.624 247.600,14.750 247.600 C 14.078 247.600,14.000 247.261,14.000 244.363 C 14.000 241.462,13.917 241.103,13.200 240.916 C 12.469 240.725,12.400 240.370,12.400 236.780 C 12.400 233.225,12.325 232.830,11.612 232.604 C 10.894 232.376,10.814 231.925,10.712 227.477 C 10.612 223.117,10.526 222.606,9.900 222.656 C 8.727 222.749,8.826 177.791,10.000 177.484 C 10.744 177.290,10.800 176.938,10.800 172.464 C 10.800 168.005,10.858 167.635,11.600 167.400 C 12.328 167.169,12.400 166.795,12.400 163.220 C 12.400 159.630,12.469 159.275,13.200 159.084 C 13.917 158.897,14.000 158.538,14.000 155.637 C 14.000 152.739,14.078 152.400,14.750 152.400 C 15.610 152.400,16.000 151.020,16.000 147.977 C 16.000 146.405,16.146 146.008,16.800 145.800 C 17.479 145.584,17.600 145.195,17.600 143.220 C 17.600 141.230,17.716 140.863,18.400 140.684 C 19.077 140.507,19.200 140.138,19.200 138.284 C 19.200 136.430,19.323 136.061,20.000 135.884 C 20.690 135.704,20.800 135.338,20.800 133.237 C 20.800 131.067,20.888 130.800,21.600 130.800 C 22.263 130.800,22.400 130.533,22.400 129.247 C 22.400 128.030,22.573 127.648,23.200 127.484 C 23.833 127.319,24.000 126.938,24.000 125.665 C 24.000 124.301,24.137 124.036,24.900 123.928 C 25.697 123.815,25.814 123.537,25.920 121.500 C 26.023 119.527,26.151 119.200,26.820 119.200 C 27.459 119.200,27.600 118.920,27.600 117.647 C 27.600 116.430,27.773 116.048,28.400 115.884 C 29.036 115.718,29.200 115.338,29.200 114.037 C 29.200 112.667,29.330 112.400,30.000 112.400 C 30.667 112.400,30.800 112.133,30.800 110.800 C 30.800 109.467,30.933 109.200,31.600 109.200 C 32.117 109.200,32.400 108.933,32.400 108.447 C 32.400 108.030,32.757 107.600,33.200 107.484 C 33.833 107.319,34.000 106.938,34.000 105.665 C 34.000 104.301,34.137 104.036,34.900 103.928 C 35.623 103.825,35.824 103.505,35.924 102.300 C 36.021 101.125,36.216 100.800,36.824 100.800 C 37.317 100.800,37.600 100.526,37.600 100.047 C 37.600 99.630,37.957 99.200,38.400 99.084 C 39.006 98.925,39.200 98.538,39.200 97.484 C 39.200 96.430,39.394 96.043,40.000 95.884 C 40.479 95.759,40.800 95.338,40.800 94.837 C 40.800 94.267,41.055 94.000,41.600 94.000 C 42.267 94.000,42.400 93.733,42.400 92.400 C 42.400 91.067,42.533 90.800,43.200 90.800 C 43.733 90.800,44.000 90.533,44.000 90.000 C 44.000 89.482,44.267 89.200,44.757 89.200 C 45.579 89.200,46.000 88.460,46.000 87.014 C 46.000 86.430,46.292 86.017,46.800 85.884 C 47.279 85.759,47.600 85.338,47.600 84.837 C 47.600 84.267,47.855 84.000,48.400 84.000 C 48.933 84.000,49.200 83.733,49.200 83.200 C 49.200 82.667,49.467 82.400,50.000 82.400 C 50.667 82.400,50.800 82.133,50.800 80.800 C 50.800 79.467,50.933 79.200,51.600 79.200 C 52.133 79.200,52.400 78.933,52.400 78.400 C 52.400 77.867,52.667 77.600,53.200 77.600 C 53.724 77.600,54.000 77.333,54.000 76.828 C 54.000 76.332,54.322 76.010,54.900 75.928 C 55.478 75.846,55.846 75.478,55.928 74.900 C 56.010 74.322,56.332 74.000,56.828 74.000 C 57.333 74.000,57.600 73.724,57.600 73.200 C 57.600 72.667,57.867 72.400,58.400 72.400 C 58.933 72.400,59.200 72.133,59.200 71.600 C 59.200 71.067,59.467 70.800,60.000 70.800 C 60.533 70.800,60.800 70.533,60.800 70.000 C 60.800 69.467,61.067 69.200,61.600 69.200 C 62.133 69.200,62.400 68.933,62.400 68.400 C 62.400 67.950,62.667 67.600,63.010 67.600 C 63.345 67.600,63.791 67.150,64.000 66.600 C 64.209 66.050,64.655 65.600,64.990 65.600 C 65.326 65.600,65.600 65.326,65.600 64.990 C 65.600 64.655,66.050 64.209,66.600 64.000 C 67.150 63.791,67.600 63.345,67.600 63.010 C 67.600 62.667,67.950 62.400,68.400 62.400 C 68.933 62.400,69.200 62.133,69.200 61.600 C 69.200 61.067,69.467 60.800,70.000 60.800 C 70.533 60.800,70.800 60.533,70.800 60.000 C 70.800 59.467,71.067 59.200,71.600 59.200 C 72.133 59.200,72.400 58.933,72.400 58.400 C 72.400 57.867,72.667 57.600,73.200 57.600 C 73.724 57.600,74.000 57.333,74.000 56.828 C 74.000 56.332,74.322 56.010,74.900 55.928 C 75.478 55.846,75.846 55.478,75.928 54.900 C 76.010 54.322,76.332 54.000,76.828 54.000 C 77.333 54.000,77.600 53.724,77.600 53.200 C 77.600 52.548,77.867 52.400,79.037 52.400 C 80.138 52.400,80.524 52.213,80.684 51.600 C 80.800 51.157,81.230 50.800,81.647 50.800 C 82.133 50.800,82.400 50.517,82.400 50.000 C 82.400 49.467,82.667 49.200,83.200 49.200 C 83.733 49.200,84.000 48.933,84.000 48.400 C 84.000 47.855,84.267 47.600,84.837 47.600 C 85.338 47.600,85.759 47.279,85.884 46.800 C 86.017 46.292,86.430 46.000,87.014 46.000 C 88.460 46.000,89.200 45.579,89.200 44.757 C 89.200 44.267,89.482 44.000,90.000 44.000 C 90.533 44.000,90.800 43.733,90.800 43.200 C 90.800 42.533,91.067 42.400,92.400 42.400 C 93.733 42.400,94.000 42.267,94.000 41.600 C 94.000 41.055,94.267 40.800,94.837 40.800 C 95.338 40.800,95.759 40.479,95.884 40.000 C 96.043 39.394,96.430 39.200,97.484 39.200 C 98.538 39.200,98.925 39.006,99.084 38.400 C 99.200 37.957,99.630 37.600,100.047 37.600 C 100.526 37.600,100.800 37.317,100.800 36.824 C 100.800 36.216,101.125 36.021,102.300 35.924 C 103.505 35.824,103.825 35.623,103.928 34.900 C 104.035 34.144,104.303 34.000,105.601 34.000 C 106.795 34.000,107.204 33.818,107.400 33.200 C 107.591 32.599,108.005 32.400,109.064 32.400 C 110.138 32.400,110.525 32.209,110.684 31.600 C 110.800 31.157,111.230 30.800,111.647 30.800 C 112.133 30.800,112.400 30.517,112.400 30.000 C 112.400 29.330,112.667 29.200,114.037 29.200 C 115.338 29.200,115.718 29.036,115.884 28.400 C 116.048 27.773,116.430 27.600,117.647 27.600 C 118.933 27.600,119.200 27.463,119.200 26.800 C 119.200 26.143,119.468 25.999,120.700 25.995 C 122.974 25.986,124.000 25.600,124.000 24.753 C 124.000 24.138,124.300 24.000,125.637 24.000 C 126.938 24.000,127.318 23.836,127.484 23.200 C 127.648 22.573,128.030 22.400,129.247 22.400 C 130.533 22.400,130.800 22.263,130.800 21.600 C 130.800 20.888,131.067 20.800,133.237 20.800 C 135.338 20.800,135.704 20.690,135.884 20.000 C 136.061 19.323,136.430 19.200,138.284 19.200 C 140.138 19.200,140.507 19.077,140.684 18.400 C 140.864 17.713,141.230 17.600,143.284 17.600 C 145.338 17.600,145.704 17.487,145.884 16.800 C 146.056 16.141,146.430 16.000,147.997 16.000 C 151.020 16.000,152.400 15.608,152.400 14.750 C 152.400 14.078,152.739 14.000,155.637 14.000 C 158.538 14.000,158.897 13.917,159.084 13.200 C 159.275 12.469,159.630 12.400,163.220 12.400 C 166.795 12.400,167.169 12.328,167.400 11.600 C 167.638 10.850,168.005 10.800,173.264 10.800 C 178.538 10.800,178.887 10.752,179.084 10.000 C 179.391 8.826,222.915 8.726,222.718 9.900 C 222.612 10.530,223.089 10.611,227.477 10.712 C 231.925 10.814,232.376 10.894,232.604 11.612 C 232.830 12.325,233.225 12.400,236.780 12.400 C 240.370 12.400,240.725 12.469,240.916 13.200 C 241.108 13.933,241.462 14.000,245.135 14.000 C 248.988 14.000,249.149 14.035,249.272 14.900 C 249.387 15.706,249.656 15.812,251.858 15.918 C 253.905 16.016,254.350 16.167,254.521 16.818 C 254.692 17.474,255.078 17.600,256.916 17.600 C 258.770 17.600,259.139 17.723,259.316 18.400 C 259.494 19.082,259.862 19.200,261.800 19.200 C 263.738 19.200,264.106 19.318,264.284 20.000 C 264.463 20.686,264.830 20.800,266.847 20.800 C 268.933 20.800,269.200 20.891,269.200 21.600 C 269.200 22.278,269.467 22.400,270.956 22.400 C 272.382 22.400,272.701 22.531,272.656 23.100 C 272.609 23.686,273.004 23.819,275.075 23.918 C 277.278 24.024,277.563 24.134,277.675 24.918 C 277.774 25.615,278.106 25.826,279.259 25.922 C 280.307 26.009,280.775 26.263,280.922 26.822 C 281.075 27.407,281.475 27.600,282.536 27.600 C 283.595 27.600,284.009 27.799,284.200 28.400 C 284.397 29.021,284.805 29.200,286.027 29.200 C 287.333 29.200,287.600 29.336,287.600 30.000 C 287.600 30.667,287.867 30.800,289.200 30.800 C 290.533 30.800,290.800 30.933,290.800 31.600 C 290.800 32.278,291.067 32.400,292.556 32.400 C 293.982 32.400,294.301 32.531,294.256 33.100 C 294.220 33.543,294.530 33.847,295.100 33.928 C 295.678 34.010,296.000 34.332,296.000 34.828 C 296.000 35.253,296.225 35.627,296.500 35.661 C 296.775 35.694,297.180 35.764,297.400 35.815 C 297.620 35.866,298.094 35.928,298.453 35.954 C 298.813 35.979,299.201 36.360,299.316 36.800 C 299.482 37.433,299.862 37.600,301.140 37.600 C 302.539 37.600,302.734 37.707,302.600 38.400 C 302.487 38.989,302.661 39.200,303.260 39.200 C 303.738 39.200,304.161 39.530,304.284 40.000 C 304.448 40.627,304.830 40.800,306.047 40.800 C 307.333 40.800,307.600 40.937,307.600 41.600 C 307.600 42.133,307.867 42.400,308.400 42.400 C 308.933 42.400,309.200 42.667,309.200 43.200 C 309.200 43.883,309.467 44.000,311.024 44.000 C 312.027 44.000,312.746 44.164,312.622 44.364 C 312.284 44.911,312.812 46.000,313.416 46.000 C 313.707 46.000,314.060 46.360,314.200 46.800 C 314.340 47.240,314.802 47.600,315.227 47.600 C 315.733 47.600,316.000 47.876,316.000 48.400 C 316.000 49.067,316.267 49.200,317.600 49.200 C 318.933 49.200,319.200 49.333,319.200 50.000 C 319.200 50.533,319.467 50.800,320.000 50.800 C 320.533 50.800,320.800 51.067,320.800 51.600 C 320.800 52.133,321.067 52.400,321.600 52.400 C 322.316 52.400,322.587 52.816,322.447 53.700 C 322.421 53.865,322.764 54.000,323.210 54.000 C 323.706 54.000,324.167 54.388,324.400 55.000 C 324.609 55.550,325.034 56.000,325.343 56.000 C 325.653 56.000,326.001 56.360,326.116 56.800 C 326.231 57.240,326.591 57.600,326.916 57.600 C 327.241 57.600,327.601 57.960,327.716 58.400 C 327.831 58.840,328.191 59.200,328.516 59.200 C 328.841 59.200,329.201 59.560,329.316 60.000 C 329.482 60.634,329.862 60.800,331.150 60.800 C 332.423 60.800,332.726 60.929,332.547 61.394 C 332.398 61.783,332.676 62.125,333.352 62.382 C 334.044 62.645,334.307 62.976,334.150 63.387 C 333.975 63.841,334.185 64.000,334.957 64.000 C 335.803 64.000,336.000 64.189,336.000 65.000 C 336.000 65.733,336.213 66.000,336.800 66.000 C 337.333 66.000,337.600 66.267,337.600 66.800 C 337.600 67.333,337.867 67.600,338.400 67.600 C 339.052 67.600,339.200 67.867,339.200 69.037 C 339.200 70.115,339.391 70.525,339.963 70.674 C 340.383 70.784,340.816 71.217,340.926 71.637 C 341.041 72.077,341.475 72.400,341.950 72.400 C 342.533 72.400,342.705 72.583,342.535 73.024 C 342.378 73.434,342.571 73.720,343.099 73.858 C 343.541 73.973,344.101 74.503,344.343 75.034 C 344.585 75.565,345.057 76.000,345.391 76.000 C 345.733 76.000,346.000 76.351,346.000 76.800 C 346.000 77.333,346.267 77.600,346.800 77.600 C 347.333 77.600,347.600 77.867,347.600 78.400 C 347.600 78.933,347.867 79.200,348.400 79.200 C 349.052 79.200,349.200 79.467,349.200 80.637 C 349.200 81.738,349.387 82.124,350.000 82.284 C 350.443 82.400,350.800 82.830,350.800 83.247 C 350.800 83.719,351.082 84.000,351.557 84.000 C 352.030 84.000,352.407 84.374,352.564 85.000 C 352.729 85.655,353.095 86.000,353.625 86.000 C 354.071 86.000,354.406 86.225,354.370 86.500 C 354.176 87.994,354.464 88.892,355.200 89.084 C 355.643 89.200,356.000 89.630,356.000 90.047 C 356.000 90.533,356.283 90.800,356.800 90.800 C 357.333 90.800,357.600 91.067,357.600 91.600 C 357.600 92.133,357.867 92.400,358.400 92.400 C 359.064 92.400,359.200 92.667,359.200 93.973 C 359.200 95.195,359.379 95.603,360.000 95.800 C 360.597 95.989,360.800 96.405,360.800 97.437 C 360.800 98.541,361.000 98.896,361.792 99.197 C 362.423 99.437,362.704 99.786,362.562 100.155 C 362.413 100.544,362.647 100.780,363.269 100.868 C 363.871 100.953,364.214 101.283,364.241 101.800 C 364.342 103.795,364.432 104.000,365.200 104.000 C 365.864 104.000,366.000 104.267,366.000 105.573 C 366.000 106.795,366.179 107.203,366.800 107.400 C 367.240 107.540,367.600 108.002,367.600 108.427 C 367.600 108.933,367.876 109.200,368.400 109.200 C 369.067 109.200,369.200 109.467,369.200 110.800 C 369.200 112.133,369.333 112.400,370.000 112.400 C 370.667 112.400,370.800 112.667,370.800 114.010 C 370.800 115.325,370.970 115.684,371.726 115.972 C 372.460 116.251,372.633 116.590,372.562 117.609 C 372.495 118.582,372.659 118.943,373.237 119.094 C 373.656 119.203,374.031 119.587,374.068 119.947 C 374.198 121.189,374.287 122.203,374.343 123.100 C 374.382 123.714,374.654 124.000,375.200 124.000 C 375.864 124.000,376.000 124.267,376.000 125.573 C 376.000 126.795,376.179 127.203,376.800 127.400 C 377.421 127.597,377.600 128.005,377.600 129.227 C 377.600 130.533,377.736 130.800,378.400 130.800 C 379.112 130.800,379.200 131.067,379.200 133.237 C 379.200 135.338,379.310 135.704,380.000 135.884 C 380.677 136.061,380.800 136.430,380.800 138.284 C 380.800 140.138,380.923 140.507,381.600 140.684 C 382.443 140.905,382.519 141.180,382.484 143.883 C 382.467 145.203,382.628 145.619,383.231 145.810 C 383.716 145.964,384.020 146.450,384.054 147.127 C 384.084 147.717,384.140 148.650,384.179 149.200 C 384.218 149.750,384.284 150.695,384.325 151.300 C 384.380 152.108,384.612 152.400,385.200 152.400 C 385.934 152.400,386.000 152.667,386.000 155.637 C 386.000 158.538,386.083 158.897,386.800 159.084 C 387.531 159.275,387.600 159.630,387.600 163.220 C 387.600 166.795,387.672 167.169,388.400 167.400 C 389.142 167.635,389.200 168.005,389.200 172.464 C 389.200 176.938,389.256 177.290,390.000 177.484 C 391.174 177.791,391.274 222.915,390.100 222.718 C 389.470 222.612,389.389 223.089,389.288 227.477 C 389.186 231.925,389.106 232.376,388.388 232.604 C 387.675 232.830,387.600 233.225,387.600 236.780 C 387.600 240.370,387.531 240.725,386.800 240.916 C 386.083 241.103,386.000 241.462,386.000 244.363 C 386.000 247.258,385.921 247.600,385.252 247.600 C 384.406 247.600,384.110 248.868,384.166 252.262 C 384.185 253.396,384.081 254.250,383.936 254.160 C 383.148 253.674,382.491 254.569,382.494 256.125 C 382.500 258.868,382.435 259.097,381.600 259.316 C 380.922 259.493,380.800 259.862,380.800 261.736 C 380.800 263.595,380.673 263.986,380.000 264.200 C 379.318 264.416,379.200 264.805,379.200 266.827 C 379.200 268.933,379.110 269.200,378.400 269.200 C 377.722 269.200,377.600 269.467,377.600 270.956 C 377.600 272.382,377.469 272.701,376.900 272.656 C 376.314 272.609,376.181 273.004,376.082 275.075 C 375.976 277.278,375.866 277.563,375.082 277.675 C 374.527 277.754,374.185 278.096,374.159 278.600 C 374.060 280.556,373.961 280.800,373.268 280.800 C 372.740 280.800,372.532 281.106,372.523 281.900 C 372.497 284.019,372.395 284.311,371.700 284.256 C 371.152 284.212,370.973 284.568,370.877 285.900 C 370.778 287.274,370.605 287.600,369.977 287.600 C 369.341 287.600,369.200 287.882,369.200 289.153 C 369.200 290.370,369.027 290.752,368.400 290.916 C 367.939 291.036,367.600 291.462,367.600 291.918 C 367.600 292.428,367.350 292.691,366.900 292.656 C 366.352 292.612,366.173 292.968,366.077 294.300 L 365.954 296.000 329.177 296.000 L 292.400 296.000 292.400 266.000 C 292.400 236.267,292.393 236.000,291.600 236.000 C 291.005 236.000,290.800 235.733,290.800 234.957 C 290.800 234.183,290.641 233.975,290.185 234.151 C 289.785 234.304,289.455 234.079,289.244 233.508 C 288.687 232.003,284.400 232.128,284.400 233.651 C 284.400 234.089,284.221 234.337,284.003 234.202 C 282.592 233.330,282.600 232.919,282.600 303.600 L 282.600 372.600 281.700 372.552 C 281.070 372.519,280.800 372.729,280.800 373.252 C 280.800 373.743,280.491 374.020,279.900 374.059 C 279.405 374.092,278.730 374.155,278.400 374.200 C 278.070 374.245,277.395 374.308,276.900 374.341 C 276.286 374.381,276.000 374.655,276.000 375.200 C 276.000 375.787,275.733 376.000,275.000 376.000 L 274.000 376.000 274.000 302.600 L 274.000 229.200 313.200 229.200 C 352.133 229.200,352.400 229.195,352.400 228.400 C 352.400 227.795,352.669 227.599,353.500 227.594 C 355.217 227.584,355.694 227.042,355.903 224.865 C 356.208 221.690,355.713 219.200,354.775 219.200 C 354.267 219.200,354.000 218.925,354.000 218.400 C 354.000 217.867,353.733 217.600,353.200 217.600 C 352.667 217.600,352.400 217.333,352.400 216.800 C 352.400 216.276,352.133 216.000,351.628 216.000 C 351.132 216.000,350.810 215.678,350.728 215.100 C 350.647 214.530,350.343 214.220,349.900 214.256 C 349.469 214.290,349.200 214.031,349.200 213.583 C 349.200 213.182,348.859 212.746,348.443 212.614 C 348.027 212.482,347.594 212.019,347.481 211.587 C 347.367 211.154,347.000 210.800,346.664 210.800 C 346.329 210.800,345.940 210.440,345.800 210.000 C 345.603 209.379,345.195 209.200,343.973 209.200 C 342.667 209.200,342.400 209.064,342.400 208.400 C 342.400 207.867,342.133 207.600,341.600 207.600 C 341.067 207.600,340.800 207.333,340.800 206.800 C 340.800 206.133,340.533 206.000,339.200 206.000 C 338.033 206.000,337.600 205.835,337.600 205.390 C 337.600 204.676,335.875 203.919,335.007 204.253 C 334.643 204.392,334.299 204.191,334.133 203.742 C 333.719 202.623,333.355 202.505,330.525 202.574 C 328.146 202.632,327.888 202.557,327.569 201.719 L 327.220 200.800 318.210 200.800 C 309.467 200.800,309.200 200.776,309.200 200.000 C 309.200 199.467,309.467 199.200,310.000 199.200 C 310.533 199.200,310.800 198.933,310.800 198.400 C 310.800 197.867,311.067 197.600,311.600 197.600 C 312.133 197.600,312.400 197.333,312.400 196.800 C 312.400 196.267,312.667 196.000,313.200 196.000 C 313.787 196.000,314.000 195.733,314.000 195.000 C 314.000 194.200,314.200 194.000,315.000 194.000 C 315.733 194.000,316.000 193.787,316.000 193.200 C 316.000 192.667,316.267 192.400,316.800 192.400 C 317.333 192.400,317.600 192.133,317.600 191.600 C 317.600 191.067,317.867 190.800,318.400 190.800 C 318.933 190.800,319.200 190.533,319.200 190.000 C 319.200 189.467,319.467 189.200,320.000 189.200 C 320.533 189.200,320.800 188.933,320.800 188.400 C 320.800 187.867,321.067 187.600,321.600 187.600 C 322.133 187.600,322.400 187.333,322.400 186.800 C 322.400 186.267,322.667 186.000,323.200 186.000 C 323.787 186.000,324.000 185.733,324.000 185.000 C 324.000 184.200,324.200 184.000,325.000 184.000 C 325.733 184.000,326.000 183.787,326.000 183.200 C 326.000 182.667,326.267 182.400,326.800 182.400 C 327.333 182.400,327.600 182.133,327.600 181.600 C 327.600 181.067,327.867 180.800,328.400 180.800 C 328.933 180.800,329.200 180.533,329.200 180.000 C 329.200 179.467,329.467 179.200,330.000 179.200 C 330.533 179.200,330.800 178.933,330.800 178.400 C 330.800 177.867,331.067 177.600,331.600 177.600 C 332.133 177.600,332.400 177.333,332.400 176.800 C 332.400 176.267,332.667 176.000,333.200 176.000 C 333.937 176.000,334.000 175.733,334.000 172.600 C 334.000 169.467,333.937 169.200,333.200 169.200 C 332.667 169.200,332.400 168.933,332.400 168.400 C 332.400 167.619,332.133 167.600,320.963 167.600 C 309.862 167.600,309.519 167.624,309.316 168.400 C 309.137 169.083,308.770 169.200,306.800 169.200 C 304.830 169.200,304.463 169.317,304.284 170.000 C 304.118 170.636,303.738 170.800,302.437 170.800 C 300.973 170.800,300.800 170.902,300.800 171.766 C 300.800 172.644,300.653 172.723,299.200 172.630 C 297.876 172.546,297.600 172.656,297.600 173.264 C 297.600 173.669,297.375 174.021,297.100 174.046 C 296.825 174.072,296.420 174.134,296.200 174.185 C 295.980 174.236,295.506 174.306,295.147 174.339 C 294.787 174.373,294.399 174.760,294.284 175.200 C 294.157 175.685,293.738 176.000,293.220 176.000 C 292.628 176.000,292.401 176.215,292.482 176.700 C 292.561 177.167,292.301 177.442,291.700 177.528 C 291.122 177.610,290.800 177.932,290.800 178.428 C 290.800 179.047,290.516 179.200,289.363 179.200 C 288.285 179.200,287.875 179.391,287.726 179.963 C 287.616 180.383,287.195 180.813,286.790 180.919 C 286.267 181.055,286.017 181.559,285.927 182.656 C 285.825 183.891,285.640 184.200,285.000 184.200 C 284.481 184.200,284.199 184.467,284.198 184.960 C 284.197 185.379,283.837 185.847,283.398 186.001 C 282.959 186.155,282.600 186.532,282.600 186.840 C 282.600 187.148,282.195 187.458,281.700 187.528 C 280.941 187.636,280.800 187.902,280.800 189.228 C 280.800 190.533,280.664 190.800,280.000 190.800 C 279.377 190.800,279.200 191.067,279.200 192.003 C 279.200 193.107,279.133 193.165,278.400 192.707 C 277.960 192.432,277.600 191.891,277.600 191.504 C 277.600 191.067,277.297 190.800,276.800 190.800 C 276.221 190.800,276.000 190.533,276.000 189.833 C 276.000 188.341,275.587 187.600,274.757 187.600 C 274.267 187.600,274.000 187.318,274.000 186.800 C 274.000 186.267,273.733 186.000,273.200 186.000 C 272.610 186.000,272.400 185.733,272.400 184.982 C 272.400 184.235,272.214 183.996,271.700 184.082 C 271.151 184.175,270.973 183.868,270.873 182.656 C 270.783 181.559,270.533 181.055,270.010 180.919 C 269.605 180.813,269.184 180.383,269.074 179.963 C 268.925 179.391,268.515 179.200,267.437 179.200 C 266.267 179.200,266.000 179.052,266.000 178.400 C 266.000 177.813,265.733 177.600,265.000 177.600 C 264.267 177.600,264.000 177.387,264.000 176.800 C 264.000 176.267,263.733 176.000,263.200 176.000 C 262.667 176.000,262.400 175.733,262.400 175.200 C 262.400 174.434,262.196 174.344,260.220 174.241 C 259.791 174.218,259.341 173.837,259.220 173.394 C 259.072 172.851,258.641 172.573,257.900 172.544 C 256.168 172.475,256.105 172.445,255.884 171.600 C 255.718 170.964,255.338 170.800,254.037 170.800 C 252.667 170.800,252.400 170.670,252.400 170.000 C 252.400 169.290,252.133 169.200,250.027 169.200 C 247.999 169.200,247.617 169.083,247.398 168.394 C 247.026 167.221,224.162 167.326,224.256 168.500 C 224.293 168.972,224.024 169.200,223.429 169.200 C 222.589 169.200,222.551 169.347,222.626 172.300 C 222.726 176.226,222.669 176.000,223.556 176.000 C 224.030 176.000,224.290 176.261,224.256 176.700 C 224.220 177.143,224.530 177.447,225.100 177.528 C 225.678 177.610,226.000 177.932,226.000 178.428 C 226.000 178.933,226.276 179.200,226.800 179.200 C 227.333 179.200,227.600 179.467,227.600 180.000 C 227.600 180.533,227.867 180.800,228.400 180.800 C 228.933 180.800,229.200 181.067,229.200 181.600 C 229.200 182.133,229.467 182.400,230.000 182.400 C 230.533 182.400,230.800 182.667,230.800 183.200 C 230.800 183.792,231.067 184.000,231.824 184.000 C 232.387 184.000,232.746 184.164,232.622 184.364 C 232.240 184.982,232.848 186.000,233.598 186.000 C 234.032 186.000,234.289 186.274,234.256 186.700 C 234.220 187.143,234.530 187.447,235.100 187.528 C 235.678 187.610,236.000 187.932,236.000 188.428 C 236.000 188.933,236.276 189.200,236.800 189.200 C 237.333 189.200,237.600 189.467,237.600 190.000 C 237.600 190.533,237.867 190.800,238.400 190.800 C 238.933 190.800,239.200 191.067,239.200 191.600 C 239.200 192.133,239.467 192.400,240.000 192.400 C 240.533 192.400,240.800 192.667,240.800 193.200 C 240.800 193.792,241.067 194.000,241.824 194.000 C 242.387 194.000,242.746 194.164,242.622 194.364 C 242.240 194.982,242.848 196.000,243.598 196.000 C 244.032 196.000,244.289 196.274,244.256 196.700 C 244.220 197.143,244.530 197.447,245.100 197.528 C 245.678 197.610,246.000 197.932,246.000 198.428 C 246.000 198.933,246.276 199.200,246.800 199.200 C 247.333 199.200,247.600 199.467,247.600 200.000 C 247.600 200.778,247.333 200.800,237.763 200.800 C 228.262 200.800,227.918 200.827,227.716 201.600 C 227.501 202.421,227.338 202.471,224.600 202.553 C 223.347 202.590,222.914 202.796,222.603 203.505 C 222.379 204.016,221.972 204.321,221.671 204.206 C 220.687 203.828,219.200 204.453,219.200 205.243 C 219.200 205.859,218.903 206.000,217.600 206.000 C 216.286 206.000,216.000 206.138,216.000 206.772 C 216.000 207.268,215.678 207.590,215.100 207.672 C 214.499 207.758,214.239 208.033,214.318 208.500 C 214.414 209.073,214.134 209.200,212.780 209.200 C 211.462 209.200,211.083 209.363,210.916 210.000 C 210.800 210.443,210.370 210.800,209.953 210.800 C 209.421 210.800,209.200 211.087,209.200 211.777 C 209.200 212.539,209.024 212.720,208.400 212.600 C 207.785 212.482,207.600 212.661,207.600 213.379 C 207.600 214.021,207.382 214.294,206.900 214.256 C 206.457 214.220,206.153 214.530,206.072 215.100 C 205.992 215.665,205.667 216.000,205.199 216.000 C 204.789 216.000,204.346 216.341,204.214 216.757 C 204.082 217.173,203.608 217.609,203.162 217.726 C 202.716 217.843,202.383 218.177,202.423 218.469 C 202.635 220.031,202.363 220.800,201.600 220.800 C 200.873 220.800,200.800 221.067,200.800 223.720 C 200.800 226.954,201.152 227.600,202.917 227.600 C 203.738 227.600,204.136 227.833,204.284 228.400 C 204.491 229.191,204.830 229.200,234.447 229.200 L 264.400 229.200 264.400 262.600 L 264.400 296.000 224.200 296.000 L 184.000 296.000 184.000 221.000 C 184.000 147.167,183.988 146.000,183.228 146.000 C 182.732 146.000,182.410 145.678,182.328 145.100 C 182.236 144.452,181.920 144.191,181.200 144.168 C 180.650 144.151,158.195 144.106,131.300 144.068 C 82.689 144.000,82.400 143.995,82.400 143.200 C 82.400 142.667,82.667 142.400,83.200 142.400 C 83.867 142.400,84.000 142.133,84.000 140.800 C 84.000 139.443,84.127 139.200,84.837 139.200 C 85.325 139.200,85.758 138.881,85.874 138.437 C 85.984 138.017,86.417 137.584,86.837 137.474 C 87.431 137.319,87.600 136.912,87.600 135.637 C 87.600 134.267,87.730 134.000,88.400 134.000 C 89.067 134.000,89.200 133.733,89.200 132.400 C 89.200 131.067,89.333 130.800,90.000 130.800 C 90.533 130.800,90.800 130.533,90.800 130.000 C 90.800 129.467,91.067 129.200,91.600 129.200 C 92.267 129.200,92.400 128.933,92.400 127.600 C 92.400 126.267,92.533 126.000,93.200 126.000 C 93.781 126.000,94.000 125.733,94.000 125.028 C 94.000 124.324,94.249 124.020,94.900 123.928 C 95.618 123.826,95.825 123.504,95.922 122.341 C 96.009 121.293,96.263 120.825,96.822 120.678 C 97.411 120.524,97.600 120.125,97.600 119.037 C 97.600 117.867,97.748 117.600,98.400 117.600 C 98.924 117.600,99.200 117.333,99.200 116.827 C 99.200 116.402,99.560 115.940,100.000 115.800 C 100.621 115.603,100.800 115.195,100.800 113.973 C 100.800 112.667,100.936 112.400,101.600 112.400 C 102.133 112.400,102.400 112.133,102.400 111.600 C 102.400 111.067,102.667 110.800,103.200 110.800 C 103.858 110.800,104.000 110.533,104.000 109.295 C 104.000 108.118,104.196 107.704,104.900 107.395 C 105.562 107.105,105.833 106.603,105.924 105.500 C 106.021 104.325,106.216 104.000,106.824 104.000 C 107.333 104.000,107.600 103.725,107.600 103.200 C 107.600 102.667,107.867 102.400,108.400 102.400 C 109.067 102.400,109.200 102.133,109.200 100.800 C 109.200 99.467,109.333 99.200,110.000 99.200 C 110.524 99.200,110.800 98.933,110.800 98.427 C 110.800 98.002,111.160 97.540,111.600 97.400 C 112.221 97.203,112.400 96.795,112.400 95.573 C 112.400 94.267,112.536 94.000,113.200 94.000 C 113.867 94.000,114.000 93.733,114.000 92.400 C 114.000 90.960,114.100 90.800,115.000 90.800 C 115.713 90.800,116.000 90.584,116.000 90.047 C 116.000 89.630,116.357 89.200,116.800 89.084 C 117.406 88.925,117.600 88.538,117.600 87.484 C 117.600 86.430,117.794 86.043,118.400 85.884 C 119.036 85.718,119.200 85.338,119.200 84.037 C 119.200 82.667,119.330 82.400,120.000 82.400 C 120.533 82.400,120.800 82.133,120.800 81.600 C 120.800 81.067,121.067 80.800,121.600 80.800 C 122.267 80.800,122.400 80.533,122.400 79.200 C 122.400 77.867,122.533 77.600,123.200 77.600 C 123.694 77.600,124.001 77.332,124.003 76.900 C 124.007 76.071,125.433 75.344,126.700 75.526 C 127.351 75.620,127.600 75.925,127.600 76.628 C 127.600 77.333,127.819 77.600,128.400 77.600 C 129.052 77.600,129.200 77.867,129.200 79.037 C 129.200 80.138,129.387 80.524,130.000 80.684 C 130.443 80.800,130.800 81.230,130.800 81.647 C 130.800 82.133,131.083 82.400,131.600 82.400 C 132.392 82.400,132.554 82.826,132.476 84.697 C 132.449 85.334,132.725 85.666,133.426 85.842 C 133.970 85.979,134.390 86.295,134.360 86.545 C 134.183 88.017,134.473 88.894,135.200 89.084 C 135.643 89.200,136.000 89.630,136.000 90.047 C 136.000 90.533,136.283 90.800,136.800 90.800 C 137.467 90.800,137.600 91.067,137.600 92.400 C 137.600 93.733,137.733 94.000,138.400 94.000 C 138.945 94.000,139.200 94.267,139.200 94.837 C 139.200 95.338,139.521 95.759,140.000 95.884 C 140.627 96.048,140.800 96.430,140.800 97.647 C 140.800 99.013,140.914 99.200,141.745 99.200 C 142.527 99.200,142.670 99.381,142.575 100.246 C 142.417 101.687,142.756 102.400,143.598 102.400 C 144.032 102.400,144.289 102.674,144.256 103.100 C 144.220 103.543,144.530 103.847,145.100 103.928 C 145.863 104.036,146.000 104.301,146.000 105.665 C 146.000 106.938,146.167 107.319,146.800 107.484 C 147.243 107.600,147.600 108.030,147.600 108.447 C 147.600 108.933,147.883 109.200,148.400 109.200 C 149.067 109.200,149.200 109.467,149.200 110.800 C 149.200 112.133,149.333 112.400,150.000 112.400 C 150.652 112.400,150.800 112.667,150.800 113.837 C 150.800 114.938,150.987 115.324,151.600 115.484 C 152.047 115.601,152.400 116.030,152.400 116.457 C 152.400 116.902,152.815 117.378,153.397 117.599 C 153.991 117.825,154.370 118.266,154.334 118.689 C 154.200 120.258,154.423 120.800,155.200 120.800 C 155.733 120.800,156.000 121.067,156.000 121.600 C 156.000 122.133,156.267 122.400,156.800 122.400 C 157.470 122.400,157.600 122.667,157.600 124.037 C 157.600 125.338,157.764 125.718,158.400 125.884 C 159.006 126.043,159.200 126.430,159.200 127.484 C 159.200 128.538,159.394 128.925,160.000 129.084 C 160.443 129.200,160.800 129.630,160.800 130.047 C 160.800 130.574,161.086 130.800,161.756 130.800 C 162.604 130.800,162.705 130.970,162.656 132.300 C 162.609 133.567,162.738 133.820,163.491 133.927 C 164.037 134.004,164.360 134.313,164.327 134.727 C 164.195 136.371,164.454 137.163,165.200 137.400 C 165.640 137.540,166.000 138.002,166.000 138.427 C 166.000 139.139,166.313 139.200,170.000 139.200 L 174.000 139.200 174.000 137.695 C 174.000 136.518,174.196 136.104,174.900 135.795 C 176.439 135.120,176.084 131.975,174.536 132.569 C 174.137 132.722,174.000 132.317,174.000 130.987 C 174.000 129.467,173.881 129.200,173.200 129.200 C 172.533 129.200,172.400 128.933,172.400 127.600 C 172.400 126.286,172.262 126.000,171.628 126.000 C 171.132 126.000,170.810 125.678,170.728 125.100 C 170.647 124.530,170.343 124.220,169.900 124.256 C 169.341 124.300,169.200 123.990,169.200 122.718 C 169.200 121.462,169.031 121.081,168.400 120.916 C 167.892 120.783,167.600 120.370,167.600 119.786 C 167.600 118.480,167.199 117.600,166.604 117.600 C 166.323 117.600,165.999 117.240,165.884 116.800 C 165.759 116.321,165.338 116.000,164.837 116.000 C 164.129 116.000,164.000 115.757,164.000 114.427 C 164.000 113.205,163.821 112.797,163.200 112.600 C 162.760 112.460,162.400 111.998,162.400 111.573 C 162.400 111.067,162.124 110.800,161.600 110.800 C 160.933 110.800,160.800 110.533,160.800 109.200 C 160.800 107.867,160.667 107.600,160.000 107.600 C 159.348 107.600,159.200 107.333,159.200 106.163 C 159.200 105.075,159.011 104.676,158.422 104.522 C 157.995 104.410,157.590 103.932,157.522 103.459 C 157.455 102.987,157.132 102.600,156.805 102.600 C 156.478 102.600,156.156 102.240,156.090 101.800 C 155.760 99.618,155.551 99.200,154.792 99.200 C 154.267 99.200,154.000 98.931,154.000 98.400 C 154.000 97.867,153.733 97.600,153.200 97.600 C 152.530 97.600,152.400 97.333,152.400 95.963 C 152.400 94.662,152.236 94.282,151.600 94.116 C 150.994 93.957,150.800 93.570,150.800 92.516 C 150.800 91.462,150.606 91.075,150.000 90.916 C 149.557 90.800,149.200 90.370,149.200 89.953 C 149.200 89.467,148.917 89.200,148.400 89.200 C 147.748 89.200,147.600 88.933,147.600 87.763 C 147.600 86.675,147.411 86.276,146.822 86.122 C 146.395 86.010,145.989 85.532,145.921 85.059 C 145.831 84.436,145.551 84.226,144.899 84.295 C 144.086 84.381,144.000 84.218,144.000 82.595 C 144.000 81.067,143.881 80.800,143.200 80.800 C 142.533 80.800,142.400 80.533,142.400 79.200 C 142.400 77.867,142.267 77.600,141.600 77.600 C 141.067 77.600,140.800 77.333,140.800 76.800 C 140.800 76.275,140.533 76.000,140.023 76.000 C 139.395 76.000,139.222 75.674,139.123 74.300 C 139.027 72.968,138.848 72.612,138.300 72.656 C 137.813 72.694,137.600 72.420,137.600 71.756 C 137.600 71.077,137.375 70.800,136.824 70.800 C 136.216 70.800,136.021 70.475,135.924 69.300 C 135.824 68.095,135.623 67.775,134.900 67.672 C 134.141 67.564,134.000 67.298,134.000 65.972 C 134.000 64.667,133.864 64.400,133.200 64.400 C 132.610 64.400,132.400 64.133,132.400 63.382 C 132.400 62.635,132.214 62.396,131.700 62.482 C 131.139 62.577,130.975 62.261,130.877 60.900 C 130.755 59.218,130.738 59.200,129.224 59.200 C 128.030 59.200,127.647 59.024,127.484 58.400 C 127.189 57.272,124.585 57.250,124.291 58.373 C 124.144 58.937,123.671 59.181,122.544 59.273 C 121.070 59.394,120.991 59.472,120.800 61.000 C 120.644 62.244,120.444 62.574,119.900 62.482 C 119.319 62.385,119.200 62.673,119.200 64.182 C 119.200 65.733,119.083 66.000,118.400 66.000 C 117.867 66.000,117.600 66.267,117.600 66.800 C 117.600 67.333,117.333 67.600,116.800 67.600 C 116.136 67.600,116.000 67.867,116.000 69.172 C 116.000 70.498,115.859 70.764,115.100 70.872 C 114.510 70.956,114.200 71.275,114.199 71.799 C 114.199 72.332,113.932 72.599,113.399 72.599 C 112.734 72.600,112.599 72.868,112.597 74.200 C 112.594 75.552,112.455 75.820,111.697 75.928 C 110.941 76.035,110.800 76.304,110.800 77.628 C 110.800 78.933,110.664 79.200,110.000 79.200 C 109.467 79.200,109.200 79.467,109.200 80.000 C 109.200 80.533,108.933 80.800,108.400 80.800 C 107.722 80.800,107.600 81.067,107.600 82.556 C 107.600 83.982,107.469 84.301,106.900 84.256 C 106.457 84.220,106.153 84.530,106.072 85.100 C 105.990 85.678,105.668 86.000,105.172 86.000 C 104.424 86.000,104.202 86.561,104.334 88.111 C 104.370 88.529,103.995 88.974,103.424 89.191 C 102.705 89.464,102.459 89.850,102.477 90.680 C 102.517 92.565,102.428 92.760,101.600 92.600 C 101.011 92.487,100.800 92.661,100.800 93.260 C 100.800 93.738,100.470 94.161,100.000 94.284 C 99.373 94.448,99.200 94.830,99.200 96.047 C 99.200 97.333,99.063 97.600,98.400 97.600 C 97.883 97.600,97.600 97.867,97.600 98.353 C 97.600 98.770,97.243 99.200,96.800 99.316 C 96.166 99.482,96.000 99.862,96.000 101.150 C 96.000 102.426,95.872 102.726,95.403 102.546 C 94.782 102.308,94.359 103.005,94.195 104.535 C 94.144 105.011,94.079 105.535,94.051 105.700 C 94.023 105.865,93.632 106.000,93.182 106.000 C 92.626 106.000,92.402 106.223,92.482 106.700 C 92.561 107.167,92.301 107.442,91.700 107.528 C 90.941 107.636,90.800 107.902,90.800 109.228 C 90.800 110.533,90.664 110.800,90.000 110.800 C 89.317 110.800,89.200 111.067,89.200 112.618 C 89.200 114.127,89.081 114.415,88.500 114.318 C 88.033 114.239,87.758 114.499,87.672 115.100 C 87.590 115.678,87.268 116.000,86.772 116.000 C 86.140 116.000,86.000 116.286,86.000 117.572 C 86.000 118.898,85.859 119.164,85.100 119.272 C 84.605 119.342,84.200 119.670,84.200 120.000 C 84.200 120.330,83.840 120.699,83.400 120.819 C 82.780 120.989,82.605 121.366,82.624 122.495 C 82.643 123.693,82.483 123.993,81.724 124.183 C 80.952 124.377,80.800 124.678,80.800 126.008 C 80.800 127.333,80.666 127.600,80.000 127.600 C 79.467 127.600,79.200 127.867,79.200 128.400 C 79.200 128.933,78.933 129.200,78.400 129.200 C 77.721 129.200,77.600 129.467,77.600 130.963 C 77.600 132.528,77.511 132.702,76.800 132.516 C 76.178 132.353,76.000 132.504,76.000 133.191 C 76.000 133.738,75.696 134.154,75.200 134.284 C 74.423 134.487,74.208 135.040,74.334 136.511 C 74.370 136.937,73.987 137.377,73.379 137.608 C 72.821 137.820,72.393 138.220,72.429 138.497 C 72.631 140.043,72.358 140.800,71.600 140.800 C 71.023 140.800,70.800 141.067,70.800 141.756 C 70.800 142.420,70.587 142.694,70.100 142.656 C 69.552 142.612,69.373 142.968,69.277 144.300 C 69.178 145.674,69.005 146.000,68.377 146.000 C 67.610 146.000,67.600 147.007,67.600 221.000 L 67.600 296.000 48.563 296.000 C 29.862 296.000,29.521 296.014,29.316 296.800 C 29.200 297.243,28.770 297.600,28.353 297.600 C 27.161 297.600,27.206 305.572,28.400 305.884 C 29.027 306.048,29.200 306.430,29.200 307.647 C 29.200 308.933,29.337 309.200,30.000 309.200 C 30.652 309.200,30.800 309.467,30.800 310.637 C 30.800 311.738,30.987 312.124,31.600 312.284 C 32.336 312.476,32.444 312.646,32.376 313.500 C 32.363 313.665,32.768 313.898,33.275 314.018 C 33.849 314.153,34.198 314.531,34.199 315.018 C 34.200 315.524,34.518 315.845,35.100 315.928 C 35.859 316.036,36.000 316.302,36.000 317.628 C 36.000 318.933,36.136 319.200,36.800 319.200 C 37.333 319.200,37.600 319.467,37.600 320.000 C 37.600 320.533,37.867 320.800,38.400 320.800 C 39.052 320.800,39.200 321.067,39.200 322.237 C 39.200 323.338,39.387 323.724,40.000 323.884 C 40.440 323.999,40.800 324.403,40.800 324.782 C 40.800 325.161,41.251 325.677,41.802 325.928 C 42.354 326.180,42.759 326.598,42.702 326.857 C 42.646 327.117,42.960 327.435,43.400 327.565 C 43.840 327.694,44.200 328.070,44.200 328.400 C 44.200 328.730,44.605 329.058,45.100 329.128 C 45.678 329.210,46.000 329.532,46.000 330.028 C 46.000 330.533,46.276 330.800,46.800 330.800 C 47.467 330.800,47.600 331.067,47.600 332.400 C 47.600 333.733,47.733 334.000,48.400 334.000 C 48.924 334.000,49.200 334.267,49.200 334.773 C 49.200 335.198,49.541 335.654,49.957 335.786 C 50.373 335.918,50.806 336.381,50.919 336.813 C 51.045 337.295,51.466 337.600,52.005 337.600 C 52.646 337.600,52.819 337.773,52.641 338.237 C 52.479 338.660,52.662 338.943,53.185 339.080 C 53.619 339.194,54.082 339.627,54.214 340.043 C 54.346 340.459,54.802 340.800,55.227 340.800 C 55.733 340.800,56.000 341.076,56.000 341.600 C 56.000 342.133,56.267 342.400,56.800 342.400 C 57.333 342.400,57.600 342.667,57.600 343.200 C 57.600 343.733,57.867 344.000,58.400 344.000 C 58.945 344.000,59.200 344.267,59.200 344.837 C 59.200 345.325,59.519 345.758,59.963 345.874 C 60.383 345.984,60.816 346.417,60.926 346.837 C 61.041 347.277,61.475 347.600,61.950 347.600 C 62.515 347.600,62.703 347.787,62.547 348.194 C 62.397 348.584,62.677 348.925,63.359 349.185 C 63.932 349.402,64.400 349.855,64.400 350.190 C 64.400 350.533,64.750 350.800,65.200 350.800 C 65.733 350.800,66.000 351.067,66.000 351.600 C 66.000 352.267,66.267 352.400,67.600 352.400 C 68.933 352.400,69.200 352.533,69.200 353.200 C 69.200 353.733,69.467 354.000,70.000 354.000 C 70.537 354.000,70.800 354.267,70.800 354.810 C 70.800 355.311,71.191 355.768,71.824 356.009 C 72.387 356.223,72.736 356.579,72.600 356.800 C 72.464 357.021,72.813 357.377,73.376 357.591 C 73.939 357.805,74.400 358.255,74.400 358.590 C 74.400 359.035,74.833 359.200,76.000 359.200 C 77.333 359.200,77.600 359.333,77.600 360.000 C 77.600 360.533,77.867 360.800,78.400 360.800 C 78.933 360.800,79.200 361.067,79.200 361.600 C 79.200 362.133,79.467 362.400,80.000 362.400 C 80.533 362.400,80.800 362.667,80.800 363.200 C 80.800 363.881,81.067 364.000,82.595 364.000 C 84.218 364.000,84.381 364.086,84.295 364.899 C 84.226 365.551,84.436 365.831,85.059 365.921 C 85.532 365.989,86.010 366.395,86.122 366.822 C 86.276 367.411,86.675 367.600,87.763 367.600 C 88.933 367.600,89.200 367.748,89.200 368.400 C 89.200 368.933,89.467 369.200,90.000 369.200 C 90.533 369.200,90.800 369.467,90.800 370.000 C 90.800 370.678,91.067 370.800,92.556 370.800 C 93.982 370.800,94.301 370.931,94.256 371.500 C 94.220 371.943,94.530 372.247,95.100 372.328 C 95.678 372.410,96.000 372.732,96.000 373.228 C 96.000 373.862,96.286 374.000,97.600 374.000 C 98.903 374.000,99.200 374.140,99.200 374.757 C 99.200 375.619,99.945 376.000,101.633 376.000 C 102.275 376.000,102.779 376.135,102.753 376.300 C 102.589 377.333,102.927 377.600,104.400 377.600 C 105.733 377.600,106.000 377.733,106.000 378.400 C 106.000 379.067,106.267 379.200,107.600 379.200 C 108.933 379.200,109.200 379.333,109.200 380.000 C 109.200 380.680,109.467 380.800,110.977 380.800 C 112.539 380.800,112.735 380.897,112.600 381.600 C 112.465 382.303,112.661 382.400,114.223 382.400 C 115.733 382.400,116.000 382.520,116.000 383.200 C 116.000 383.864,116.267 384.000,117.572 384.000 C 118.898 384.000,119.164 384.141,119.272 384.900 C 119.374 385.620,119.720 385.840,121.000 386.000 C 122.067 386.133,122.600 386.400,122.600 386.800 C 122.600 387.257,123.197 387.428,125.100 387.519 C 127.272 387.623,127.600 387.741,127.600 388.419 C 127.600 389.107,127.886 389.200,130.000 389.200 C 132.278 389.200,132.624 389.384,132.447 390.500 C 132.421 390.665,133.210 390.800,134.200 390.800 C 135.733 390.800,136.000 390.919,136.000 391.600 C 136.000 392.333,136.267 392.400,139.200 392.400 C 142.287 392.400,142.631 392.538,142.447 393.700 C 142.421 393.865,143.570 394.000,145.000 394.000 C 147.284 394.000,147.600 394.092,147.600 394.757 C 147.600 395.770,148.348 396.000,151.633 396.000 C 153.731 396.000,154.400 396.135,154.400 396.557 C 154.400 397.388,155.322 397.600,158.936 397.600 C 161.774 397.600,162.274 397.706,162.707 398.400 C 163.167 399.136,163.640 399.200,168.603 399.200 C 171.934 399.200,174.000 399.353,174.000 399.600 C 174.000 399.863,182.933 400.000,200.000 400.000 C 217.067 400.000,226.000 399.863,226.000 399.600 C 226.000 399.353,228.066 399.200,231.397 399.200 C 236.360 399.200,236.833 399.136,237.293 398.400 C 237.726 397.706,238.226 397.600,241.064 397.600 C 244.678 397.600,245.600 397.388,245.600 396.557 C 245.600 396.150,246.179 396.000,247.750 396.000 C 251.015 396.000,252.400 395.628,252.400 394.750 C 252.400 394.094,252.724 394.000,255.000 394.000 C 257.333 394.000,257.600 393.918,257.600 393.200 C 257.600 392.467,257.867 392.400,260.800 392.400 C 263.733 392.400,264.000 392.333,264.000 391.600 C 264.000 390.888,264.267 390.800,266.437 390.800 C 268.538 390.800,268.904 390.690,269.084 390.000 C 269.248 389.373,269.630 389.200,270.847 389.200 C 272.133 389.200,272.400 389.063,272.400 388.400 C 272.400 387.698,272.667 387.600,274.577 387.600 C 276.271 387.600,276.874 387.429,277.293 386.832 C 277.602 386.390,278.419 386.007,279.215 385.932 C 280.297 385.829,280.628 385.603,280.728 384.900 C 280.836 384.141,281.102 384.000,282.428 384.000 C 283.733 384.000,284.000 383.864,284.000 383.200 C 284.000 382.519,284.267 382.400,285.800 382.400 C 287.333 382.400,287.600 382.281,287.600 381.600 C 287.600 380.933,287.867 380.800,289.200 380.800 C 290.533 380.800,290.800 380.667,290.800 380.000 C 290.800 379.333,291.067 379.200,292.400 379.200 C 293.733 379.200,294.000 379.067,294.000 378.400 C 294.000 377.730,294.267 377.600,295.637 377.600 C 296.923 377.600,297.319 377.433,297.478 376.822 C 297.625 376.263,298.093 376.009,299.141 375.922 C 300.304 375.825,300.626 375.618,300.728 374.900 C 300.836 374.141,301.102 374.000,302.428 374.000 C 303.733 374.000,304.000 373.864,304.000 373.200 C 304.000 372.613,304.267 372.400,305.000 372.400 C 305.733 372.400,306.000 372.187,306.000 371.600 C 306.000 370.933,306.267 370.800,307.600 370.800 C 308.933 370.800,309.200 370.667,309.200 370.000 C 309.200 369.348,309.467 369.200,310.637 369.200 C 311.738 369.200,312.124 369.013,312.284 368.400 C 312.400 367.957,312.830 367.600,313.247 367.600 C 313.724 367.600,314.000 367.317,314.000 366.828 C 314.000 366.332,314.322 366.010,314.900 365.928 C 315.478 365.846,315.846 365.478,315.928 364.900 C 316.036 364.141,316.302 364.000,317.628 364.000 C 318.933 364.000,319.200 363.864,319.200 363.200 C 319.200 362.667,319.467 362.400,320.000 362.400 C 320.533 362.400,320.800 362.133,320.800 361.600 C 320.800 361.067,321.067 360.800,321.600 360.800 C 322.133 360.800,322.400 360.533,322.400 360.000 C 322.400 359.336,322.667 359.200,323.973 359.200 C 325.165 359.200,325.604 359.017,325.786 358.443 C 325.918 358.027,326.381 357.594,326.813 357.481 C 327.246 357.367,327.600 357.009,327.600 356.684 C 327.600 356.359,327.960 355.999,328.400 355.884 C 328.879 355.759,329.200 355.338,329.200 354.837 C 329.200 354.267,329.455 354.000,330.000 354.000 C 330.533 354.000,330.800 353.733,330.800 353.200 C 330.800 352.533,331.067 352.400,332.400 352.400 C 333.733 352.400,334.000 352.267,334.000 351.600 C 334.000 351.076,334.267 350.800,334.773 350.800 C 335.198 350.800,335.654 350.459,335.786 350.043 C 335.918 349.627,336.381 349.194,336.813 349.081 C 337.246 348.967,337.600 348.609,337.600 348.284 C 337.600 347.959,337.960 347.599,338.400 347.484 C 338.840 347.369,339.200 347.009,339.200 346.684 C 339.200 346.359,339.560 345.999,340.000 345.884 C 340.479 345.759,340.800 345.338,340.800 344.837 C 340.800 344.267,341.055 344.000,341.600 344.000 C 342.133 344.000,342.400 343.733,342.400 343.200 C 342.400 342.667,342.667 342.400,343.200 342.400 C 343.733 342.400,344.000 342.133,344.000 341.600 C 344.000 341.055,344.267 340.800,344.837 340.800 C 345.325 340.800,345.758 340.481,345.874 340.037 C 345.984 339.617,346.417 339.184,346.837 339.074 C 347.257 338.965,347.600 338.609,347.600 338.284 C 347.600 337.959,347.960 337.599,348.400 337.484 C 348.840 337.369,349.200 337.000,349.200 336.664 C 349.200 336.329,349.560 335.940,350.000 335.800 C 350.440 335.660,350.800 335.198,350.800 334.773 C 350.800 334.267,351.076 334.000,351.600 334.000 C 352.267 334.000,352.400 333.733,352.400 332.400 C 352.400 331.067,352.533 330.800,353.200 330.800 C 353.733 330.800,354.000 330.533,354.000 330.000 C 354.000 329.413,354.267 329.200,355.000 329.200 C 355.713 329.200,356.000 328.984,356.000 328.447 C 356.000 328.030,356.357 327.600,356.800 327.484 C 357.240 327.369,357.600 327.000,357.600 326.664 C 357.600 326.329,357.960 325.940,358.400 325.800 C 359.021 325.603,359.200 325.195,359.200 323.973 C 359.200 322.667,359.336 322.400,360.000 322.400 C 360.533 322.400,360.800 322.133,360.800 321.600 C 360.800 321.067,361.067 320.800,361.600 320.800 C 362.133 320.800,362.400 320.533,362.400 320.000 C 362.400 319.467,362.667 319.200,363.200 319.200 C 363.864 319.200,364.000 318.933,364.000 317.628 C 364.000 316.302,364.141 316.036,364.900 315.928 C 365.463 315.848,365.846 315.479,365.922 314.941 C 365.990 314.468,366.395 313.990,366.822 313.878 C 367.411 313.724,367.600 313.325,367.600 312.237 C 367.600 311.067,367.748 310.800,368.400 310.800 C 368.917 310.800,369.200 310.533,369.200 310.047 C 369.200 309.630,369.557 309.200,370.000 309.084 C 370.613 308.924,370.800 308.538,370.800 307.437 C 370.800 306.267,370.948 306.000,371.600 306.000 C 372.187 306.000,372.400 305.733,372.400 305.000 C 372.400 304.267,372.613 304.000,373.200 304.000 C 373.867 304.000,374.000 303.733,374.000 302.400 C 374.000 301.097,374.140 300.800,374.757 300.800 C 375.579 300.800,376.000 300.060,376.000 298.614 C 376.000 298.030,376.292 297.617,376.800 297.484 C 377.436 297.318,377.600 296.938,377.600 295.637 C 377.600 294.267,377.730 294.000,378.400 294.000 C 379.067 294.000,379.200 293.733,379.200 292.400 C 379.200 291.067,379.333 290.800,380.000 290.800 C 380.667 290.800,380.800 290.533,380.800 289.200 C 380.800 287.867,380.933 287.600,381.600 287.600 C 382.281 287.600,382.400 287.333,382.400 285.800 C 382.400 284.267,382.519 284.000,383.200 284.000 C 383.864 284.000,384.000 283.733,384.000 282.428 C 384.000 281.102,384.141 280.836,384.900 280.728 C 385.618 280.626,385.825 280.304,385.922 279.141 C 386.009 278.093,386.263 277.625,386.822 277.478 C 387.485 277.305,387.600 276.916,387.600 274.837 C 387.600 272.667,387.688 272.400,388.400 272.400 C 389.111 272.400,389.200 272.133,389.200 270.000 C 389.200 267.867,389.289 267.600,390.000 267.600 C 390.718 267.600,390.800 267.333,390.800 265.000 C 390.800 262.667,390.882 262.400,391.600 262.400 C 392.311 262.400,392.400 262.133,392.400 260.000 C 392.400 257.867,392.489 257.600,393.200 257.600 C 393.918 257.600,394.000 257.333,394.000 255.000 C 394.000 252.724,394.094 252.400,394.750 252.400 C 395.628 252.400,396.000 251.015,396.000 247.750 C 396.000 246.179,396.150 245.600,396.557 245.600 C 397.388 245.600,397.600 244.678,397.600 241.064 C 397.600 238.226,397.706 237.726,398.400 237.293 C 399.136 236.833,399.200 236.360,399.200 231.397 C 399.200 228.066,399.353 226.000,399.600 226.000 C 399.863 226.000,400.000 217.067,400.000 200.000 C 400.000 182.933,399.863 174.000,399.600 174.000 C 399.353 174.000,399.200 171.934,399.200 168.603 C 399.200 163.640,399.136 163.167,398.400 162.707 C 397.706 162.274,397.600 161.774,397.600 158.936 C 397.600 155.322,397.388 154.400,396.557 154.400 C 396.150 154.400,396.000 153.821,396.000 152.250 C 396.000 148.985,395.628 147.600,394.750 147.600 C 394.094 147.600,394.000 147.276,394.000 145.000 C 394.000 143.570,393.865 142.421,393.700 142.447 C 392.538 142.631,392.400 142.287,392.400 139.200 C 392.400 136.267,392.333 136.000,391.600 136.000 C 390.888 136.000,390.800 135.733,390.800 133.563 C 390.800 131.462,390.690 131.096,390.000 130.916 C 389.373 130.752,389.200 130.370,389.200 129.153 C 389.200 127.867,389.063 127.600,388.400 127.600 C 387.698 127.600,387.600 127.333,387.600 125.423 C 387.600 123.729,387.429 123.126,386.832 122.707 C 386.390 122.398,386.007 121.581,385.932 120.785 C 385.829 119.703,385.603 119.372,384.900 119.272 C 384.141 119.164,384.000 118.898,384.000 117.572 C 384.000 116.267,383.864 116.000,383.200 116.000 C 382.488 116.000,382.400 115.733,382.400 113.563 C 382.400 111.462,382.290 111.096,381.600 110.916 C 380.994 110.757,380.800 110.370,380.800 109.316 C 380.800 108.262,380.606 107.875,380.000 107.716 C 379.394 107.557,379.200 107.170,379.200 106.116 C 379.200 105.062,379.006 104.675,378.400 104.516 C 377.957 104.400,377.600 103.970,377.600 103.553 C 377.600 102.858,377.250 102.650,376.500 102.900 C 376.335 102.955,376.110 102.190,376.000 101.200 C 375.835 99.712,375.644 99.378,374.900 99.272 C 374.141 99.164,374.000 98.898,374.000 97.572 C 374.000 96.286,373.860 96.000,373.228 96.000 C 372.732 96.000,372.410 95.678,372.328 95.100 C 372.242 94.499,371.967 94.239,371.500 94.318 C 370.919 94.415,370.800 94.127,370.800 92.618 C 370.800 91.067,370.683 90.800,370.000 90.800 C 369.348 90.800,369.200 90.533,369.200 89.363 C 369.200 88.262,369.013 87.876,368.400 87.716 C 367.957 87.600,367.600 87.170,367.600 86.753 C 367.600 86.284,367.318 86.000,366.851 86.000 C 366.289 86.000,366.040 85.608,365.851 84.427 C 365.677 83.340,365.352 82.775,364.800 82.600 C 364.360 82.460,364.000 81.998,364.000 81.573 C 364.000 81.067,363.724 80.800,363.200 80.800 C 362.667 80.800,362.400 80.533,362.400 80.000 C 362.400 79.467,362.133 79.200,361.600 79.200 C 360.948 79.200,360.800 78.933,360.800 77.763 C 360.800 76.662,360.613 76.276,360.000 76.116 C 359.557 76.000,359.200 75.570,359.200 75.153 C 359.200 74.739,358.926 74.400,358.590 74.400 C 358.255 74.400,357.809 73.950,357.600 73.400 C 357.391 72.850,356.966 72.400,356.657 72.400 C 356.347 72.400,355.999 72.040,355.884 71.600 C 355.759 71.121,355.338 70.800,354.837 70.800 C 354.267 70.800,354.000 70.545,354.000 70.000 C 354.000 69.467,353.733 69.200,353.200 69.200 C 352.533 69.200,352.400 68.933,352.400 67.600 C 352.400 66.267,352.267 66.000,351.600 66.000 C 351.067 66.000,350.800 65.733,350.800 65.200 C 350.800 64.750,350.533 64.400,350.190 64.400 C 349.855 64.400,349.402 63.932,349.185 63.359 C 348.925 62.677,348.584 62.397,348.194 62.547 C 347.797 62.699,347.600 62.523,347.600 62.014 C 347.600 61.596,347.259 61.146,346.843 61.014 C 346.427 60.882,345.994 60.419,345.881 59.987 C 345.759 59.520,345.334 59.200,344.837 59.200 C 344.267 59.200,344.000 58.945,344.000 58.400 C 344.000 57.867,343.733 57.600,343.200 57.600 C 342.667 57.600,342.400 57.333,342.400 56.800 C 342.400 56.267,342.133 56.000,341.600 56.000 C 341.076 56.000,340.800 55.733,340.800 55.227 C 340.800 54.802,340.459 54.346,340.043 54.214 C 339.627 54.082,339.194 53.619,339.080 53.185 C 338.943 52.662,338.660 52.479,338.237 52.641 C 337.773 52.819,337.600 52.646,337.600 52.005 C 337.600 51.466,337.295 51.045,336.813 50.919 C 336.381 50.806,335.918 50.373,335.786 49.957 C 335.654 49.541,335.198 49.200,334.773 49.200 C 334.267 49.200,334.000 48.924,334.000 48.400 C 334.000 47.733,333.733 47.600,332.400 47.600 C 331.067 47.600,330.800 47.467,330.800 46.800 C 330.800 46.276,330.533 46.000,330.028 46.000 C 329.532 46.000,329.210 45.678,329.128 45.100 C 329.042 44.499,328.767 44.239,328.300 44.318 C 327.815 44.399,327.600 44.172,327.600 43.580 C 327.600 43.066,327.286 42.643,326.813 42.519 C 326.381 42.406,325.918 41.973,325.786 41.557 C 325.654 41.141,325.219 40.800,324.820 40.800 C 324.420 40.800,323.999 40.440,323.884 40.000 C 323.724 39.387,323.338 39.200,322.237 39.200 C 321.067 39.200,320.800 39.052,320.800 38.400 C 320.800 37.867,320.533 37.600,320.000 37.600 C 319.467 37.600,319.200 37.333,319.200 36.800 C 319.200 36.136,318.933 36.000,317.628 36.000 C 316.302 36.000,316.035 35.859,315.927 35.100 C 315.831 34.436,315.562 34.225,314.899 34.295 C 314.173 34.372,314.000 34.190,314.000 33.352 C 314.000 32.584,313.841 32.376,313.387 32.550 C 312.980 32.706,312.648 32.452,312.397 31.792 C 312.097 31.004,311.740 30.800,310.657 30.800 C 309.630 30.800,309.242 30.603,309.084 30.000 C 308.924 29.387,308.538 29.200,307.437 29.200 C 306.267 29.200,306.000 29.052,306.000 28.400 C 306.000 27.813,305.733 27.600,305.000 27.600 C 304.267 27.600,304.000 27.387,304.000 26.800 C 304.000 26.133,303.733 26.000,302.400 26.000 C 301.085 26.000,300.800 25.862,300.800 25.227 C 300.800 24.525,299.796 23.880,298.941 24.034 C 298.093 24.186,297.600 23.953,297.600 23.400 C 297.600 23.070,297.420 22.778,297.200 22.750 C 296.980 22.723,296.440 22.655,296.000 22.600 C 295.560 22.545,294.930 22.478,294.600 22.450 C 294.270 22.422,294.000 22.040,294.000 21.600 C 294.000 20.933,293.733 20.800,292.400 20.800 C 291.067 20.800,290.800 20.667,290.800 20.000 C 290.800 19.333,290.533 19.200,289.200 19.200 C 287.867 19.200,287.600 19.067,287.600 18.400 C 287.600 17.719,287.333 17.600,285.800 17.600 C 284.267 17.600,284.000 17.481,284.000 16.800 C 284.000 16.133,283.733 16.000,282.400 16.000 C 281.085 16.000,280.800 15.862,280.800 15.227 C 280.800 14.370,279.670 13.845,278.659 14.233 C 278.207 14.406,277.898 14.193,277.657 13.542 C 277.391 12.825,276.985 12.587,275.954 12.547 C 275.209 12.518,274.105 12.473,273.500 12.447 C 272.682 12.412,272.400 12.195,272.400 11.600 C 272.400 10.937,272.133 10.800,270.847 10.800 C 269.630 10.800,269.248 10.627,269.084 10.000 C 268.904 9.310,268.538 9.200,266.437 9.200 C 264.267 9.200,264.000 9.112,264.000 8.400 C 264.000 7.667,263.733 7.600,260.800 7.600 C 257.867 7.600,257.600 7.533,257.600 6.800 C 257.600 6.082,257.333 6.000,255.000 6.000 C 252.687 6.000,252.400 5.914,252.400 5.218 C 252.400 4.434,250.954 3.953,249.000 4.088 C 246.958 4.228,245.600 3.970,245.600 3.443 C 245.600 2.646,245.024 2.533,241.152 2.568 C 238.071 2.597,237.666 2.515,237.352 1.800 C 237.028 1.064,236.559 0.991,231.500 0.889 C 228.283 0.824,226.000 0.616,226.000 0.389 C 226.000 0.141,216.563 0.000,200.000 0.000 C 182.933 0.000,174.000 0.137,174.000 0.400 M262.600 70.000 C 262.387 70.671,261.995 70.800,260.163 70.800 C 258.207 70.800,257.941 70.903,257.603 71.792 C 257.352 72.452,257.020 72.706,256.613 72.550 C 256.160 72.376,256.000 72.584,256.000 73.345 C 256.000 74.063,255.831 74.310,255.440 74.160 C 254.606 73.840,254.222 74.746,254.154 77.200 C 254.073 80.075,254.289 80.800,255.227 80.800 C 255.733 80.800,256.000 81.076,256.000 81.600 C 256.000 82.333,256.267 82.400,259.200 82.400 C 262.133 82.400,262.400 82.333,262.400 81.600 C 262.400 80.890,262.667 80.800,264.773 80.800 C 266.795 80.800,267.184 80.682,267.400 80.000 C 267.540 79.560,268.002 79.200,268.427 79.200 C 268.933 79.200,269.200 79.476,269.200 80.000 C 269.200 80.718,269.467 80.800,271.818 80.800 C 274.089 80.800,274.420 80.893,274.318 81.500 C 274.239 81.967,274.499 82.242,275.100 82.328 C 275.678 82.410,276.000 82.732,276.000 83.228 C 276.000 83.733,276.276 84.000,276.800 84.000 C 277.464 84.000,277.600 84.267,277.600 85.573 C 277.600 86.795,277.779 87.203,278.400 87.400 C 279.021 87.597,279.200 88.005,279.200 89.227 C 279.200 90.533,279.336 90.800,280.000 90.800 C 280.533 90.800,280.800 91.067,280.800 91.600 C 280.800 92.337,281.067 92.400,284.200 92.400 C 287.333 92.400,287.600 92.337,287.600 91.600 C 287.600 90.889,287.867 90.800,290.000 90.800 C 292.133 90.800,292.400 90.711,292.400 90.000 C 292.400 89.476,292.667 89.200,293.173 89.200 C 293.598 89.200,294.060 89.560,294.200 90.000 C 294.416 90.682,294.805 90.800,296.827 90.800 C 298.933 90.800,299.200 90.890,299.200 91.600 C 299.200 92.133,299.467 92.400,300.000 92.400 C 300.533 92.400,300.800 92.667,300.800 93.200 C 300.800 93.781,301.067 94.000,301.773 94.000 C 302.671 94.000,302.735 94.128,302.596 95.643 C 302.471 97.006,302.578 97.322,303.223 97.490 C 303.962 97.683,304.064 97.935,304.159 99.800 C 304.185 100.309,304.527 100.646,305.100 100.728 C 305.678 100.810,306.000 101.132,306.000 101.628 C 306.000 102.326,306.305 102.400,309.200 102.400 C 312.133 102.400,312.400 102.333,312.400 101.600 C 312.400 101.067,312.667 100.800,313.200 100.800 C 313.946 100.800,314.000 100.533,314.000 96.827 C 314.000 93.205,313.929 92.831,313.200 92.600 C 312.579 92.403,312.400 91.995,312.400 90.773 C 312.400 89.467,312.264 89.200,311.600 89.200 C 311.067 89.200,310.800 88.933,310.800 88.400 C 310.800 87.867,310.533 87.600,310.000 87.600 C 309.467 87.600,309.200 87.333,309.200 86.800 C 309.200 86.276,308.933 86.000,308.428 86.000 C 307.932 86.000,307.610 85.678,307.528 85.100 C 307.458 84.605,307.130 84.200,306.800 84.200 C 306.470 84.200,306.102 83.840,305.982 83.400 C 305.810 82.772,305.424 82.600,304.182 82.600 C 302.846 82.600,302.580 82.460,302.472 81.700 C 302.356 80.885,302.126 80.800,300.019 80.800 C 298.002 80.800,297.664 80.690,297.476 79.971 C 297.271 79.184,297.007 79.145,292.330 79.203 C 285.845 79.283,286.124 79.317,285.884 78.400 C 285.759 77.921,285.338 77.600,284.837 77.600 C 284.267 77.600,284.000 77.345,284.000 76.800 C 284.000 76.276,283.733 76.000,283.228 76.000 C 282.732 76.000,282.410 75.678,282.328 75.100 C 282.242 74.499,281.967 74.239,281.500 74.318 C 280.996 74.402,280.800 74.168,280.800 73.479 C 280.800 72.686,280.613 72.536,279.700 72.596 C 278.145 72.698,277.600 72.428,277.600 71.557 C 277.600 70.929,277.300 70.800,275.847 70.800 C 274.430 70.800,274.053 70.647,273.884 70.000 C 273.688 69.250,273.338 69.200,268.264 69.200 C 263.205 69.200,262.837 69.252,262.600 70.000 M196.499 72.700 C 196.224 72.792,196.000 73.102,196.000 73.391 C 196.000 73.991,194.908 74.514,194.360 74.175 C 193.916 73.901,192.400 74.337,192.455 74.724 C 192.580 75.596,192.309 76.000,191.600 76.000 C 191.067 76.000,190.800 76.267,190.800 76.800 C 190.800 77.339,190.533 77.600,189.983 77.600 C 189.221 77.600,189.174 77.807,189.283 80.700 L 189.400 83.800 190.900 83.924 C 191.725 83.992,192.423 84.217,192.450 84.424 C 192.478 84.631,192.523 85.025,192.550 85.300 C 192.670 86.503,197.005 86.045,197.404 84.786 C 197.590 84.200,198.014 84.000,199.064 84.000 C 200.138 84.000,200.525 83.809,200.684 83.200 C 200.866 82.505,201.230 82.400,203.447 82.400 C 205.733 82.400,206.000 82.484,206.000 83.200 C 206.000 83.867,206.267 84.000,207.600 84.000 C 208.915 84.000,209.200 84.138,209.200 84.773 C 209.200 85.198,209.560 85.660,210.000 85.800 C 210.440 85.940,210.800 86.316,210.800 86.637 C 210.800 86.957,211.261 87.395,211.824 87.609 C 212.393 87.826,212.731 88.188,212.584 88.426 C 212.438 88.662,212.696 88.952,213.160 89.074 C 213.622 89.194,214.031 89.587,214.068 89.947 C 214.198 91.189,214.287 92.203,214.343 93.100 C 214.382 93.714,214.654 94.000,215.200 94.000 C 215.718 94.000,216.000 94.267,216.000 94.757 C 216.000 95.641,216.747 96.000,218.583 96.000 C 221.034 96.000,222.400 95.553,222.400 94.750 C 222.400 94.139,222.703 94.000,224.037 94.000 C 225.338 94.000,225.718 93.836,225.884 93.200 C 226.063 92.514,226.430 92.400,228.447 92.400 C 230.533 92.400,230.800 92.491,230.800 93.200 C 230.800 93.867,231.067 94.000,232.410 94.000 C 233.759 94.000,234.081 94.162,234.400 95.000 C 234.609 95.550,235.034 96.000,235.343 96.000 C 235.653 96.000,236.001 96.360,236.116 96.800 C 236.231 97.240,236.612 97.600,236.963 97.600 C 237.333 97.600,237.600 97.935,237.600 98.400 C 237.600 98.933,237.867 99.200,238.400 99.200 C 239.111 99.200,239.200 99.467,239.200 101.600 C 239.200 103.733,239.289 104.000,240.000 104.000 C 240.531 104.000,240.800 104.267,240.800 104.792 C 240.800 106.420,247.297 106.524,247.528 104.900 C 247.610 104.322,247.932 104.000,248.428 104.000 C 249.641 104.000,249.614 94.833,248.400 94.516 C 247.957 94.400,247.600 93.970,247.600 93.553 C 247.600 92.878,247.173 92.615,246.300 92.753 C 246.135 92.779,246.000 92.275,246.000 91.633 C 246.000 89.945,245.619 89.200,244.757 89.200 C 244.267 89.200,244.000 88.918,244.000 88.400 C 244.000 87.867,243.733 87.600,243.200 87.600 C 242.667 87.600,242.400 87.333,242.400 86.800 C 242.400 86.133,242.133 86.000,240.800 86.000 C 239.467 86.000,239.200 85.867,239.200 85.200 C 239.200 84.731,238.911 84.372,238.500 84.332 C 238.115 84.294,237.530 84.223,237.200 84.174 C 236.870 84.125,236.375 84.066,236.100 84.043 C 235.825 84.019,235.600 83.749,235.600 83.443 C 235.600 82.588,235.042 82.518,228.658 82.576 C 222.812 82.629,222.710 82.615,222.368 81.715 C 222.176 81.212,221.745 80.800,221.410 80.800 C 221.067 80.800,220.800 80.450,220.800 80.000 C 220.800 79.467,220.533 79.200,220.000 79.200 C 219.467 79.200,219.200 78.933,219.200 78.400 C 219.200 77.883,218.933 77.600,218.447 77.600 C 218.030 77.600,217.600 77.243,217.484 76.800 C 217.319 76.167,216.938 76.000,215.665 76.000 C 214.301 76.000,214.036 75.863,213.928 75.100 C 213.846 74.527,213.509 74.185,213.000 74.159 C 211.114 74.063,210.852 73.964,210.724 73.300 C 210.596 72.633,198.259 72.114,196.499 72.700 M174.000 160.000 L 174.000 166.000 125.800 166.000 L 77.600 166.000 77.600 160.000 L 77.600 154.000 125.800 154.000 L 174.000 154.000 174.000 160.000 M174.000 282.600 L 174.000 389.200 170.827 389.200 C 168.005 389.200,167.626 389.111,167.400 388.400 C 167.184 387.718,166.795 387.600,164.773 387.600 L 162.400 387.600 162.400 287.600 L 162.400 187.600 158.363 187.600 C 154.662 187.600,154.308 187.667,154.116 188.400 C 154.001 188.840,153.670 189.200,153.380 189.200 C 152.879 189.200,152.303 190.331,152.434 191.059 C 152.467 191.246,152.473 234.817,152.447 287.882 L 152.400 384.364 150.100 384.226 C 148.835 384.151,147.407 384.069,146.927 384.044 C 146.442 384.020,145.945 383.657,145.809 383.227 C 145.618 382.627,145.233 382.471,144.082 382.527 L 142.600 382.600 142.499 286.062 C 142.399 189.937,142.395 189.524,141.599 189.316 C 141.157 189.200,140.800 188.770,140.800 188.353 C 140.800 187.664,140.447 187.600,136.634 187.600 L 132.469 187.600 132.472 189.300 C 132.688 305.612,132.350 379.200,131.600 379.200 C 131.067 379.200,130.800 378.933,130.800 378.400 C 130.800 377.737,130.533 377.600,129.247 377.600 C 128.030 377.600,127.648 377.427,127.484 376.800 C 127.318 376.164,126.938 376.000,125.637 376.000 C 124.289 376.000,124.000 375.864,124.000 375.232 C 124.000 374.429,122.021 373.693,121.210 374.194 C 120.931 374.367,120.800 344.942,120.800 281.824 C 120.800 189.467,120.798 189.200,120.000 189.200 C 119.467 189.200,119.200 188.933,119.200 188.400 C 119.200 187.651,118.933 187.600,115.000 187.600 L 110.800 187.600 110.800 278.400 C 110.800 368.933,110.798 369.200,110.000 369.200 C 109.467 369.200,109.200 368.933,109.200 368.400 C 109.200 367.883,108.933 367.600,108.447 367.600 C 108.030 367.600,107.600 367.243,107.484 366.800 C 107.318 366.164,106.938 366.000,105.637 366.000 C 104.267 366.000,104.000 365.870,104.000 365.200 C 104.000 364.434,103.796 364.344,101.820 364.241 C 101.384 364.218,100.943 363.828,100.820 363.357 C 100.685 362.841,100.330 362.556,99.900 362.622 C 99.235 362.724,99.200 358.372,99.200 275.965 C 99.200 189.467,99.198 189.200,98.400 189.200 C 97.862 189.200,97.600 188.933,97.600 188.386 C 97.600 187.613,97.394 187.578,93.500 187.686 L 89.400 187.800 89.299 271.077 L 89.198 354.354 87.701 354.259 C 86.691 354.194,86.163 353.952,86.079 353.516 C 85.941 352.798,84.930 352.272,84.364 352.622 C 84.164 352.746,84.000 352.387,84.000 351.824 C 84.000 351.067,83.792 350.800,83.200 350.800 C 82.667 350.800,82.400 350.533,82.400 350.000 C 82.400 349.333,82.133 349.200,80.800 349.200 C 79.467 349.200,79.200 349.067,79.200 348.400 C 79.200 347.867,78.933 347.600,78.400 347.600 C 77.602 347.600,77.600 347.333,77.600 261.800 L 77.600 176.000 125.800 176.000 L 174.000 176.000 174.000 282.600 M242.707 178.400 C 243.108 179.042,243.640 179.200,245.403 179.200 C 247.315 179.200,247.600 179.301,247.600 179.981 C 247.600 180.659,247.928 180.777,250.100 180.881 C 252.223 180.982,252.582 181.105,252.482 181.700 C 252.401 182.185,252.628 182.400,253.220 182.400 C 253.738 182.400,254.157 182.715,254.284 183.200 C 254.448 183.827,254.830 184.000,256.047 184.000 C 257.437 184.000,257.600 184.105,257.600 185.000 C 257.600 185.733,257.813 186.000,258.400 186.000 C 258.933 186.000,259.200 186.267,259.200 186.800 C 259.200 187.333,259.467 187.600,260.000 187.600 C 260.450 187.600,260.800 187.867,260.800 188.210 C 260.800 188.545,261.247 188.990,261.792 189.197 C 262.452 189.448,262.706 189.780,262.550 190.187 C 262.375 190.643,262.587 190.800,263.375 190.800 C 264.163 190.800,264.405 190.980,264.318 191.500 C 264.239 191.967,264.499 192.242,265.100 192.328 C 265.859 192.436,266.000 192.702,266.000 194.028 C 266.000 195.333,266.136 195.600,266.800 195.600 C 267.387 195.600,267.600 195.867,267.600 196.600 C 267.600 197.333,267.813 197.600,268.400 197.600 C 269.067 197.600,269.200 197.867,269.200 199.200 C 269.200 200.520,269.337 200.800,269.981 200.800 C 270.659 200.800,270.778 201.128,270.881 203.283 C 270.981 205.373,271.127 205.801,271.800 205.983 C 273.023 206.314,272.933 208.950,271.693 209.128 C 271.015 209.225,270.800 209.056,270.800 208.428 C 270.800 207.867,270.542 207.600,270.000 207.600 C 269.467 207.600,269.200 207.333,269.200 206.800 C 269.200 206.276,268.933 206.000,268.428 206.000 C 267.932 206.000,267.610 205.678,267.528 205.100 C 267.447 204.530,267.143 204.220,266.700 204.256 C 266.274 204.289,266.000 204.032,266.000 203.598 C 266.000 202.848,264.982 202.240,264.364 202.622 C 264.164 202.746,264.000 202.387,264.000 201.824 C 264.000 201.067,263.792 200.800,263.200 200.800 C 262.667 200.800,262.400 200.533,262.400 200.000 C 262.400 199.467,262.133 199.200,261.600 199.200 C 261.067 199.200,260.800 198.933,260.800 198.400 C 260.800 197.867,260.533 197.600,260.000 197.600 C 259.467 197.600,259.200 197.333,259.200 196.800 C 259.200 196.276,258.933 196.000,258.428 196.000 C 257.932 196.000,257.610 195.678,257.528 195.100 C 257.447 194.530,257.143 194.220,256.700 194.256 C 256.274 194.289,256.000 194.032,256.000 193.598 C 256.000 192.848,254.982 192.240,254.364 192.622 C 254.164 192.746,254.000 192.387,254.000 191.824 C 254.000 191.067,253.792 190.800,253.200 190.800 C 252.667 190.800,252.400 190.533,252.400 190.000 C 252.400 189.467,252.133 189.200,251.600 189.200 C 251.067 189.200,250.800 188.933,250.800 188.400 C 250.800 187.867,250.533 187.600,250.000 187.600 C 249.467 187.600,249.200 187.333,249.200 186.800 C 249.200 186.276,248.933 186.000,248.428 186.000 C 247.932 186.000,247.610 185.678,247.528 185.100 C 247.447 184.530,247.143 184.220,246.700 184.256 C 246.274 184.289,246.000 184.032,246.000 183.598 C 246.000 182.848,244.982 182.240,244.364 182.622 C 244.164 182.746,244.000 182.387,244.000 181.824 C 244.000 181.067,243.792 180.800,243.200 180.800 C 242.667 180.800,242.400 180.533,242.400 180.000 C 242.400 179.467,242.133 179.200,241.600 179.200 C 241.067 179.200,240.800 178.933,240.800 178.400 C 240.800 177.903,241.067 177.600,241.504 177.600 C 241.891 177.600,242.432 177.960,242.707 178.400 M316.000 178.372 C 316.000 178.868,315.678 179.190,315.100 179.272 C 314.499 179.358,314.239 179.633,314.318 180.100 C 314.405 180.620,314.163 180.800,313.375 180.800 C 312.638 180.800,312.379 180.968,312.526 181.351 C 312.799 182.063,312.063 182.799,311.351 182.526 C 310.968 182.379,310.800 182.638,310.800 183.375 C 310.800 184.163,310.620 184.405,310.100 184.318 C 309.633 184.239,309.358 184.499,309.272 185.100 C 309.190 185.678,308.868 186.000,308.372 186.000 C 307.867 186.000,307.600 186.276,307.600 186.800 C 307.600 187.333,307.333 187.600,306.800 187.600 C 306.276 187.600,306.000 187.867,306.000 188.372 C 306.000 188.868,305.678 189.190,305.100 189.272 C 304.499 189.358,304.239 189.633,304.318 190.100 C 304.405 190.620,304.163 190.800,303.375 190.800 C 302.638 190.800,302.379 190.968,302.526 191.351 C 302.799 192.063,302.063 192.799,301.351 192.526 C 300.968 192.379,300.800 192.638,300.800 193.375 C 300.800 194.163,300.620 194.405,300.100 194.318 C 299.633 194.239,299.358 194.499,299.272 195.100 C 299.190 195.678,298.868 196.000,298.372 196.000 C 297.867 196.000,297.600 196.276,297.600 196.800 C 297.600 197.333,297.333 197.600,296.800 197.600 C 296.276 197.600,296.000 197.867,296.000 198.372 C 296.000 198.868,295.678 199.190,295.100 199.272 C 294.499 199.358,294.239 199.633,294.318 200.100 C 294.405 200.620,294.163 200.800,293.375 200.800 C 292.638 200.800,292.379 200.968,292.526 201.351 C 292.799 202.063,292.063 202.799,291.351 202.526 C 290.968 202.379,290.800 202.638,290.800 203.375 C 290.800 204.163,290.620 204.405,290.100 204.318 C 289.633 204.239,289.358 204.499,289.272 205.100 C 289.190 205.678,288.868 206.000,288.372 206.000 C 287.867 206.000,287.600 206.276,287.600 206.800 C 287.600 207.333,287.333 207.600,286.800 207.600 C 286.283 207.600,286.000 207.867,286.000 208.353 C 286.000 208.839,285.645 209.175,285.000 209.298 C 283.563 209.573,283.473 206.421,284.900 205.795 C 285.659 205.462,285.819 205.040,285.920 203.100 C 286.023 201.127,286.151 200.800,286.820 200.800 C 287.463 200.800,287.600 200.520,287.600 199.200 C 287.600 197.867,287.733 197.600,288.400 197.600 C 288.924 197.600,289.200 197.333,289.200 196.827 C 289.200 196.402,289.560 195.940,290.000 195.800 C 290.621 195.603,290.800 195.195,290.800 193.973 C 290.800 192.667,290.936 192.400,291.600 192.400 C 292.133 192.400,292.400 192.133,292.400 191.600 C 292.400 191.067,292.667 190.800,293.200 190.800 C 293.733 190.800,294.000 190.533,294.000 190.000 C 294.000 189.455,294.267 189.200,294.837 189.200 C 295.325 189.200,295.758 188.881,295.874 188.437 C 295.984 188.017,296.417 187.584,296.837 187.474 C 297.257 187.365,297.600 187.009,297.600 186.684 C 297.600 186.359,297.960 185.999,298.400 185.884 C 298.879 185.759,299.200 185.338,299.200 184.837 C 299.200 184.127,299.443 184.000,300.800 184.000 C 302.133 184.000,302.400 183.867,302.400 183.200 C 302.400 182.533,302.667 182.400,304.000 182.400 C 305.333 182.400,305.600 182.267,305.600 181.600 C 305.600 180.930,305.867 180.800,307.237 180.800 C 308.538 180.800,308.918 180.636,309.084 180.000 C 309.261 179.323,309.630 179.200,311.484 179.200 C 313.338 179.200,313.707 179.077,313.884 178.400 C 314.170 177.307,316.000 177.283,316.000 178.372 M250.800 211.600 C 250.800 212.318,251.067 212.400,253.400 212.400 C 255.733 212.400,256.000 212.482,256.000 213.200 C 256.000 213.867,256.267 214.000,257.600 214.000 C 258.903 214.000,259.200 214.140,259.200 214.757 C 259.200 215.606,259.944 216.000,261.548 216.000 C 262.343 216.000,262.646 216.212,262.690 216.800 C 262.750 217.591,262.504 217.600,241.775 217.600 C 221.284 217.600,220.800 217.582,220.800 216.824 C 220.800 216.216,221.125 216.021,222.300 215.924 C 223.505 215.824,223.825 215.623,223.928 214.900 C 224.038 214.121,224.295 214.000,225.828 214.000 C 227.333 214.000,227.600 213.880,227.600 213.200 C 227.600 212.489,227.867 212.400,230.000 212.400 C 232.133 212.400,232.400 212.311,232.400 211.600 C 232.400 210.823,232.667 210.800,241.600 210.800 C 250.533 210.800,250.800 210.823,250.800 211.600 M324.284 211.600 C 324.463 212.286,324.830 212.400,326.847 212.400 C 328.933 212.400,329.200 212.491,329.200 213.200 C 329.200 213.883,329.467 214.000,331.024 214.000 C 332.189 214.000,332.754 214.151,332.589 214.418 C 332.139 215.147,333.249 216.000,334.649 216.000 C 335.733 216.000,336.000 216.158,336.000 216.800 C 336.000 217.590,335.733 217.600,315.000 217.600 C 294.485 217.600,294.000 217.582,294.000 216.824 C 294.000 216.216,294.325 216.021,295.500 215.924 C 296.603 215.833,297.105 215.562,297.395 214.900 C 297.704 214.196,298.118 214.000,299.295 214.000 C 300.533 214.000,300.800 213.858,300.800 213.200 C 300.800 212.489,301.067 212.400,303.200 212.400 C 305.333 212.400,305.600 212.311,305.600 211.600 C 305.600 210.823,305.867 210.800,314.837 210.800 C 323.738 210.800,324.083 210.829,324.284 211.600 M67.600 314.200 L 67.600 320.800 59.200 320.800 L 50.800 320.800 50.800 319.200 C 50.800 317.867,50.667 317.600,50.000 317.600 C 49.467 317.600,49.200 317.333,49.200 316.800 C 49.200 316.276,48.933 316.000,48.428 316.000 C 47.932 316.000,47.610 315.678,47.528 315.100 C 47.450 314.557,47.139 314.219,46.743 314.248 C 46.273 314.283,46.013 313.843,45.832 312.708 C 45.653 311.591,45.343 311.058,44.789 310.913 C 44.355 310.800,44.000 310.368,44.000 309.953 C 44.000 309.467,43.717 309.200,43.200 309.200 C 42.667 309.200,42.400 308.933,42.400 308.400 C 42.400 307.617,42.667 307.600,55.000 307.600 L 67.600 307.600 67.600 314.200 M264.400 326.800 L 264.400 346.000 253.627 346.000 C 243.205 346.000,242.846 346.026,242.600 346.800 C 242.460 347.240,241.998 347.600,241.573 347.600 C 240.873 347.600,240.800 347.904,240.800 350.800 C 240.800 353.966,240.811 354.000,241.824 354.000 C 242.387 354.000,242.746 354.164,242.622 354.364 C 241.690 355.872,242.552 356.000,253.643 356.000 L 264.400 356.000 264.400 363.397 L 264.400 370.794 238.712 370.897 C 213.480 370.998,213.016 371.014,212.612 371.800 C 212.385 372.240,211.930 372.600,211.600 372.600 C 210.446 372.600,210.528 379.106,211.684 379.270 C 212.299 379.357,212.561 379.630,212.482 380.100 C 212.372 380.760,213.710 380.800,235.945 380.800 C 258.947 380.800,259.520 380.819,259.326 381.563 C 259.086 382.479,258.261 382.736,256.091 382.572 C 254.560 382.456,253.645 383.102,254.160 383.936 C 254.250 384.081,253.396 384.185,252.262 384.166 C 248.868 384.110,247.600 384.406,247.600 385.252 C 247.600 385.921,247.258 386.000,244.363 386.000 C 241.462 386.000,241.103 386.083,240.916 386.800 C 240.725 387.531,240.370 387.600,236.780 387.600 C 233.205 387.600,232.831 387.672,232.600 388.400 C 232.362 389.150,231.995 389.200,226.736 389.200 C 221.462 389.200,221.113 389.248,220.916 390.000 C 220.711 390.785,220.370 390.800,202.353 390.800 L 184.000 390.800 184.000 385.800 L 184.000 380.800 194.757 380.800 C 202.996 380.800,205.559 380.683,205.703 380.300 C 206.106 379.235,206.035 372.799,205.621 372.750 C 205.389 372.723,204.975 372.678,204.700 372.650 C 204.425 372.623,204.142 372.195,204.072 371.700 L 203.944 370.800 193.972 370.800 L 184.000 370.800 184.000 363.400 L 184.000 356.000 209.551 356.000 C 230.974 356.000,235.177 355.909,235.567 355.440 C 236.509 354.305,235.952 347.822,234.900 347.672 C 234.322 347.590,234.000 347.268,234.000 346.772 C 234.000 346.018,233.433 346.000,209.000 346.000 L 184.000 346.000 184.000 338.404 L 184.000 330.809 200.700 330.704 L 217.400 330.600 217.514 326.700 C 217.627 322.878,217.539 322.582,216.340 322.739 C 216.197 322.758,215.969 322.329,215.832 321.787 L 215.585 320.800 199.792 320.800 L 184.000 320.800 184.000 314.200 L 184.000 307.600 224.200 307.600 L 264.400 307.600 264.400 326.800 M357.600 308.400 C 357.600 308.933,357.333 309.200,356.800 309.200 C 356.267 309.200,356.000 309.467,356.000 310.000 C 356.000 310.533,355.733 310.800,355.200 310.800 C 354.727 310.800,354.376 311.086,354.341 311.500 C 354.308 311.885,354.245 312.470,354.200 312.800 C 354.155 313.130,354.092 313.619,354.059 313.887 C 354.027 314.156,353.753 314.280,353.452 314.164 C 352.864 313.939,352.249 315.032,352.622 315.636 C 352.746 315.836,352.387 316.000,351.824 316.000 C 351.067 316.000,350.800 316.208,350.800 316.800 C 350.800 317.333,350.533 317.600,350.000 317.600 C 349.333 317.600,349.200 317.867,349.200 319.200 C 349.200 320.533,349.067 320.800,348.400 320.800 C 347.837 320.800,347.600 321.067,347.600 321.700 L 347.599 322.600 335.500 322.537 C 323.462 322.475,322.196 322.602,322.668 323.832 C 322.826 324.245,322.623 324.377,321.944 324.303 C 321.028 324.203,320.997 324.298,320.884 327.500 C 320.768 330.779,320.774 330.800,321.761 330.800 C 322.539 330.800,322.721 330.973,322.600 331.600 C 322.451 332.375,322.670 332.401,329.723 332.432 C 333.725 332.449,336.775 332.554,336.500 332.665 C 336.225 332.776,336.000 333.212,336.000 333.633 C 336.000 334.133,335.722 334.400,335.200 334.400 C 334.667 334.400,334.400 334.667,334.400 335.200 C 334.400 335.724,334.133 336.000,333.627 336.000 C 333.202 336.000,332.740 336.360,332.600 336.800 C 332.460 337.240,332.071 337.600,331.736 337.600 C 331.400 337.600,331.031 337.960,330.916 338.400 C 330.800 338.843,330.370 339.200,329.953 339.200 C 329.467 339.200,329.200 339.483,329.200 340.000 C 329.200 340.524,328.933 340.800,328.428 340.800 C 327.932 340.800,327.610 341.122,327.528 341.700 C 327.442 342.301,327.167 342.561,326.700 342.482 C 326.183 342.396,326.000 342.636,326.000 343.406 C 326.000 344.027,325.832 344.343,325.582 344.189 C 325.003 343.831,323.918 344.810,324.169 345.464 C 324.339 345.906,321.584 346.000,308.387 346.000 L 292.400 346.000 292.400 339.200 L 292.400 332.400 303.200 332.400 C 313.733 332.400,314.000 332.380,314.000 331.600 C 314.000 331.013,314.267 330.800,315.000 330.800 C 315.982 330.800,316.000 330.744,316.000 327.643 C 316.000 324.513,315.519 323.508,314.364 324.222 C 314.164 324.346,314.000 323.991,314.000 323.433 C 314.000 322.546,313.836 322.424,312.700 322.460 C 311.985 322.483,307.125 322.479,301.900 322.451 L 292.400 322.400 292.400 315.000 L 292.400 307.600 325.000 307.600 C 357.333 307.600,357.600 307.607,357.600 308.400 M225.928 321.695 C 225.844 322.291,225.526 322.600,225.000 322.600 C 224.425 322.600,224.213 322.851,224.247 323.491 C 224.273 323.981,224.154 324.295,223.983 324.190 C 223.069 323.625,222.570 324.525,222.584 326.710 C 222.599 328.783,222.686 329.012,223.511 329.129 C 224.104 329.213,224.383 329.493,224.311 329.929 C 224.209 330.547,225.581 330.608,241.700 330.704 L 259.200 330.808 259.200 326.640 C 259.200 322.910,259.127 322.482,258.506 322.573 C 258.124 322.629,257.623 322.298,257.394 321.837 C 256.983 321.012,256.755 320.999,241.517 320.895 L 226.057 320.791 225.928 321.695 M67.568 333.900 C 67.551 335.605,67.446 336.775,67.335 336.500 C 67.224 336.225,66.788 336.000,66.367 336.000 C 65.867 336.000,65.600 335.722,65.600 335.200 C 65.600 334.667,65.333 334.400,64.800 334.400 C 64.276 334.400,64.000 334.133,64.000 333.627 C 64.000 333.202,63.659 332.746,63.243 332.614 C 61.038 331.914,62.017 330.800,64.837 330.800 L 67.600 330.800 67.568 333.900 M309.200 356.800 C 309.200 357.467,308.933 357.600,307.600 357.600 C 306.267 357.600,306.000 357.733,306.000 358.400 C 306.000 358.924,305.733 359.200,305.227 359.200 C 304.802 359.200,304.340 359.560,304.200 360.000 C 304.009 360.601,303.595 360.800,302.536 360.800 C 301.462 360.800,301.075 360.991,300.916 361.600 C 300.725 362.329,300.313 362.576,299.500 362.447 C 299.335 362.421,299.200 362.760,299.200 363.200 C 299.200 363.640,298.975 364.021,298.700 364.046 C 298.425 364.072,298.020 364.134,297.800 364.185 C 297.580 364.236,297.085 364.306,296.700 364.339 C 296.287 364.375,296.000 364.728,296.000 365.200 C 296.000 365.864,295.733 366.000,294.433 366.000 C 293.554 366.000,292.778 366.219,292.665 366.500 C 292.554 366.775,292.449 364.525,292.432 361.500 L 292.400 356.000 300.800 356.000 C 308.933 356.000,309.200 356.025,309.200 356.800 " stroke="none" fill="#000000" fill-rule="evenodd"></path><path id="path1" d="M227.700 82.676 C 228.085 82.776,228.715 82.776,229.100 82.676 C 229.485 82.575,229.170 82.493,228.400 82.493 C 227.630 82.493,227.315 82.575,227.700 82.676 M264.191 262.600 C 264.191 281.080,264.240 288.582,264.300 279.270 C 264.360 269.959,264.360 254.839,264.300 245.670 C 264.240 236.502,264.191 244.120,264.191 262.600 M282.400 305.680 C 282.290 342.574,282.336 372.625,282.501 372.459 C 282.667 372.293,282.757 342.107,282.701 305.379 L 282.600 238.600 282.400 305.680 M264.185 326.800 C 264.185 337.470,264.237 341.835,264.300 336.500 C 264.363 331.165,264.363 322.435,264.300 317.100 C 264.237 311.765,264.185 316.130,264.185 326.800 M264.167 363.400 C 264.167 367.580,264.226 369.236,264.298 367.079 C 264.371 364.923,264.370 361.503,264.298 359.479 C 264.225 357.456,264.166 359.220,264.167 363.400 " stroke="none" fill="#000000" fill-rule="evenodd"></path><path id="path2" d="M227.700 82.676 C 228.085 82.776,228.715 82.776,229.100 82.676 C 229.485 82.575,229.170 82.493,228.400 82.493 C 227.630 82.493,227.315 82.575,227.700 82.676 M264.191 262.600 C 264.191 281.080,264.240 288.582,264.300 279.270 C 264.360 269.959,264.360 254.839,264.300 245.670 C 264.240 236.502,264.191 244.120,264.191 262.600 M282.400 305.680 C 282.290 342.574,282.336 372.625,282.501 372.459 C 282.667 372.293,282.757 342.107,282.701 305.379 L 282.600 238.600 282.400 305.680 M264.185 326.800 C 264.185 337.470,264.237 341.835,264.300 336.500 C 264.363 331.165,264.363 322.435,264.300 317.100 C 264.237 311.765,264.185 316.130,264.185 326.800 M264.167 363.400 C 264.167 367.580,264.226 369.236,264.298 367.079 C 264.371 364.923,264.370 361.503,264.298 359.479 C 264.225 357.456,264.166 359.220,264.167 363.400 " stroke="none" fill="#000000" fill-rule="evenodd"></path><path id="path3" d="M227.700 82.676 C 228.085 82.776,228.715 82.776,229.100 82.676 C 229.485 82.575,229.170 82.493,228.400 82.493 C 227.630 82.493,227.315 82.575,227.700 82.676 M264.191 262.600 C 264.191 281.080,264.240 288.582,264.300 279.270 C 264.360 269.959,264.360 254.839,264.300 245.670 C 264.240 236.502,264.191 244.120,264.191 262.600 M282.400 305.680 C 282.290 342.574,282.336 372.625,282.501 372.459 C 282.667 372.293,282.757 342.107,282.701 305.379 L 282.600 238.600 282.400 305.680 M264.185 326.800 C 264.185 337.470,264.237 341.835,264.300 336.500 C 264.363 331.165,264.363 322.435,264.300 317.100 C 264.237 311.765,264.185 316.130,264.185 326.800 M264.167 363.400 C 264.167 367.580,264.226 369.236,264.298 367.079 C 264.371 364.923,264.370 361.503,264.298 359.479 C 264.225 357.456,264.166 359.220,264.167 363.400 " stroke="none" fill="#000000" fill-rule="evenodd"></path><path id="path4" d="M227.700 82.676 C 228.085 82.776,228.715 82.776,229.100 82.676 C 229.485 82.575,229.170 82.493,228.400 82.493 C 227.630 82.493,227.315 82.575,227.700 82.676 M264.191 262.600 C 264.191 281.080,264.240 288.582,264.300 279.270 C 264.360 269.959,264.360 254.839,264.300 245.670 C 264.240 236.502,264.191 244.120,264.191 262.600 M282.400 305.680 C 282.290 342.574,282.336 372.625,282.501 372.459 C 282.667 372.293,282.757 342.107,282.701 305.379 L 282.600 238.600 282.400 305.680 M264.185 326.800 C 264.185 337.470,264.237 341.835,264.300 336.500 C 264.363 331.165,264.363 322.435,264.300 317.100 C 264.237 311.765,264.185 316.130,264.185 326.800 M264.167 363.400 C 264.167 367.580,264.226 369.236,264.298 367.079 C 264.371 364.923,264.370 361.503,264.298 359.479 C 264.225 357.456,264.166 359.220,264.167 363.400 " stroke="none" fill="#000000" fill-rule="evenodd"></path></g></svg>