<svg id="svg" version="1.1" xmlns="http://www.w3.org/2000/svg" xmlns:xlink="http://www.w3.org/1999/xlink" width="400" height="400" viewBox="0, 0, 400,400"><g id="svgg"><path id="path0" d="M174.000 0.400 C 174.000 0.647,171.941 0.800,168.623 0.800 C 163.664 0.800,163.201 0.863,162.674 1.616 C 162.186 2.312,161.581 2.452,158.551 2.569 C 154.099 2.742,154.400 2.674,154.400 3.500 C 154.400 4.089,154.035 4.195,152.100 4.170 C 148.653 4.125,147.600 4.378,147.600 5.250 C 147.600 5.906,147.276 6.000,145.000 6.000 C 143.570 6.000,142.421 6.135,142.447 6.300 C 142.631 7.462,142.287 7.600,139.200 7.600 C 136.267 7.600,136.000 7.667,136.000 8.400 C 136.000 9.112,135.733 9.200,133.563 9.200 C 131.462 9.200,131.096 9.310,130.916 10.000 C 130.752 10.627,130.370 10.800,129.153 10.800 C 127.867 10.800,127.600 10.937,127.600 11.600 C 127.600 12.429,127.130 12.553,124.528 12.412 C 123.556 12.360,123.095 12.589,122.575 13.382 C 122.126 14.067,121.659 14.346,121.204 14.201 C 120.177 13.875,119.200 14.383,119.200 15.243 C 119.200 15.860,118.903 16.000,117.600 16.000 C 116.267 16.000,116.000 16.133,116.000 16.800 C 116.000 17.480,115.733 17.600,114.223 17.600 C 112.661 17.600,112.465 17.697,112.600 18.400 C 112.735 19.103,112.539 19.200,110.977 19.200 C 109.467 19.200,109.200 19.320,109.200 20.000 C 109.200 20.667,108.933 20.800,107.600 20.800 C 106.200 20.800,106.000 20.914,106.000 21.714 C 106.000 22.524,105.808 22.626,104.300 22.614 C 102.827 22.602,102.606 22.711,102.642 23.432 C 102.677 24.121,102.470 24.251,101.442 24.187 C 99.758 24.082,99.200 24.345,99.200 25.243 C 99.200 25.860,98.903 26.000,97.600 26.000 C 96.286 26.000,96.000 26.138,96.000 26.772 C 96.000 27.268,95.678 27.590,95.100 27.672 C 94.499 27.758,94.239 28.033,94.318 28.500 C 94.415 29.081,94.127 29.200,92.618 29.200 C 91.067 29.200,90.800 29.317,90.800 30.000 C 90.800 30.533,90.533 30.800,90.000 30.800 C 89.467 30.800,89.200 31.067,89.200 31.600 C 89.200 32.392,88.774 32.554,86.900 32.475 C 86.202 32.446,86.000 32.657,86.000 33.414 C 86.000 34.188,85.814 34.371,85.100 34.295 C 84.382 34.219,84.219 34.382,84.295 35.100 C 84.381 35.914,84.219 36.000,82.595 36.000 C 81.608 36.000,80.821 36.135,80.847 36.300 C 80.987 37.184,80.716 37.600,80.000 37.600 C 79.467 37.600,79.200 37.867,79.200 38.400 C 79.200 38.933,78.933 39.200,78.400 39.200 C 77.867 39.200,77.600 39.467,77.600 40.000 C 77.600 40.663,77.333 40.800,76.043 40.800 C 74.710 40.800,74.450 40.946,74.232 41.815 C 74.064 42.483,73.742 42.791,73.289 42.715 C 72.780 42.630,72.633 42.835,72.725 43.500 C 72.827 44.231,72.677 44.381,71.926 44.300 C 71.235 44.225,70.970 44.427,70.873 45.100 C 70.791 45.678,70.468 46.000,69.972 46.000 C 69.467 46.000,69.200 46.276,69.200 46.800 C 69.200 47.467,68.933 47.600,67.600 47.600 C 66.267 47.600,66.000 47.733,66.000 48.400 C 66.000 48.933,65.733 49.200,65.200 49.200 C 64.750 49.200,64.400 49.467,64.400 49.810 C 64.400 50.145,63.942 50.594,63.382 50.807 C 62.734 51.053,62.407 51.450,62.482 51.897 C 62.563 52.378,62.378 52.563,61.897 52.482 C 61.450 52.407,61.053 52.734,60.807 53.382 C 60.594 53.942,60.145 54.400,59.810 54.400 C 59.467 54.400,59.200 54.750,59.200 55.200 C 59.200 55.733,58.933 56.000,58.400 56.000 C 57.867 56.000,57.600 56.267,57.600 56.800 C 57.600 57.333,57.333 57.600,56.800 57.600 C 56.267 57.600,56.000 57.867,56.000 58.400 C 56.000 58.933,55.733 59.200,55.200 59.200 C 54.750 59.200,54.400 59.467,54.400 59.810 C 54.400 60.145,53.942 60.594,53.382 60.807 C 52.734 61.053,52.407 61.450,52.482 61.897 C 52.563 62.378,52.378 62.563,51.897 62.482 C 51.450 62.407,51.053 62.734,50.807 63.382 C 50.594 63.942,50.145 64.400,49.810 64.400 C 49.467 64.400,49.200 64.750,49.200 65.200 C 49.200 65.733,48.933 66.000,48.400 66.000 C 47.733 66.000,47.600 66.267,47.600 67.600 C 47.600 68.933,47.467 69.200,46.800 69.200 C 46.276 69.200,46.000 69.467,46.000 69.972 C 46.000 70.468,45.678 70.791,45.100 70.873 C 44.427 70.970,44.225 71.235,44.300 71.926 C 44.381 72.677,44.231 72.827,43.500 72.725 C 42.835 72.633,42.630 72.780,42.715 73.289 C 42.791 73.742,42.483 74.064,41.815 74.232 C 40.946 74.450,40.800 74.710,40.800 76.043 C 40.800 77.333,40.663 77.600,40.000 77.600 C 39.467 77.600,39.200 77.867,39.200 78.400 C 39.200 78.933,38.933 79.200,38.400 79.200 C 37.867 79.200,37.600 79.467,37.600 80.000 C 37.600 80.716,37.184 80.987,36.300 80.847 C 36.135 80.821,36.000 81.608,36.000 82.595 C 36.000 84.219,35.914 84.381,35.100 84.295 C 34.390 84.220,34.219 84.384,34.291 85.073 C 34.356 85.707,34.136 85.982,33.491 86.073 C 32.628 86.196,32.545 86.373,32.446 88.300 C 32.414 88.918,32.149 89.200,31.600 89.200 C 31.083 89.200,30.800 89.467,30.800 89.953 C 30.800 90.370,30.443 90.800,30.000 90.916 C 29.369 91.081,29.200 91.462,29.200 92.718 C 29.200 93.990,29.059 94.300,28.500 94.256 C 28.057 94.220,27.753 94.530,27.672 95.100 C 27.590 95.678,27.268 96.000,26.772 96.000 C 26.138 96.000,26.000 96.286,26.000 97.600 C 26.000 98.933,25.867 99.200,25.200 99.200 C 24.727 99.200,24.376 99.486,24.341 99.900 C 24.308 100.285,24.245 100.870,24.200 101.200 C 24.155 101.530,24.092 102.036,24.059 102.324 C 24.027 102.612,23.840 102.749,23.645 102.628 C 23.063 102.268,22.528 103.310,22.582 104.700 C 22.624 105.803,22.493 106.000,21.716 106.000 C 20.914 106.000,20.800 106.199,20.800 107.600 C 20.800 108.933,20.667 109.200,20.000 109.200 C 19.320 109.200,19.200 109.467,19.200 110.977 C 19.200 112.539,19.103 112.735,18.400 112.600 C 17.697 112.465,17.600 112.661,17.600 114.223 C 17.600 115.733,17.480 116.000,16.800 116.000 C 16.133 116.000,16.000 116.267,16.000 117.600 C 16.000 118.933,15.867 119.200,15.200 119.200 C 14.397 119.200,14.271 119.543,14.287 121.686 C 14.293 122.554,14.125 122.755,13.447 122.686 C 12.703 122.610,12.594 122.820,12.549 124.400 C 12.462 127.504,12.433 127.600,11.600 127.600 C 10.889 127.600,10.800 127.867,10.800 130.000 C 10.800 132.278,10.616 132.624,9.500 132.447 C 9.335 132.421,9.200 133.210,9.200 134.200 C 9.200 135.733,9.081 136.000,8.400 136.000 C 7.667 136.000,7.600 136.267,7.600 139.200 C 7.600 142.287,7.462 142.631,6.300 142.447 C 6.135 142.421,6.000 143.570,6.000 145.000 C 6.000 147.297,5.911 147.600,5.232 147.600 C 4.315 147.600,4.028 148.772,4.130 152.100 C 4.189 154.051,4.094 154.400,3.500 154.400 C 3.115 154.400,2.783 154.535,2.761 154.700 C 2.740 154.865,2.656 156.599,2.575 158.553 C 2.450 161.574,2.306 162.191,1.614 162.675 C 0.864 163.201,0.800 163.668,0.800 168.623 C 0.800 171.941,0.647 174.000,0.400 174.000 C 0.138 174.000,0.000 182.333,0.000 198.200 C 0.000 214.067,0.138 222.400,0.400 222.400 C 0.620 222.400,0.800 222.760,0.800 223.200 C 0.800 223.724,1.067 224.000,1.573 224.000 C 1.998 224.000,2.454 224.341,2.586 224.757 C 3.018 226.118,5.367 226.135,5.722 224.779 C 5.881 224.167,6.277 224.000,7.563 224.000 L 9.200 224.000 9.200 200.847 C 9.200 178.030,9.212 177.690,10.000 177.484 C 10.744 177.290,10.800 176.938,10.800 172.464 C 10.800 168.005,10.858 167.635,11.600 167.400 C 12.328 167.169,12.400 166.795,12.400 163.220 C 12.400 159.630,12.469 159.275,13.200 159.084 C 13.917 158.897,14.000 158.538,14.000 155.637 C 14.000 152.739,14.078 152.400,14.750 152.400 C 15.610 152.400,16.000 151.020,16.000 147.977 C 16.000 146.405,16.146 146.008,16.800 145.800 C 17.479 145.584,17.600 145.195,17.600 143.220 C 17.600 141.230,17.716 140.863,18.400 140.684 C 19.077 140.507,19.200 140.138,19.200 138.284 C 19.200 136.430,19.323 136.061,20.000 135.884 C 20.690 135.704,20.800 135.338,20.800 133.237 C 20.800 131.067,20.888 130.800,21.600 130.800 C 22.263 130.800,22.400 130.533,22.400 129.247 C 22.400 128.030,22.573 127.648,23.200 127.484 C 23.833 127.319,24.000 126.938,24.000 125.665 C 24.000 124.301,24.137 124.036,24.900 123.928 C 25.697 123.815,25.814 123.537,25.920 121.500 C 26.023 119.527,26.151 119.200,26.820 119.200 C 27.459 119.200,27.600 118.920,27.600 117.647 C 27.600 116.430,27.773 116.048,28.400 115.884 C 29.036 115.718,29.200 115.338,29.200 114.037 C 29.200 112.667,29.330 112.400,30.000 112.400 C 30.667 112.400,30.800 112.133,30.800 110.800 C 30.800 109.467,30.933 109.200,31.600 109.200 C 32.117 109.200,32.400 108.933,32.400 108.447 C 32.400 108.030,32.757 107.600,33.200 107.484 C 33.833 107.319,34.000 106.938,34.000 105.665 C 34.000 104.301,34.137 104.036,34.900 103.928 C 35.623 103.825,35.824 103.505,35.924 102.300 C 36.021 101.125,36.216 100.800,36.824 100.800 C 37.317 100.800,37.600 100.526,37.600 100.047 C 37.600 99.630,37.957 99.200,38.400 99.084 C 39.006 98.925,39.200 98.538,39.200 97.484 C 39.200 96.430,39.394 96.043,40.000 95.884 C 40.479 95.759,40.800 95.338,40.800 94.837 C 40.800 94.267,41.055 94.000,41.600 94.000 C 42.267 94.000,42.400 93.733,42.400 92.400 C 42.400 91.067,42.533 90.800,43.200 90.800 C 43.733 90.800,44.000 90.533,44.000 90.000 C 44.000 89.482,44.267 89.200,44.757 89.200 C 45.579 89.200,46.000 88.460,46.000 87.014 C 46.000 86.430,46.292 86.017,46.800 85.884 C 47.279 85.759,47.600 85.338,47.600 84.837 C 47.600 84.267,47.855 84.000,48.400 84.000 C 48.933 84.000,49.200 83.733,49.200 83.200 C 49.200 82.667,49.467 82.400,50.000 82.400 C 50.667 82.400,50.800 82.133,50.800 80.800 C 50.800 79.467,50.933 79.200,51.600 79.200 C 52.133 79.200,52.400 78.933,52.400 78.400 C 52.400 77.867,52.667 77.600,53.200 77.600 C 53.724 77.600,54.000 77.333,54.000 76.828 C 54.000 76.332,54.322 76.010,54.900 75.928 C 55.478 75.846,55.846 75.478,55.928 74.900 C 56.010 74.322,56.332 74.000,56.828 74.000 C 57.333 74.000,57.600 73.724,57.600 73.200 C 57.600 72.667,57.867 72.400,58.400 72.400 C 58.933 72.400,59.200 72.133,59.200 71.600 C 59.200 71.067,59.467 70.800,60.000 70.800 C 60.533 70.800,60.800 70.533,60.800 70.000 C 60.800 69.467,61.067 69.200,61.600 69.200 C 62.133 69.200,62.400 68.933,62.400 68.400 C 62.400 67.950,62.667 67.600,63.010 67.600 C 63.345 67.600,63.791 67.150,64.000 66.600 C 64.209 66.050,64.655 65.600,64.990 65.600 C 65.326 65.600,65.600 65.326,65.600 64.990 C 65.600 64.655,66.050 64.209,66.600 64.000 C 67.150 63.791,67.600 63.345,67.600 63.010 C 67.600 62.667,67.950 62.400,68.400 62.400 C 68.933 62.400,69.200 62.133,69.200 61.600 C 69.200 61.067,69.467 60.800,70.000 60.800 C 70.533 60.800,70.800 60.533,70.800 60.000 C 70.800 59.467,71.067 59.200,71.600 59.200 C 72.133 59.200,72.400 58.933,72.400 58.400 C 72.400 57.867,72.667 57.600,73.200 57.600 C 73.724 57.600,74.000 57.333,74.000 56.828 C 74.000 56.332,74.322 56.010,74.900 55.928 C 75.478 55.846,75.846 55.478,75.928 54.900 C 76.010 54.322,76.332 54.000,76.828 54.000 C 77.333 54.000,77.600 53.724,77.600 53.200 C 77.600 52.548,77.867 52.400,79.037 52.400 C 80.138 52.400,80.524 52.213,80.684 51.600 C 80.800 51.157,81.230 50.800,81.647 50.800 C 82.133 50.800,82.400 50.517,82.400 50.000 C 82.400 49.467,82.667 49.200,83.200 49.200 C 83.733 49.200,84.000 48.933,84.000 48.400 C 84.000 47.855,84.267 47.600,84.837 47.600 C 85.338 47.600,85.759 47.279,85.884 46.800 C 86.017 46.292,86.430 46.000,87.014 46.000 C 88.460 46.000,89.200 45.579,89.200 44.757 C 89.200 44.267,89.482 44.000,90.000 44.000 C 90.533 44.000,90.800 43.733,90.800 43.200 C 90.800 42.533,91.067 42.400,92.400 42.400 C 93.733 42.400,94.000 42.267,94.000 41.600 C 94.000 41.055,94.267 40.800,94.837 40.800 C 95.338 40.800,95.759 40.479,95.884 40.000 C 96.043 39.394,96.430 39.200,97.484 39.200 C 98.538 39.200,98.925 39.006,99.084 38.400 C 99.200 37.957,99.630 37.600,100.047 37.600 C 100.526 37.600,100.800 37.317,100.800 36.824 C 100.800 36.216,101.125 36.021,102.300 35.924 C 103.505 35.824,103.825 35.623,103.928 34.900 C 104.035 34.144,104.303 34.000,105.601 34.000 C 106.795 34.000,107.204 33.818,107.400 33.200 C 107.591 32.599,108.005 32.400,109.064 32.400 C 110.138 32.400,110.525 32.209,110.684 31.600 C 110.800 31.157,111.230 30.800,111.647 30.800 C 112.133 30.800,112.400 30.517,112.400 30.000 C 112.400 29.330,112.667 29.200,114.037 29.200 C 115.338 29.200,115.718 29.036,115.884 28.400 C 116.048 27.773,116.430 27.600,117.647 27.600 C 118.933 27.600,119.200 27.463,119.200 26.800 C 119.200 26.143,119.468 25.999,120.700 25.995 C 122.974 25.986,124.000 25.600,124.000 24.753 C 124.000 24.138,124.300 24.000,125.637 24.000 C 126.938 24.000,127.318 23.836,127.484 23.200 C 127.648 22.573,128.030 22.400,129.247 22.400 C 130.533 22.400,130.800 22.263,130.800 21.600 C 130.800 20.888,131.067 20.800,133.237 20.800 C 135.338 20.800,135.704 20.690,135.884 20.000 C 136.061 19.323,136.430 19.200,138.284 19.200 C 140.138 19.200,140.507 19.077,140.684 18.400 C 140.864 17.713,141.230 17.600,143.284 17.600 C 145.338 17.600,145.704 17.487,145.884 16.800 C 146.056 16.141,146.430 16.000,147.997 16.000 C 151.020 16.000,152.400 15.608,152.400 14.750 C 152.400 14.078,152.739 14.000,155.637 14.000 C 158.538 14.000,158.897 13.917,159.084 13.200 C 159.275 12.469,159.630 12.400,163.220 12.400 C 166.795 12.400,167.169 12.328,167.400 11.600 C 167.638 10.850,168.005 10.800,173.264 10.800 C 178.538 10.800,178.887 10.752,179.084 10.000 C 179.391 8.826,222.915 8.726,222.718 9.900 C 222.612 10.530,223.089 10.611,227.477 10.712 C 231.925 10.814,232.376 10.894,232.604 11.612 C 232.830 12.325,233.225 12.400,236.780 12.400 C 240.370 12.400,240.725 12.469,240.916 13.200 C 241.103 13.917,241.462 14.000,244.363 14.000 C 247.261 14.000,247.600 14.078,247.600 14.750 C 247.600 15.610,248.980 16.000,252.023 16.000 C 253.595 16.000,253.992 16.146,254.200 16.800 C 254.416 17.479,254.805 17.600,256.780 17.600 C 258.770 17.600,259.137 17.716,259.316 18.400 C 259.493 19.078,259.862 19.200,261.736 19.200 C 263.595 19.200,263.986 19.327,264.200 20.000 C 264.416 20.682,264.805 20.800,266.827 20.800 C 268.933 20.800,269.200 20.890,269.200 21.600 C 269.200 22.278,269.467 22.400,270.956 22.400 C 272.382 22.400,272.701 22.531,272.656 23.100 C 272.612 23.648,272.968 23.827,274.300 23.923 C 275.638 24.020,276.000 24.202,276.000 24.780 C 276.000 25.693,276.764 26.000,279.033 26.000 C 280.533 26.000,280.800 26.121,280.800 26.800 C 280.800 27.478,281.067 27.600,282.556 27.600 C 283.982 27.600,284.301 27.731,284.256 28.300 C 284.212 28.848,284.568 29.027,285.900 29.123 C 287.274 29.222,287.600 29.395,287.600 30.023 C 287.600 30.663,287.882 30.800,289.200 30.800 C 290.533 30.800,290.800 30.933,290.800 31.600 C 290.800 32.177,291.067 32.400,291.756 32.400 C 292.420 32.400,292.694 32.613,292.656 33.100 C 292.612 33.648,292.968 33.827,294.300 33.923 C 295.638 34.020,296.000 34.202,296.000 34.780 C 296.000 35.589,296.752 36.000,298.233 36.000 C 298.933 36.000,299.200 36.221,299.200 36.800 C 299.200 37.317,299.467 37.600,299.953 37.600 C 300.370 37.600,300.800 37.957,300.916 38.400 C 301.075 39.009,301.462 39.200,302.536 39.200 C 303.595 39.200,304.009 39.399,304.200 40.000 C 304.340 40.440,304.802 40.800,305.227 40.800 C 305.733 40.800,306.000 41.076,306.000 41.600 C 306.000 42.267,306.267 42.400,307.600 42.400 C 308.933 42.400,309.200 42.533,309.200 43.200 C 309.200 43.733,309.467 44.000,310.000 44.000 C 310.518 44.000,310.800 44.267,310.800 44.757 C 310.800 45.613,311.544 46.000,313.188 46.000 C 314.012 46.000,314.296 46.186,314.256 46.700 C 314.220 47.143,314.530 47.447,315.100 47.528 C 315.678 47.610,316.000 47.932,316.000 48.428 C 316.000 48.933,316.276 49.200,316.800 49.200 C 317.333 49.200,317.600 49.467,317.600 50.000 C 317.600 50.667,317.867 50.800,319.200 50.800 C 320.514 50.800,320.800 50.938,320.800 51.572 C 320.800 52.068,321.122 52.390,321.700 52.472 C 322.195 52.542,322.600 52.862,322.600 53.182 C 322.600 53.502,322.960 53.862,323.400 53.982 C 323.840 54.102,324.218 54.425,324.240 54.700 C 324.333 55.857,324.438 56.000,325.200 56.000 C 325.733 56.000,326.000 56.267,326.000 56.800 C 326.000 57.333,326.267 57.600,326.800 57.600 C 327.333 57.600,327.600 57.867,327.600 58.400 C 327.600 58.933,327.867 59.200,328.400 59.200 C 328.933 59.200,329.200 59.467,329.200 60.000 C 329.200 60.533,329.467 60.800,330.000 60.800 C 330.533 60.800,330.800 61.067,330.800 61.600 C 330.800 62.184,331.067 62.400,331.787 62.400 C 332.497 62.400,332.711 62.567,332.547 62.994 C 332.397 63.384,332.677 63.725,333.359 63.985 C 333.932 64.202,334.400 64.672,334.400 65.028 C 334.400 65.384,334.743 65.765,335.163 65.874 C 335.583 65.984,336.016 66.417,336.126 66.837 C 336.235 67.257,336.612 67.600,336.963 67.600 C 337.333 67.600,337.600 67.935,337.600 68.400 C 337.600 68.933,337.867 69.200,338.400 69.200 C 338.933 69.200,339.200 69.467,339.200 70.000 C 339.200 70.533,339.467 70.800,340.000 70.800 C 340.524 70.800,340.800 71.067,340.800 71.572 C 340.800 72.068,341.122 72.390,341.700 72.472 C 342.301 72.558,342.561 72.833,342.482 73.300 C 342.396 73.817,342.636 74.000,343.406 74.000 C 343.979 74.000,344.346 74.164,344.222 74.364 C 343.831 74.998,344.456 76.000,345.243 76.000 C 345.733 76.000,346.000 76.282,346.000 76.800 C 346.000 77.333,346.267 77.600,346.800 77.600 C 347.452 77.600,347.600 77.867,347.600 79.037 C 347.600 80.138,347.787 80.524,348.400 80.684 C 348.843 80.800,349.200 81.230,349.200 81.647 C 349.200 82.133,349.483 82.400,350.000 82.400 C 350.533 82.400,350.800 82.667,350.800 83.200 C 350.800 83.792,351.067 84.000,351.824 84.000 C 352.387 84.000,352.746 84.164,352.622 84.364 C 352.255 84.958,352.798 85.906,353.630 86.124 C 354.079 86.241,354.376 86.635,354.338 87.063 C 354.198 88.653,354.418 89.200,355.200 89.200 C 355.733 89.200,356.000 89.467,356.000 90.000 C 356.000 90.533,356.267 90.800,356.800 90.800 C 357.467 90.800,357.600 91.067,357.600 92.400 C 357.600 93.733,357.733 94.000,358.400 94.000 C 358.945 94.000,359.200 94.267,359.200 94.837 C 359.200 95.338,359.521 95.759,360.000 95.884 C 360.606 96.043,360.800 96.430,360.800 97.484 C 360.800 98.538,360.994 98.925,361.600 99.084 C 362.329 99.275,362.576 99.687,362.447 100.500 C 362.421 100.665,362.760 100.800,363.200 100.800 C 363.640 100.800,364.021 101.025,364.046 101.300 C 364.072 101.575,364.134 101.980,364.185 102.200 C 364.236 102.420,364.306 102.915,364.339 103.300 C 364.375 103.713,364.728 104.000,365.200 104.000 C 365.864 104.000,366.000 104.267,366.000 105.573 C 366.000 106.795,366.179 107.203,366.800 107.400 C 367.401 107.591,367.600 108.005,367.600 109.064 C 367.600 110.138,367.791 110.525,368.400 110.684 C 368.843 110.800,369.200 111.230,369.200 111.647 C 369.200 112.133,369.483 112.400,370.000 112.400 C 370.668 112.400,370.800 112.667,370.800 114.013 C 370.800 115.183,370.992 115.696,371.500 115.883 C 372.478 116.244,372.711 116.701,372.597 118.039 C 372.516 118.990,372.653 119.200,373.355 119.200 C 374.073 119.200,374.218 119.444,374.247 120.700 C 374.319 123.807,374.375 124.000,375.200 124.000 C 375.870 124.000,376.000 124.267,376.000 125.637 C 376.000 126.938,376.164 127.318,376.800 127.484 C 377.427 127.648,377.600 128.030,377.600 129.247 C 377.600 130.533,377.737 130.800,378.400 130.800 C 379.112 130.800,379.200 131.067,379.200 133.237 C 379.200 135.338,379.310 135.704,380.000 135.884 C 380.677 136.061,380.800 136.430,380.800 138.284 C 380.800 140.103,380.929 140.509,381.563 140.674 C 382.478 140.914,382.736 141.743,382.600 144.006 C 382.517 145.378,382.640 145.738,383.249 145.897 C 383.718 146.020,384.025 146.489,384.067 147.147 C 384.104 147.726,384.164 148.650,384.200 149.200 C 384.236 149.750,384.296 150.695,384.333 151.300 C 384.382 152.111,384.610 152.400,385.200 152.400 C 385.934 152.400,386.000 152.667,386.000 155.637 C 386.000 158.538,386.083 158.897,386.800 159.084 C 387.531 159.275,387.600 159.630,387.600 163.220 C 387.600 166.795,387.672 167.169,388.400 167.400 C 389.150 167.638,389.200 168.005,389.200 173.264 C 389.200 178.538,389.248 178.887,390.000 179.084 C 391.174 179.391,391.274 222.915,390.100 222.718 C 389.470 222.612,389.389 223.089,389.288 227.477 C 389.186 231.925,389.106 232.376,388.388 232.604 C 387.721 232.816,387.600 233.217,387.600 235.227 L 387.600 237.600 358.400 237.600 L 329.200 237.600 329.200 216.963 C 329.200 196.662,329.187 196.322,328.400 196.116 C 327.609 195.909,327.600 195.570,327.600 167.386 C 327.600 138.797,327.560 137.600,326.592 137.600 C 326.295 137.600,325.954 136.911,325.800 136.000 C 325.595 134.785,325.345 134.400,324.765 134.400 C 324.136 134.400,324.000 134.108,324.000 132.763 C 324.000 131.462,323.836 131.082,323.200 130.916 C 322.573 130.752,322.400 130.370,322.400 129.153 C 322.400 127.867,322.263 127.600,321.600 127.600 C 320.933 127.600,320.800 127.333,320.800 126.000 C 320.800 124.667,320.667 124.400,320.000 124.400 C 319.413 124.400,319.200 124.133,319.200 123.400 C 319.200 122.667,318.987 122.400,318.400 122.400 C 317.733 122.400,317.600 122.133,317.600 120.800 C 317.600 119.467,317.467 119.200,316.800 119.200 C 316.133 119.200,316.000 118.933,316.000 117.600 C 316.000 116.160,315.900 116.000,315.000 116.000 C 314.078 116.000,314.000 115.856,314.000 114.153 C 314.000 112.504,313.915 112.329,313.200 112.516 C 312.489 112.702,312.400 112.528,312.400 110.963 C 312.400 109.467,312.279 109.200,311.600 109.200 C 310.933 109.200,310.800 108.933,310.800 107.600 C 310.800 106.282,310.663 106.000,310.023 106.000 C 309.395 106.000,309.222 105.674,309.123 104.300 C 309.037 103.110,308.820 102.600,308.400 102.600 C 307.980 102.600,307.763 102.090,307.677 100.900 C 307.579 99.546,307.401 99.200,306.801 99.200 C 306.220 99.200,306.020 98.858,305.924 97.700 C 305.824 96.495,305.623 96.175,304.900 96.072 C 304.121 95.962,304.000 95.705,304.000 94.172 C 304.000 93.197,303.865 92.421,303.700 92.447 C 302.667 92.611,302.400 92.273,302.400 90.800 C 302.400 89.467,302.267 89.200,301.600 89.200 C 300.933 89.200,300.800 88.933,300.800 87.600 C 300.800 86.282,300.663 86.000,300.023 86.000 C 299.395 86.000,299.222 85.674,299.123 84.300 C 299.037 83.110,298.820 82.600,298.400 82.600 C 297.980 82.600,297.763 82.090,297.677 80.900 C 297.579 79.546,297.401 79.200,296.801 79.200 C 296.220 79.200,296.020 78.858,295.924 77.700 C 295.824 76.495,295.623 76.175,294.900 76.072 C 294.121 75.962,294.000 75.705,294.000 74.172 C 294.000 73.197,293.865 72.421,293.700 72.447 C 292.667 72.611,292.400 72.273,292.400 70.800 C 292.400 69.500,292.259 69.200,291.647 69.200 C 291.230 69.200,290.800 68.843,290.684 68.400 C 290.371 67.201,284.400 67.175,284.400 68.372 C 284.400 68.868,284.078 69.190,283.500 69.272 C 282.738 69.380,282.600 69.645,282.600 70.999 C 282.600 72.332,282.467 72.599,281.800 72.599 C 281.145 72.600,280.978 72.908,280.877 74.300 C 280.778 75.674,280.605 76.000,279.977 76.000 C 279.337 76.000,279.200 76.282,279.200 77.600 C 279.200 78.933,279.067 79.200,278.400 79.200 C 277.733 79.200,277.600 79.467,277.600 80.800 C 277.600 82.273,277.333 82.611,276.300 82.447 C 276.135 82.421,276.000 83.197,276.000 84.172 C 276.000 85.705,275.879 85.962,275.100 86.072 C 274.456 86.164,274.188 86.484,274.157 87.200 C 274.077 89.036,274.004 89.200,273.268 89.200 C 272.740 89.200,272.532 89.506,272.523 90.300 C 272.495 92.572,272.420 92.758,271.600 92.600 C 270.897 92.465,270.800 92.661,270.800 94.223 C 270.800 95.733,270.680 96.000,270.000 96.000 C 269.333 96.000,269.200 96.267,269.200 97.600 C 269.200 98.933,269.067 99.200,268.400 99.200 C 267.721 99.200,267.600 99.467,267.600 100.963 C 267.600 102.528,267.511 102.702,266.800 102.516 C 266.087 102.329,266.000 102.504,266.000 104.126 C 266.000 105.707,265.883 105.961,265.100 106.072 C 264.527 106.154,264.185 106.491,264.159 107.000 C 264.060 108.956,263.961 109.200,263.268 109.200 C 262.740 109.200,262.532 109.506,262.523 110.300 C 262.495 112.572,262.420 112.758,261.600 112.600 C 260.897 112.465,260.800 112.661,260.800 114.223 C 260.800 115.733,260.680 116.000,260.000 116.000 C 259.333 116.000,259.200 116.267,259.200 117.600 C 259.200 118.933,259.067 119.200,258.400 119.200 C 257.721 119.200,257.600 119.467,257.600 120.963 C 257.600 122.528,257.511 122.702,256.800 122.516 C 256.087 122.329,256.000 122.504,256.000 124.126 C 256.000 125.707,255.883 125.961,255.100 126.072 C 254.527 126.154,254.185 126.491,254.159 127.000 C 254.059 128.976,253.964 129.200,253.235 129.200 C 252.733 129.200,252.508 129.440,252.578 129.900 C 252.644 130.330,252.361 130.683,251.843 130.816 C 251.203 130.980,250.969 131.400,250.873 132.560 C 250.781 133.671,250.535 134.144,249.973 134.291 C 249.319 134.462,249.200 134.857,249.200 136.847 C 249.200 138.933,249.109 139.200,248.400 139.200 C 247.733 139.200,247.600 139.467,247.600 140.800 C 247.600 142.133,247.733 142.400,248.400 142.400 C 248.933 142.400,249.200 142.667,249.200 143.200 C 249.200 143.724,249.467 144.000,249.972 144.000 C 250.468 144.000,250.790 144.322,250.872 144.900 L 251.000 145.800 266.700 145.905 L 282.400 146.009 282.400 259.382 C 282.400 372.539,282.398 372.754,281.600 372.600 C 280.995 372.483,280.800 372.661,280.800 373.329 C 280.800 374.077,280.570 374.217,279.300 374.247 C 276.193 374.319,276.000 374.375,276.000 375.200 C 276.000 375.883,275.733 376.000,274.182 376.000 C 272.673 376.000,272.385 376.119,272.482 376.700 C 272.582 377.295,272.223 377.418,270.100 377.519 C 267.928 377.623,267.600 377.741,267.600 378.419 C 267.600 379.061,267.321 379.200,266.027 379.200 C 264.805 379.200,264.397 379.379,264.200 380.000 C 263.986 380.673,263.595 380.800,261.736 380.800 C 259.897 380.800,259.492 380.928,259.326 381.563 C 259.088 382.472,258.257 382.736,256.055 382.603 C 254.758 382.525,254.372 382.659,254.183 383.252 C 254.053 383.664,253.598 384.000,253.173 384.000 C 251.935 384.000,251.962 327.793,253.200 327.400 C 253.991 327.149,254.000 326.795,254.000 296.668 L 254.000 266.190 254.900 265.795 C 256.006 265.310,255.953 266.991,255.980 231.700 C 255.997 208.925,256.075 205.600,256.592 205.600 C 257.592 205.600,257.624 204.607,257.510 177.400 L 257.400 151.000 253.496 150.885 C 249.601 150.771,249.590 150.774,249.190 151.826 C 248.926 152.519,248.585 152.803,248.194 152.653 C 247.673 152.453,247.600 155.101,247.600 174.213 C 247.600 195.733,247.590 196.000,246.800 196.000 C 246.010 196.000,246.000 196.267,246.000 216.800 L 246.000 237.600 125.200 237.600 C 4.683 237.600,4.400 237.602,4.350 238.400 C 4.323 238.840,4.255 239.380,4.200 239.600 C 4.145 239.820,4.077 240.167,4.050 240.371 C 4.022 240.575,3.692 240.801,3.316 240.873 C 2.127 241.102,2.232 245.600,3.427 245.600 C 3.978 245.600,4.031 245.857,4.210 249.400 C 4.355 252.280,4.394 252.400,5.200 252.400 C 5.918 252.400,6.000 252.667,6.000 255.000 C 6.000 257.333,6.082 257.600,6.800 257.600 C 7.533 257.600,7.600 257.867,7.600 260.800 C 7.600 263.733,7.667 264.000,8.400 264.000 C 9.112 264.000,9.200 264.267,9.200 266.437 C 9.200 268.538,9.310 268.904,10.000 269.084 C 10.627 269.248,10.800 269.630,10.800 270.847 C 10.800 272.133,10.937 272.400,11.600 272.400 C 12.440 272.400,12.545 272.747,12.478 275.304 C 12.447 276.487,12.650 276.945,13.430 277.456 C 14.076 277.880,14.344 278.346,14.201 278.796 C 13.875 279.823,14.383 280.800,15.243 280.800 C 15.860 280.800,16.000 281.097,16.000 282.400 C 16.000 283.733,16.133 284.000,16.800 284.000 C 17.481 284.000,17.600 284.267,17.600 285.800 C 17.600 287.333,17.719 287.600,18.400 287.600 C 19.067 287.600,19.200 287.867,19.200 289.200 C 19.200 290.533,19.333 290.800,20.000 290.800 C 20.667 290.800,20.800 291.067,20.800 292.400 C 20.800 293.733,20.933 294.000,21.600 294.000 C 22.418 294.000,22.480 294.149,22.496 296.151 C 22.502 296.934,22.744 297.365,23.252 297.498 C 23.948 297.680,24.182 298.112,24.034 298.941 C 23.880 299.796,24.525 300.800,25.227 300.800 C 25.862 300.800,26.000 301.085,26.000 302.400 C 26.000 303.733,26.133 304.000,26.800 304.000 C 27.345 304.000,27.600 304.267,27.600 304.837 C 27.600 305.338,27.921 305.759,28.400 305.884 C 29.006 306.043,29.200 306.430,29.200 307.484 C 29.200 308.538,29.394 308.925,30.000 309.084 C 30.443 309.200,30.800 309.630,30.800 310.047 C 30.800 310.533,31.083 310.800,31.600 310.800 C 32.392 310.800,32.554 311.226,32.475 313.100 C 32.446 313.798,32.657 314.000,33.414 314.000 C 34.188 314.000,34.371 314.187,34.295 314.899 C 34.225 315.562,34.436 315.831,35.100 315.927 C 35.859 316.035,36.000 316.302,36.000 317.628 C 36.000 318.933,36.136 319.200,36.800 319.200 C 37.333 319.200,37.600 319.467,37.600 320.000 C 37.600 320.533,37.867 320.800,38.400 320.800 C 38.933 320.800,39.200 321.067,39.200 321.600 C 39.200 322.133,39.467 322.400,40.000 322.400 C 40.661 322.400,40.800 322.667,40.800 323.936 C 40.800 325.187,40.986 325.556,41.802 325.928 C 42.354 326.180,42.759 326.598,42.702 326.857 C 42.646 327.117,42.960 327.435,43.400 327.565 C 43.840 327.694,44.200 328.070,44.200 328.400 C 44.200 328.730,44.605 329.058,45.100 329.128 C 45.678 329.210,46.000 329.532,46.000 330.028 C 46.000 330.533,46.276 330.800,46.800 330.800 C 47.467 330.800,47.600 331.067,47.600 332.400 C 47.600 333.733,47.733 334.000,48.400 334.000 C 48.924 334.000,49.200 334.267,49.200 334.773 C 49.200 335.198,49.541 335.654,49.957 335.786 C 50.373 335.918,50.806 336.381,50.919 336.813 C 51.040 337.275,51.466 337.600,51.950 337.600 C 52.533 337.600,52.705 337.783,52.535 338.224 C 52.376 338.639,52.577 338.921,53.135 339.067 C 53.596 339.188,54.082 339.627,54.214 340.043 C 54.346 340.459,54.802 340.800,55.227 340.800 C 55.733 340.800,56.000 341.076,56.000 341.600 C 56.000 342.133,56.267 342.400,56.800 342.400 C 57.333 342.400,57.600 342.667,57.600 343.200 C 57.600 343.733,57.867 344.000,58.400 344.000 C 58.945 344.000,59.200 344.267,59.200 344.837 C 59.200 345.325,59.519 345.758,59.963 345.874 C 60.383 345.984,60.816 346.417,60.926 346.837 C 61.041 347.277,61.475 347.600,61.950 347.600 C 62.515 347.600,62.703 347.787,62.547 348.194 C 62.397 348.584,62.677 348.925,63.359 349.185 C 63.932 349.402,64.400 349.855,64.400 350.190 C 64.400 350.533,64.750 350.800,65.200 350.800 C 65.733 350.800,66.000 351.067,66.000 351.600 C 66.000 352.267,66.267 352.400,67.600 352.400 C 68.933 352.400,69.200 352.533,69.200 353.200 C 69.200 353.733,69.467 354.000,70.000 354.000 C 70.545 354.000,70.800 354.267,70.800 354.837 C 70.800 355.338,71.121 355.759,71.600 355.884 C 72.040 355.999,72.400 356.347,72.400 356.657 C 72.400 356.966,72.850 357.391,73.400 357.600 C 73.950 357.809,74.400 358.255,74.400 358.590 C 74.400 359.035,74.833 359.200,76.000 359.200 C 77.333 359.200,77.600 359.333,77.600 360.000 C 77.600 360.533,77.867 360.800,78.400 360.800 C 78.933 360.800,79.200 361.067,79.200 361.600 C 79.200 362.133,79.467 362.400,80.000 362.400 C 80.525 362.400,80.800 362.667,80.800 363.177 C 80.800 363.805,81.126 363.978,82.500 364.077 C 83.892 364.178,84.200 364.345,84.200 365.000 C 84.200 365.514,84.507 365.844,85.059 365.922 C 85.532 365.990,86.010 366.395,86.122 366.822 C 86.276 367.411,86.675 367.600,87.763 367.600 C 88.933 367.600,89.200 367.748,89.200 368.400 C 89.200 368.917,89.467 369.200,89.953 369.200 C 90.370 369.200,90.800 369.557,90.916 370.000 C 91.081 370.631,91.462 370.800,92.718 370.800 C 93.990 370.800,94.300 370.941,94.256 371.500 C 94.220 371.943,94.530 372.247,95.100 372.328 C 95.678 372.410,96.000 372.732,96.000 373.228 C 96.000 373.862,96.286 374.000,97.600 374.000 C 98.903 374.000,99.200 374.140,99.200 374.757 C 99.200 375.619,99.945 376.000,101.633 376.000 C 102.275 376.000,102.779 376.135,102.753 376.300 C 102.589 377.333,102.927 377.600,104.400 377.600 C 105.733 377.600,106.000 377.733,106.000 378.400 C 106.000 379.067,106.267 379.200,107.600 379.200 C 108.933 379.200,109.200 379.333,109.200 380.000 C 109.200 380.680,109.467 380.800,110.977 380.800 C 112.539 380.800,112.735 380.897,112.600 381.600 C 112.465 382.303,112.661 382.400,114.223 382.400 C 115.733 382.400,116.000 382.520,116.000 383.200 C 116.000 383.867,116.267 384.000,117.600 384.000 C 118.903 384.000,119.200 384.140,119.200 384.757 C 119.200 385.613,119.944 386.000,121.588 386.000 C 122.412 386.000,122.696 386.186,122.656 386.700 C 122.609 387.287,123.005 387.419,125.100 387.519 C 127.250 387.621,127.600 387.745,127.600 388.400 C 127.600 389.055,127.950 389.179,130.100 389.281 C 132.223 389.382,132.582 389.505,132.482 390.100 C 132.380 390.707,132.711 390.800,134.982 390.800 C 137.312 390.800,137.600 390.886,137.600 391.581 C 137.600 392.259,137.928 392.377,140.100 392.481 C 142.223 392.582,142.582 392.705,142.482 393.300 C 142.380 393.907,142.711 394.000,144.982 394.000 C 147.275 394.000,147.600 394.093,147.600 394.750 C 147.600 395.680,148.994 396.000,153.050 396.000 C 155.733 396.000,156.000 396.072,156.000 396.800 C 156.000 397.531,156.267 397.600,159.104 397.600 C 161.774 397.600,162.277 397.712,162.707 398.400 C 163.167 399.136,163.640 399.200,168.603 399.200 C 171.934 399.200,174.000 399.353,174.000 399.600 C 174.000 399.863,182.933 400.000,200.000 400.000 C 217.067 400.000,226.000 399.863,226.000 399.600 C 226.000 399.353,228.066 399.200,231.397 399.200 C 236.360 399.200,236.833 399.136,237.293 398.400 C 237.726 397.706,238.226 397.600,241.064 397.600 C 244.678 397.600,245.600 397.388,245.600 396.557 C 245.600 396.150,246.179 396.000,247.750 396.000 C 251.015 396.000,252.400 395.628,252.400 394.750 C 252.400 394.094,252.724 394.000,255.000 394.000 C 257.333 394.000,257.600 393.918,257.600 393.200 C 257.600 392.467,257.867 392.400,260.800 392.400 C 263.733 392.400,264.000 392.333,264.000 391.600 C 264.000 390.888,264.267 390.800,266.437 390.800 C 268.538 390.800,268.904 390.690,269.084 390.000 C 269.248 389.373,269.630 389.200,270.847 389.200 C 272.133 389.200,272.400 389.063,272.400 388.400 C 272.400 387.698,272.667 387.600,274.577 387.600 C 276.271 387.600,276.874 387.429,277.293 386.832 C 277.602 386.390,278.419 386.007,279.215 385.932 C 280.297 385.829,280.628 385.603,280.728 384.900 C 280.836 384.141,281.102 384.000,282.428 384.000 C 283.733 384.000,284.000 383.864,284.000 383.200 C 284.000 382.519,284.267 382.400,285.800 382.400 C 287.333 382.400,287.600 382.281,287.600 381.600 C 287.600 380.933,287.867 380.800,289.200 380.800 C 290.533 380.800,290.800 380.667,290.800 380.000 C 290.800 379.333,291.067 379.200,292.400 379.200 C 293.733 379.200,294.000 379.067,294.000 378.400 C 294.000 377.730,294.267 377.600,295.637 377.600 C 296.923 377.600,297.319 377.433,297.478 376.822 C 297.625 376.263,298.093 376.009,299.141 375.922 C 300.304 375.825,300.626 375.618,300.728 374.900 C 300.836 374.141,301.102 374.000,302.428 374.000 C 303.733 374.000,304.000 373.864,304.000 373.200 C 304.000 372.613,304.267 372.400,305.000 372.400 C 305.733 372.400,306.000 372.187,306.000 371.600 C 306.000 370.948,306.267 370.800,307.437 370.800 C 308.538 370.800,308.924 370.613,309.084 370.000 C 309.200 369.557,309.630 369.200,310.047 369.200 C 310.533 369.200,310.800 368.917,310.800 368.400 C 310.800 367.733,311.067 367.600,312.400 367.600 C 313.714 367.600,314.000 367.462,314.000 366.828 C 314.000 366.332,314.322 366.010,314.900 365.928 C 315.478 365.846,315.846 365.478,315.928 364.900 C 316.036 364.141,316.302 364.000,317.628 364.000 C 318.933 364.000,319.200 363.864,319.200 363.200 C 319.200 362.667,319.467 362.400,320.000 362.400 C 320.533 362.400,320.800 362.133,320.800 361.600 C 320.800 361.067,321.067 360.800,321.600 360.800 C 322.133 360.800,322.400 360.533,322.400 360.000 C 322.400 359.336,322.667 359.200,323.973 359.200 C 325.165 359.200,325.604 359.017,325.786 358.443 C 325.918 358.027,326.381 357.594,326.813 357.481 C 327.246 357.367,327.600 357.009,327.600 356.684 C 327.600 356.359,327.960 355.999,328.400 355.884 C 328.879 355.759,329.200 355.338,329.200 354.837 C 329.200 354.267,329.455 354.000,330.000 354.000 C 330.533 354.000,330.800 353.733,330.800 353.200 C 330.800 352.533,331.067 352.400,332.400 352.400 C 333.733 352.400,334.000 352.267,334.000 351.600 C 334.000 351.067,334.267 350.800,334.800 350.800 C 335.333 350.800,335.600 350.533,335.600 350.000 C 335.600 349.455,335.867 349.200,336.437 349.200 C 336.925 349.200,337.358 348.881,337.474 348.437 C 337.584 348.017,338.017 347.584,338.437 347.474 C 338.857 347.365,339.200 347.000,339.200 346.664 C 339.200 346.329,339.560 345.940,340.000 345.800 C 340.440 345.660,340.800 345.198,340.800 344.773 C 340.800 344.267,341.076 344.000,341.600 344.000 C 342.133 344.000,342.400 343.733,342.400 343.200 C 342.400 342.667,342.667 342.400,343.200 342.400 C 343.733 342.400,344.000 342.133,344.000 341.600 C 344.000 341.076,344.267 340.800,344.773 340.800 C 345.198 340.800,345.654 340.459,345.786 340.043 C 345.918 339.627,346.381 339.194,346.813 339.081 C 347.246 338.967,347.600 338.609,347.600 338.284 C 347.600 337.959,347.960 337.599,348.400 337.484 C 348.840 337.369,349.200 337.000,349.200 336.664 C 349.200 336.329,349.560 335.940,350.000 335.800 C 350.440 335.660,350.800 335.198,350.800 334.773 C 350.800 334.267,351.076 334.000,351.600 334.000 C 352.267 334.000,352.400 333.733,352.400 332.400 C 352.400 331.067,352.533 330.800,353.200 330.800 C 353.733 330.800,354.000 330.533,354.000 330.000 C 354.000 329.455,354.267 329.200,354.837 329.200 C 355.325 329.200,355.758 328.881,355.874 328.437 C 355.984 328.017,356.417 327.584,356.837 327.474 C 357.257 327.365,357.600 327.000,357.600 326.664 C 357.600 326.329,357.960 325.940,358.400 325.800 C 359.021 325.603,359.200 325.195,359.200 323.973 C 359.200 322.667,359.336 322.400,360.000 322.400 C 360.533 322.400,360.800 322.133,360.800 321.600 C 360.800 321.067,361.067 320.800,361.600 320.800 C 362.133 320.800,362.400 320.533,362.400 320.000 C 362.400 319.467,362.667 319.200,363.200 319.200 C 363.864 319.200,364.000 318.933,364.000 317.628 C 364.000 316.302,364.141 316.036,364.900 315.928 C 365.463 315.848,365.846 315.479,365.922 314.941 C 365.990 314.468,366.395 313.990,366.822 313.878 C 367.411 313.724,367.600 313.325,367.600 312.237 C 367.600 311.067,367.748 310.800,368.400 310.800 C 368.917 310.800,369.200 310.533,369.200 310.047 C 369.200 309.630,369.557 309.200,370.000 309.084 C 370.613 308.924,370.800 308.538,370.800 307.437 C 370.800 306.267,370.948 306.000,371.600 306.000 C 372.187 306.000,372.400 305.733,372.400 305.000 C 372.400 304.267,372.613 304.000,373.200 304.000 C 373.867 304.000,374.000 303.733,374.000 302.400 C 374.000 301.097,374.140 300.800,374.757 300.800 C 375.579 300.800,376.000 300.060,376.000 298.614 C 376.000 298.030,376.292 297.617,376.800 297.484 C 377.436 297.318,377.600 296.938,377.600 295.637 C 377.600 294.267,377.730 294.000,378.400 294.000 C 379.067 294.000,379.200 293.733,379.200 292.400 C 379.200 291.067,379.333 290.800,380.000 290.800 C 380.667 290.800,380.800 290.533,380.800 289.200 C 380.800 287.867,380.933 287.600,381.600 287.600 C 382.281 287.600,382.400 287.333,382.400 285.800 C 382.400 284.267,382.519 284.000,383.200 284.000 C 383.867 284.000,384.000 283.733,384.000 282.400 C 384.000 281.067,384.133 280.800,384.800 280.800 C 385.240 280.800,385.627 280.575,385.661 280.300 C 385.694 280.025,385.764 279.620,385.815 279.400 C 385.866 279.180,385.928 278.706,385.954 278.347 C 385.979 277.987,386.360 277.599,386.800 277.484 C 387.490 277.304,387.600 276.938,387.600 274.837 C 387.600 272.667,387.688 272.400,388.400 272.400 C 389.111 272.400,389.200 272.133,389.200 270.000 C 389.200 267.867,389.289 267.600,390.000 267.600 C 390.718 267.600,390.800 267.333,390.800 265.000 C 390.800 262.667,390.882 262.400,391.600 262.400 C 392.311 262.400,392.400 262.133,392.400 260.000 C 392.400 257.867,392.489 257.600,393.200 257.600 C 393.918 257.600,394.000 257.333,394.000 255.000 C 394.000 252.724,394.094 252.400,394.750 252.400 C 395.628 252.400,396.000 251.015,396.000 247.750 C 396.000 246.179,396.150 245.600,396.557 245.600 C 397.388 245.600,397.600 244.678,397.600 241.064 C 397.600 238.226,397.706 237.726,398.400 237.293 C 399.136 236.833,399.200 236.360,399.200 231.397 C 399.200 228.066,399.353 226.000,399.600 226.000 C 399.863 226.000,400.000 217.067,400.000 200.000 C 400.000 182.933,399.863 174.000,399.600 174.000 C 399.353 174.000,399.200 171.934,399.200 168.603 C 399.200 163.640,399.136 163.167,398.400 162.707 C 397.706 162.274,397.600 161.774,397.600 158.936 C 397.600 155.322,397.388 154.400,396.557 154.400 C 396.150 154.400,396.000 153.821,396.000 152.250 C 396.000 148.985,395.628 147.600,394.750 147.600 C 394.094 147.600,394.000 147.276,394.000 145.000 C 394.000 143.570,393.865 142.421,393.700 142.447 C 392.538 142.631,392.400 142.287,392.400 139.200 C 392.400 136.267,392.333 136.000,391.600 136.000 C 390.888 136.000,390.800 135.733,390.800 133.563 C 390.800 131.462,390.690 131.096,390.000 130.916 C 389.373 130.752,389.200 130.370,389.200 129.153 C 389.200 127.867,389.063 127.600,388.400 127.600 C 387.698 127.600,387.600 127.333,387.600 125.423 C 387.600 123.729,387.429 123.126,386.832 122.707 C 386.390 122.398,386.007 121.581,385.932 120.785 C 385.829 119.703,385.603 119.372,384.900 119.272 C 384.141 119.164,384.000 118.898,384.000 117.572 C 384.000 116.267,383.864 116.000,383.200 116.000 C 382.520 116.000,382.400 115.733,382.400 114.223 C 382.400 112.661,382.303 112.465,381.600 112.600 C 380.897 112.735,380.800 112.539,380.800 110.977 C 380.800 109.467,380.680 109.200,380.000 109.200 C 379.333 109.200,379.200 108.933,379.200 107.600 C 379.200 106.282,379.063 106.000,378.423 106.000 C 377.795 106.000,377.622 105.674,377.523 104.300 C 377.437 103.110,377.220 102.600,376.800 102.600 C 376.400 102.600,376.133 102.067,376.000 101.000 C 375.840 99.720,375.620 99.374,374.900 99.272 C 374.141 99.164,374.000 98.898,374.000 97.572 C 374.000 96.286,373.860 96.000,373.228 96.000 C 372.732 96.000,372.410 95.678,372.328 95.100 C 372.242 94.499,371.967 94.239,371.500 94.318 C 370.919 94.415,370.800 94.127,370.800 92.618 C 370.800 91.067,370.683 90.800,370.000 90.800 C 369.467 90.800,369.200 90.533,369.200 90.000 C 369.200 89.467,368.933 89.200,368.400 89.200 C 367.733 89.200,367.600 88.933,367.600 87.600 C 367.600 86.286,367.462 86.000,366.828 86.000 C 366.332 86.000,366.009 85.678,365.927 85.100 C 365.831 84.436,365.562 84.225,364.899 84.295 C 364.086 84.381,364.000 84.218,364.000 82.595 C 364.000 81.067,363.881 80.800,363.200 80.800 C 362.667 80.800,362.400 80.533,362.400 80.000 C 362.400 79.467,362.133 79.200,361.600 79.200 C 361.067 79.200,360.800 78.933,360.800 78.400 C 360.800 77.867,360.533 77.600,360.000 77.600 C 359.333 77.600,359.200 77.333,359.200 76.000 C 359.200 74.833,359.035 74.400,358.590 74.400 C 358.255 74.400,357.810 73.953,357.603 73.408 C 357.363 72.777,357.014 72.496,356.645 72.638 C 356.256 72.787,356.020 72.553,355.932 71.931 C 355.846 71.322,355.489 70.956,354.900 70.872 C 354.322 70.790,354.000 70.468,354.000 69.972 C 354.000 69.467,353.724 69.200,353.200 69.200 C 352.533 69.200,352.400 68.933,352.400 67.600 C 352.400 66.267,352.267 66.000,351.600 66.000 C 351.067 66.000,350.800 65.733,350.800 65.200 C 350.800 64.750,350.533 64.400,350.190 64.400 C 349.855 64.400,349.402 63.932,349.185 63.359 C 348.925 62.677,348.584 62.397,348.194 62.547 C 347.787 62.703,347.600 62.515,347.600 61.950 C 347.600 61.466,347.275 61.040,346.813 60.919 C 346.381 60.806,345.918 60.373,345.786 59.957 C 345.654 59.541,345.198 59.200,344.773 59.200 C 344.267 59.200,344.000 58.924,344.000 58.400 C 344.000 57.867,343.733 57.600,343.200 57.600 C 342.667 57.600,342.400 57.333,342.400 56.800 C 342.400 56.267,342.133 56.000,341.600 56.000 C 341.067 56.000,340.800 55.733,340.800 55.200 C 340.800 54.750,340.533 54.400,340.190 54.400 C 339.855 54.400,339.402 53.932,339.185 53.359 C 338.925 52.677,338.584 52.397,338.194 52.547 C 337.787 52.703,337.600 52.515,337.600 51.950 C 337.600 51.466,337.275 51.040,336.813 50.919 C 336.381 50.806,335.918 50.373,335.786 49.957 C 335.654 49.541,335.198 49.200,334.773 49.200 C 334.267 49.200,334.000 48.924,334.000 48.400 C 334.000 47.733,333.733 47.600,332.400 47.600 C 331.067 47.600,330.800 47.467,330.800 46.800 C 330.800 46.276,330.533 46.000,330.028 46.000 C 329.532 46.000,329.210 45.678,329.128 45.100 C 329.058 44.605,328.730 44.200,328.400 44.200 C 328.070 44.200,327.698 43.840,327.573 43.400 C 327.449 42.960,327.064 42.648,326.719 42.707 C 326.333 42.773,325.993 42.425,325.838 41.807 C 325.620 40.942,325.360 40.800,323.992 40.800 C 322.667 40.800,322.400 40.666,322.400 40.000 C 322.400 39.467,322.133 39.200,321.600 39.200 C 321.067 39.200,320.800 38.933,320.800 38.400 C 320.800 37.867,320.533 37.600,320.000 37.600 C 319.467 37.600,319.200 37.333,319.200 36.800 C 319.200 36.136,318.933 36.000,317.628 36.000 C 316.302 36.000,316.035 35.859,315.927 35.100 C 315.833 34.446,315.560 34.225,314.925 34.291 C 314.293 34.356,314.018 34.136,313.927 33.491 C 313.804 32.628,313.627 32.545,311.700 32.446 C 311.082 32.414,310.800 32.149,310.800 31.600 C 310.800 31.083,310.533 30.800,310.047 30.800 C 309.630 30.800,309.200 30.443,309.084 30.000 C 308.925 29.394,308.538 29.200,307.484 29.200 C 306.430 29.200,306.043 29.006,305.884 28.400 C 305.759 27.921,305.338 27.600,304.837 27.600 C 304.267 27.600,304.000 27.345,304.000 26.800 C 304.000 26.133,303.733 26.000,302.400 26.000 C 301.067 26.000,300.800 25.867,300.800 25.200 C 300.800 24.422,300.257 24.200,298.687 24.334 C 298.294 24.368,297.857 24.081,297.716 23.698 C 297.351 22.708,296.933 22.510,295.373 22.588 C 294.184 22.648,294.000 22.533,294.000 21.728 C 294.000 20.912,293.807 20.800,292.400 20.800 C 291.067 20.800,290.800 20.667,290.800 20.000 C 290.800 19.333,290.533 19.200,289.200 19.200 C 287.867 19.200,287.600 19.067,287.600 18.400 C 287.600 17.719,287.333 17.600,285.800 17.600 C 284.267 17.600,284.000 17.481,284.000 16.800 C 284.000 16.133,283.733 16.000,282.400 16.000 C 281.067 16.000,280.800 15.867,280.800 15.200 C 280.800 14.436,280.598 14.346,278.642 14.241 C 278.226 14.218,277.757 13.840,277.602 13.400 C 277.381 12.776,276.932 12.589,275.560 12.549 C 272.499 12.461,272.400 12.431,272.400 11.600 C 272.400 10.889,272.133 10.800,270.000 10.800 C 267.867 10.800,267.600 10.711,267.600 10.000 C 267.600 9.282,267.333 9.200,265.000 9.200 C 262.667 9.200,262.400 9.118,262.400 8.400 C 262.400 7.689,262.133 7.600,260.000 7.600 C 257.867 7.600,257.600 7.511,257.600 6.800 C 257.600 6.082,257.333 6.000,255.000 6.000 C 252.667 6.000,252.400 5.918,252.400 5.200 C 252.400 4.610,252.111 4.382,251.300 4.333 C 250.695 4.296,249.750 4.236,249.200 4.200 C 248.650 4.164,247.615 4.104,246.900 4.067 C 246.041 4.023,245.600 3.797,245.600 3.400 C 245.600 2.697,245.924 2.761,241.447 2.575 C 238.426 2.450,237.809 2.306,237.325 1.614 C 236.799 0.864,236.332 0.800,231.377 0.800 C 228.059 0.800,226.000 0.647,226.000 0.400 C 226.000 0.137,217.067 0.000,200.000 0.000 C 182.933 0.000,174.000 0.137,174.000 0.400 M186.000 46.800 C 186.000 47.480,185.733 47.600,184.223 47.600 C 182.661 47.600,182.465 47.697,182.600 48.400 C 182.735 49.103,182.539 49.200,180.977 49.200 L 179.200 49.200 179.200 53.400 C 179.200 57.333,179.251 57.600,180.000 57.600 C 180.533 57.600,180.800 57.867,180.800 58.400 C 180.800 59.129,181.067 59.200,183.797 59.200 C 186.360 59.200,186.865 59.084,187.293 58.400 C 187.568 57.960,188.184 57.600,188.664 57.600 C 189.953 57.600,190.800 57.187,190.800 56.557 C 190.800 56.138,191.444 56.000,193.400 56.000 C 195.733 56.000,196.000 56.082,196.000 56.800 C 196.000 57.467,196.267 57.600,197.600 57.600 C 198.933 57.600,199.200 57.733,199.200 58.400 C 199.200 58.933,199.467 59.200,200.000 59.200 C 200.533 59.200,200.800 59.467,200.800 60.000 C 200.800 60.568,201.067 60.800,201.721 60.800 C 202.540 60.800,202.634 60.977,202.573 62.400 C 202.513 63.789,202.617 64.000,203.358 64.000 C 204.097 64.000,204.211 64.229,204.206 65.700 C 204.201 67.161,204.327 67.418,205.100 67.528 C 205.678 67.610,206.000 67.932,206.000 68.428 C 206.000 69.625,211.971 69.599,212.284 68.400 C 212.441 67.799,212.830 67.600,213.843 67.600 C 214.760 67.600,215.354 67.343,215.693 66.800 C 216.297 65.832,219.200 65.631,219.200 66.557 C 219.200 67.314,220.092 67.600,222.450 67.600 C 224.119 67.600,224.416 67.712,224.318 68.300 C 224.239 68.767,224.499 69.042,225.100 69.128 C 225.678 69.210,226.000 69.532,226.000 70.028 C 226.000 70.533,226.276 70.800,226.800 70.800 C 227.467 70.800,227.600 71.067,227.600 72.400 C 227.600 73.733,227.733 74.000,228.400 74.000 C 229.081 74.000,229.200 74.267,229.200 75.800 C 229.200 77.333,229.319 77.600,230.000 77.600 C 230.533 77.600,230.800 77.867,230.800 78.400 C 230.800 79.594,237.163 79.629,237.474 78.437 C 237.584 78.017,238.017 77.584,238.437 77.474 C 239.630 77.163,239.595 69.629,238.400 69.316 C 237.794 69.157,237.600 68.770,237.600 67.716 C 237.600 66.675,237.404 66.274,236.822 66.122 C 236.395 66.010,235.989 65.532,235.921 65.059 C 235.833 64.445,235.549 64.226,234.925 64.291 C 234.293 64.356,234.018 64.136,233.926 63.491 C 233.846 62.929,233.541 62.621,233.100 62.656 C 232.613 62.694,232.400 62.420,232.400 61.756 C 232.400 61.067,232.177 60.800,231.600 60.800 C 231.067 60.800,230.800 60.533,230.800 60.000 C 230.800 59.333,230.533 59.200,229.200 59.200 C 227.867 59.200,227.600 59.067,227.600 58.400 C 227.600 57.719,227.333 57.600,225.800 57.600 C 224.267 57.600,224.000 57.481,224.000 56.800 C 224.000 56.032,223.733 56.000,217.428 56.000 C 210.917 56.000,210.854 55.992,210.728 55.100 C 210.647 54.530,210.343 54.220,209.900 54.256 C 209.410 54.294,209.200 54.019,209.200 53.338 C 209.200 52.633,209.007 52.397,208.500 52.482 C 208.033 52.561,207.758 52.301,207.672 51.700 C 207.593 51.144,207.267 50.800,206.819 50.800 C 206.420 50.800,205.999 50.440,205.884 50.000 C 205.759 49.521,205.338 49.200,204.837 49.200 C 204.267 49.200,204.000 48.945,204.000 48.400 C 204.000 47.689,203.733 47.600,201.600 47.600 C 199.467 47.600,199.200 47.511,199.200 46.800 C 199.200 46.032,198.933 46.000,192.600 46.000 C 186.267 46.000,186.000 46.032,186.000 46.800 M144.390 64.570 C 144.175 64.785,144.000 65.194,144.000 65.480 C 144.000 65.820,143.446 66.000,142.400 66.000 C 141.067 66.000,140.800 66.133,140.800 66.800 C 140.800 67.333,140.533 67.600,140.000 67.600 C 138.682 67.600,138.780 75.479,140.101 75.811 C 142.554 76.427,147.395 75.833,147.528 74.900 C 147.721 73.539,157.600 73.478,157.600 74.837 C 157.600 75.338,157.921 75.759,158.400 75.884 C 158.840 75.999,159.200 76.359,159.200 76.684 C 159.200 77.009,159.560 77.369,160.000 77.484 C 160.440 77.599,160.800 77.947,160.800 78.257 C 160.800 78.566,161.241 78.988,161.780 79.193 C 162.484 79.460,162.715 79.801,162.600 80.401 C 162.385 81.516,162.758 82.400,163.443 82.400 C 163.943 82.400,164.172 82.883,164.052 83.686 C 163.780 85.505,164.733 86.000,168.490 85.995 C 172.965 85.988,174.000 85.755,174.000 84.753 C 174.000 83.393,182.220 83.630,182.564 85.000 C 182.720 85.619,183.099 86.000,183.561 86.000 C 183.971 86.000,184.401 86.360,184.516 86.800 C 184.631 87.240,185.012 87.600,185.363 87.600 C 185.733 87.600,186.000 87.935,186.000 88.400 C 186.000 88.933,186.267 89.200,186.800 89.200 C 187.467 89.200,187.600 89.467,187.600 90.800 C 187.600 92.133,187.733 92.400,188.400 92.400 C 189.066 92.400,189.200 92.667,189.200 93.992 C 189.200 95.931,189.611 96.089,194.201 95.919 C 197.172 95.808,197.409 95.736,197.528 94.900 C 197.610 94.322,197.932 94.000,198.428 94.000 C 199.126 94.000,199.200 93.695,199.200 90.800 C 199.200 87.898,199.128 87.600,198.423 87.600 C 197.795 87.600,197.622 87.274,197.523 85.900 C 197.427 84.568,197.248 84.212,196.700 84.256 C 196.186 84.296,196.000 84.012,196.000 83.188 C 196.000 81.544,195.613 80.800,194.757 80.800 C 194.267 80.800,194.000 80.518,194.000 80.000 C 194.000 79.467,193.733 79.200,193.200 79.200 C 192.667 79.200,192.400 78.933,192.400 78.400 C 192.400 77.733,192.133 77.600,190.800 77.600 C 189.467 77.600,189.200 77.467,189.200 76.800 C 189.200 76.133,188.933 76.000,187.600 76.000 C 186.297 76.000,186.000 75.860,186.000 75.243 C 186.000 74.149,185.716 74.112,177.900 74.179 L 170.800 74.239 170.800 72.682 C 170.800 71.487,170.623 71.079,170.037 70.926 C 169.617 70.816,169.184 70.383,169.074 69.963 C 168.965 69.543,168.609 69.200,168.284 69.200 C 167.959 69.200,167.599 68.840,167.484 68.400 C 167.318 67.764,166.938 67.600,165.637 67.600 C 164.267 67.600,164.000 67.470,164.000 66.800 C 164.000 66.136,163.733 66.000,162.428 66.000 C 161.104 66.000,160.835 65.858,160.728 65.104 C 160.588 64.125,145.333 63.627,144.390 64.570 M288.567 87.443 C 288.977 87.600,289.200 88.177,289.200 89.080 C 289.200 90.126,289.395 90.526,289.978 90.678 C 290.535 90.824,290.791 91.293,290.878 92.325 C 290.966 93.369,291.221 93.828,291.800 93.984 C 292.407 94.148,292.600 94.539,292.600 95.600 C 292.600 96.659,292.815 97.094,293.480 97.386 C 293.964 97.599,294.340 98.049,294.317 98.386 C 294.192 100.147,294.431 100.800,295.200 100.800 C 295.867 100.800,296.000 101.067,296.000 102.400 C 296.000 103.733,296.133 104.000,296.800 104.000 C 297.464 104.000,297.600 104.267,297.600 105.573 C 297.600 106.795,297.779 107.203,298.400 107.400 C 299.001 107.591,299.200 108.005,299.200 109.064 C 299.200 110.138,299.391 110.525,300.000 110.684 C 300.443 110.800,300.800 111.230,300.800 111.647 C 300.800 112.133,301.083 112.400,301.600 112.400 C 302.319 112.400,302.629 113.048,302.434 114.141 C 302.298 114.896,302.888 116.000,303.427 116.000 C 303.968 116.000,304.061 116.279,304.159 118.200 C 304.185 118.709,304.527 119.046,305.100 119.128 C 305.859 119.236,306.000 119.502,306.000 120.828 C 306.000 122.133,306.136 122.400,306.800 122.400 C 307.470 122.400,307.600 122.667,307.600 124.037 C 307.600 125.338,307.764 125.718,308.400 125.884 C 309.027 126.048,309.200 126.430,309.200 127.647 C 309.200 128.933,309.337 129.200,310.000 129.200 C 310.667 129.200,310.800 129.467,310.800 130.800 C 310.800 132.133,310.933 132.400,311.600 132.400 C 312.040 132.400,312.415 132.625,312.434 132.900 C 312.453 133.175,312.512 133.985,312.564 134.700 L 312.659 136.000 287.530 136.000 L 262.400 136.000 262.400 134.200 C 262.400 132.667,262.519 132.400,263.200 132.400 C 263.864 132.400,264.000 132.133,264.000 130.828 C 264.000 129.502,264.141 129.236,264.900 129.128 C 265.618 129.026,265.825 128.704,265.922 127.541 C 266.009 126.493,266.263 126.025,266.822 125.878 C 267.433 125.719,267.600 125.323,267.600 124.037 C 267.600 122.667,267.730 122.400,268.400 122.400 C 269.067 122.400,269.200 122.133,269.200 120.800 C 269.200 119.467,269.333 119.200,270.000 119.200 C 270.667 119.200,270.800 118.933,270.800 117.600 C 270.800 116.267,270.933 116.000,271.600 116.000 C 272.281 116.000,272.400 115.733,272.400 114.200 C 272.400 112.667,272.519 112.400,273.200 112.400 C 273.864 112.400,274.000 112.133,274.000 110.828 C 274.000 109.502,274.141 109.236,274.900 109.128 C 275.618 109.026,275.825 108.704,275.922 107.541 C 276.009 106.493,276.263 106.025,276.822 105.878 C 277.433 105.719,277.600 105.323,277.600 104.037 C 277.600 102.667,277.730 102.400,278.400 102.400 C 279.067 102.400,279.200 102.133,279.200 100.800 C 279.200 99.467,279.333 99.200,280.000 99.200 C 280.667 99.200,280.800 98.933,280.800 97.600 C 280.800 96.267,280.933 96.000,281.600 96.000 C 282.187 96.000,282.400 95.733,282.400 95.000 C 282.400 94.267,282.613 94.000,283.200 94.000 C 283.867 94.000,284.000 93.733,284.000 92.400 C 284.000 91.097,284.140 90.800,284.757 90.800 C 285.582 90.800,286.000 90.059,286.000 88.597 C 286.000 87.770,286.368 87.472,287.667 87.246 C 287.814 87.221,288.219 87.309,288.567 87.443 M97.600 101.756 C 97.600 102.420,97.387 102.694,96.900 102.656 C 96.252 102.604,96.192 103.392,96.093 113.300 C 95.989 123.797,96.002 124.000,96.793 124.000 C 97.387 124.000,97.600 124.264,97.600 125.000 C 97.600 125.995,97.619 126.000,101.320 126.000 C 106.369 126.000,106.000 126.949,106.000 113.963 L 106.000 102.887 105.000 102.636 C 104.354 102.474,104.000 102.104,104.000 101.592 C 104.000 100.869,103.723 100.800,100.800 100.800 C 97.693 100.800,97.600 100.828,97.600 101.756 M62.447 116.300 C 62.587 117.184,62.316 117.600,61.600 117.600 C 60.867 117.600,60.800 117.867,60.800 120.800 C 60.800 123.966,60.811 124.000,61.824 124.000 C 62.387 124.000,62.746 124.164,62.622 124.364 C 62.240 124.982,62.848 126.000,63.598 126.000 C 64.032 126.000,64.289 126.274,64.256 126.700 C 64.220 127.143,64.530 127.447,65.100 127.528 C 65.678 127.610,66.000 127.932,66.000 128.428 C 66.000 128.933,66.276 129.200,66.800 129.200 C 67.333 129.200,67.600 129.467,67.600 130.000 C 67.600 130.533,67.867 130.800,68.400 130.800 C 68.933 130.800,69.200 131.067,69.200 131.600 C 69.200 132.133,69.467 132.400,70.000 132.400 C 70.524 132.400,70.800 132.667,70.800 133.172 C 70.800 133.668,71.122 133.990,71.700 134.072 C 72.195 134.142,72.623 134.425,72.650 134.700 C 72.677 134.975,72.723 135.387,72.750 135.614 C 72.782 135.878,74.225 135.987,76.700 135.914 L 80.600 135.800 80.714 131.700 C 80.822 127.806,80.787 127.600,80.014 127.600 C 79.467 127.600,79.200 127.338,79.200 126.800 C 79.200 126.276,78.933 126.000,78.428 126.000 C 77.932 126.000,77.610 125.678,77.528 125.100 C 77.447 124.530,77.143 124.220,76.700 124.256 C 76.274 124.289,76.000 124.032,76.000 123.598 C 76.000 122.848,74.982 122.240,74.364 122.622 C 74.164 122.746,74.000 122.387,74.000 121.824 C 74.000 121.067,73.792 120.800,73.200 120.800 C 72.667 120.800,72.400 120.533,72.400 120.000 C 72.400 119.467,72.133 119.200,71.600 119.200 C 71.067 119.200,70.800 118.933,70.800 118.400 C 70.800 117.867,70.533 117.600,70.000 117.600 C 69.467 117.600,69.200 117.333,69.200 116.800 C 69.200 116.063,68.933 116.000,65.800 116.000 C 63.930 116.000,62.421 116.135,62.447 116.300 M132.600 116.800 C 132.460 117.240,131.998 117.600,131.573 117.600 C 131.067 117.600,130.800 117.876,130.800 118.400 C 130.800 118.933,130.533 119.200,130.000 119.200 C 129.467 119.200,129.200 119.467,129.200 120.000 C 129.200 120.533,128.933 120.800,128.400 120.800 C 127.816 120.800,127.600 121.067,127.600 121.787 C 127.600 122.497,127.433 122.711,127.006 122.547 C 126.616 122.397,126.275 122.677,126.015 123.359 C 125.798 123.932,125.345 124.400,125.010 124.400 C 124.674 124.400,124.400 124.674,124.400 125.010 C 124.400 125.345,123.932 125.798,123.359 126.015 C 122.702 126.265,122.399 126.621,122.537 126.981 C 122.679 127.350,122.447 127.594,121.878 127.675 C 120.379 127.888,120.319 135.037,121.811 135.604 C 124.347 136.568,130.800 135.955,130.800 134.750 C 130.800 134.267,131.084 134.000,131.600 134.000 C 132.133 134.000,132.400 133.733,132.400 133.200 C 132.400 132.667,132.667 132.400,133.200 132.400 C 133.733 132.400,134.000 132.133,134.000 131.600 C 134.000 131.067,134.267 130.800,134.800 130.800 C 135.333 130.800,135.600 130.533,135.600 130.000 C 135.600 129.560,135.806 129.200,136.057 129.200 C 136.681 129.200,139.190 126.721,139.196 126.100 C 139.198 125.825,139.560 125.600,140.000 125.600 C 140.747 125.600,140.800 125.333,140.800 121.600 C 140.800 117.867,140.747 117.600,140.000 117.600 C 139.467 117.600,139.200 117.333,139.200 116.800 C 139.200 116.067,138.933 116.000,136.027 116.000 C 133.205 116.000,132.826 116.089,132.600 116.800 M94.195 131.700 C 93.874 132.430,93.461 132.608,92.000 132.642 C 89.294 132.706,89.200 132.737,89.200 133.595 C 89.200 134.108,88.952 134.370,88.500 134.332 C 86.686 134.180,86.000 134.418,86.000 135.200 C 86.000 135.717,85.733 136.000,85.247 136.000 C 84.830 136.000,84.400 136.357,84.284 136.800 C 84.155 137.294,83.738 137.600,83.195 137.600 C 82.568 137.600,82.382 137.777,82.550 138.213 C 82.705 138.618,82.457 138.950,81.818 139.193 C 81.068 139.478,80.822 139.903,80.725 141.080 C 80.627 142.270,80.448 142.574,79.900 142.482 C 79.415 142.401,79.200 142.628,79.200 143.220 C 79.200 143.738,78.885 144.157,78.400 144.284 C 77.714 144.463,77.600 144.830,77.600 146.847 C 77.600 148.933,77.509 149.200,76.800 149.200 C 76.029 149.200,76.000 149.467,76.000 156.600 C 76.000 163.733,76.029 164.000,76.800 164.000 C 77.481 164.000,77.600 164.267,77.600 165.800 C 77.600 167.333,77.719 167.600,78.400 167.600 C 79.067 167.600,79.200 167.867,79.200 169.200 C 79.200 170.533,79.333 170.800,80.000 170.800 C 80.533 170.800,80.800 171.067,80.800 171.600 C 80.800 172.117,81.067 172.400,81.553 172.400 C 81.970 172.400,82.400 172.757,82.516 173.200 C 82.641 173.677,83.062 174.000,83.558 174.000 C 84.183 174.000,84.367 174.224,84.295 174.899 C 84.225 175.562,84.436 175.831,85.100 175.927 C 85.678 176.009,86.000 176.332,86.000 176.828 C 86.000 177.333,86.276 177.600,86.800 177.600 C 87.333 177.600,87.600 177.867,87.600 178.400 C 87.600 179.063,87.867 179.200,89.153 179.200 C 90.370 179.200,90.752 179.373,90.916 180.000 C 91.118 180.773,91.462 180.800,100.963 180.800 C 110.533 180.800,110.800 180.778,110.800 180.000 C 110.800 179.333,111.067 179.200,112.400 179.200 C 113.733 179.200,114.000 179.067,114.000 178.400 C 114.000 177.730,114.267 177.600,115.637 177.600 C 116.912 177.600,117.319 177.431,117.474 176.837 C 117.584 176.417,118.017 175.984,118.437 175.874 C 118.881 175.758,119.200 175.325,119.200 174.837 C 119.200 174.267,119.455 174.000,120.000 174.000 C 120.533 174.000,120.800 173.733,120.800 173.200 C 120.800 172.667,121.067 172.400,121.600 172.400 C 122.267 172.400,122.400 172.133,122.400 170.800 C 122.400 169.467,122.533 169.200,123.200 169.200 C 123.858 169.200,124.000 168.933,124.000 167.695 C 124.000 166.518,124.196 166.104,124.900 165.795 C 126.573 165.061,126.453 146.000,124.775 146.000 C 124.140 146.000,124.000 145.717,124.000 144.427 C 124.000 143.205,123.821 142.797,123.200 142.600 C 122.760 142.460,122.400 141.998,122.400 141.573 C 122.400 141.067,122.124 140.800,121.600 140.800 C 121.067 140.800,120.800 140.533,120.800 140.000 C 120.800 139.467,120.533 139.200,120.000 139.200 C 119.467 139.200,119.200 138.933,119.200 138.400 C 119.200 137.867,118.933 137.600,118.400 137.600 C 117.867 137.600,117.600 137.333,117.600 136.800 C 117.600 136.267,117.333 136.000,116.800 136.000 C 116.348 136.000,116.000 135.733,116.000 135.387 C 116.000 134.741,115.297 134.348,113.865 134.195 C 113.389 134.144,112.865 134.079,112.700 134.051 C 112.535 134.023,112.400 133.669,112.400 133.265 C 112.400 132.635,112.081 132.536,110.154 132.571 C 108.171 132.606,107.868 132.505,107.564 131.705 C 107.027 130.292,94.815 130.287,94.195 131.700 M104.200 141.600 C 104.397 142.221,104.805 142.400,106.027 142.400 C 107.333 142.400,107.600 142.536,107.600 143.200 C 107.600 143.867,107.867 144.000,109.200 144.000 C 110.557 144.000,110.800 144.127,110.800 144.837 C 110.800 145.334,111.120 145.759,111.587 145.881 C 112.019 145.994,112.482 146.427,112.614 146.843 C 112.746 147.259,113.112 147.600,113.427 147.600 C 113.742 147.600,114.027 147.825,114.059 148.100 C 114.092 148.375,114.155 148.870,114.200 149.200 C 114.245 149.530,114.308 150.025,114.341 150.300 C 114.373 150.575,114.760 150.800,115.200 150.800 C 115.957 150.800,116.000 151.067,116.000 155.800 C 116.000 160.438,115.945 160.800,115.243 160.800 C 114.420 160.800,113.833 162.300,114.241 163.363 C 114.406 163.793,114.144 164.117,113.400 164.400 C 112.686 164.671,112.396 165.013,112.547 165.406 C 112.711 165.833,112.497 166.000,111.787 166.000 C 111.244 166.000,110.821 166.135,110.847 166.300 C 110.987 167.184,110.716 167.600,110.000 167.600 C 109.467 167.600,109.200 167.867,109.200 168.400 C 109.200 169.052,108.933 169.200,107.763 169.200 C 106.662 169.200,106.276 169.387,106.116 170.000 C 105.921 170.745,105.570 170.800,101.000 170.800 C 96.430 170.800,96.079 170.745,95.884 170.000 C 95.718 169.364,95.338 169.200,94.037 169.200 C 92.667 169.200,92.400 169.070,92.400 168.400 C 92.400 167.867,92.133 167.600,91.600 167.600 C 91.067 167.600,90.800 167.333,90.800 166.800 C 90.800 166.267,90.533 166.000,90.000 166.000 C 89.353 166.000,89.200 165.733,89.200 164.603 C 89.200 163.640,88.952 163.052,88.400 162.707 C 87.830 162.351,87.600 161.774,87.600 160.704 C 87.600 159.467,87.458 159.200,86.800 159.200 C 86.082 159.200,86.000 158.933,86.000 156.600 C 86.000 154.644,86.138 154.000,86.557 154.000 C 87.296 154.000,87.600 153.114,87.600 150.967 C 87.600 149.467,87.721 149.200,88.400 149.200 C 88.933 149.200,89.200 148.933,89.200 148.400 C 89.200 147.935,89.467 147.600,89.837 147.600 C 90.188 147.600,90.567 147.246,90.681 146.813 C 90.794 146.381,91.227 145.918,91.643 145.786 C 92.059 145.654,92.400 145.198,92.400 144.773 C 92.400 144.267,92.676 144.000,93.200 144.000 C 93.733 144.000,94.000 143.733,94.000 143.200 C 94.000 142.488,94.267 142.400,96.437 142.400 C 98.538 142.400,98.904 142.290,99.084 141.600 C 99.263 140.916,99.630 140.800,101.620 140.800 C 103.595 140.800,103.984 140.921,104.200 141.600 M317.600 175.773 C 317.600 205.195,317.609 205.549,318.400 205.800 C 319.191 206.051,319.200 206.405,319.200 236.600 C 319.200 266.795,319.209 267.149,320.000 267.400 C 320.791 267.651,320.800 268.005,320.800 298.264 C 320.800 327.718,320.828 328.882,321.540 329.069 C 322.460 329.309,322.914 335.731,322.524 343.000 L 322.278 347.600 320.901 347.600 C 319.862 347.600,319.474 347.796,319.316 348.400 C 319.200 348.843,318.770 349.200,318.353 349.200 C 317.867 349.200,317.600 349.483,317.600 350.000 C 317.600 350.533,317.333 350.800,316.800 350.800 C 316.208 350.800,316.000 351.067,316.000 351.824 C 316.000 352.387,315.836 352.746,315.636 352.622 C 315.032 352.249,313.939 352.864,314.164 353.452 C 314.280 353.753,314.156 354.027,313.887 354.059 C 313.619 354.092,313.130 354.155,312.800 354.200 C 312.470 354.245,311.885 354.308,311.500 354.341 C 311.086 354.376,310.800 354.727,310.800 355.200 C 310.800 355.733,310.533 356.000,310.000 356.000 C 309.467 356.000,309.200 356.267,309.200 356.800 C 309.200 357.467,308.933 357.600,307.600 357.600 C 306.267 357.600,306.000 357.733,306.000 358.400 C 306.000 358.924,305.733 359.200,305.227 359.200 C 304.802 359.200,304.343 359.550,304.207 359.977 C 304.033 360.525,303.528 360.790,302.496 360.877 C 301.399 360.969,300.977 361.212,300.816 361.843 C 300.683 362.361,300.330 362.644,299.900 362.578 C 299.440 362.508,299.200 362.733,299.200 363.235 C 299.200 363.656,298.975 364.027,298.700 364.059 C 298.425 364.092,297.930 364.155,297.600 364.200 C 297.270 364.245,296.775 364.308,296.500 364.341 C 296.225 364.373,296.000 364.760,296.000 365.200 C 296.000 365.864,295.733 366.000,294.433 366.000 C 293.554 366.000,292.778 366.219,292.665 366.500 C 292.554 366.775,292.449 317.275,292.432 256.500 L 292.400 146.000 305.000 146.000 L 317.600 146.000 317.600 175.773 M47.600 151.756 C 47.600 152.420,47.387 152.694,46.900 152.656 C 46.294 152.607,46.184 153.043,46.084 155.900 C 45.975 158.993,46.019 159.200,46.784 159.200 C 47.333 159.200,47.600 159.461,47.600 160.000 C 47.600 160.782,47.867 160.800,59.200 160.800 L 70.800 160.800 70.800 156.573 C 70.800 152.528,70.766 152.357,70.000 152.600 C 69.342 152.809,69.200 152.672,69.200 151.827 L 69.200 150.800 58.400 150.800 L 47.600 150.800 47.600 151.756 M132.942 151.051 C 132.691 151.154,132.577 151.591,132.690 152.023 C 132.856 152.657,132.713 152.788,131.948 152.704 C 131.027 152.603,130.997 152.694,130.884 155.900 L 130.768 159.200 131.811 159.200 C 132.675 159.200,132.810 159.339,132.598 160.006 C 132.345 160.803,132.471 160.811,144.071 160.706 L 155.800 160.600 155.916 156.833 C 156.033 153.028,155.736 152.139,154.500 152.592 C 154.186 152.707,154.000 152.408,154.000 151.787 L 154.000 150.800 143.700 150.832 C 138.035 150.849,133.194 150.948,132.942 151.051 M72.750 174.493 C 72.723 174.662,72.677 175.025,72.650 175.300 C 72.623 175.575,72.195 175.858,71.700 175.928 C 71.122 176.010,70.800 176.332,70.800 176.828 C 70.800 177.333,70.524 177.600,70.000 177.600 C 69.467 177.600,69.200 177.867,69.200 178.400 C 69.200 178.933,68.933 179.200,68.400 179.200 C 67.867 179.200,67.600 179.467,67.600 180.000 C 67.600 180.533,67.333 180.800,66.800 180.800 C 66.208 180.800,66.000 181.067,66.000 181.824 C 66.000 182.387,65.836 182.746,65.636 182.622 C 64.901 182.168,63.969 182.872,64.228 183.687 C 64.434 184.338,64.338 184.434,63.687 184.228 C 62.872 183.969,62.168 184.901,62.622 185.636 C 62.746 185.836,62.387 186.000,61.824 186.000 C 60.811 186.000,60.800 186.034,60.800 189.200 C 60.800 192.307,60.828 192.400,61.756 192.400 C 62.420 192.400,62.694 192.613,62.656 193.100 C 62.607 193.706,63.043 193.816,65.900 193.916 C 68.993 194.025,69.200 193.981,69.200 193.216 C 69.200 192.667,69.461 192.400,70.000 192.400 C 70.533 192.400,70.800 192.133,70.800 191.600 C 70.800 191.067,71.067 190.800,71.600 190.800 C 72.133 190.800,72.400 190.533,72.400 190.000 C 72.400 189.467,72.667 189.200,73.200 189.200 C 73.733 189.200,74.000 188.933,74.000 188.400 C 74.000 187.855,74.267 187.600,74.837 187.600 C 75.325 187.600,75.758 187.281,75.874 186.837 C 75.984 186.417,76.417 185.984,76.837 185.874 C 77.281 185.758,77.600 185.325,77.600 184.837 C 77.600 184.267,77.855 184.000,78.400 184.000 C 78.933 184.000,79.200 183.733,79.200 183.200 C 79.200 182.662,79.467 182.400,80.014 182.400 C 80.787 182.400,80.822 182.194,80.714 178.300 L 80.600 174.200 76.700 174.193 C 74.555 174.189,72.778 174.324,72.750 174.493 M122.739 174.382 C 122.706 174.502,122.661 174.870,122.639 175.200 C 122.618 175.530,122.188 175.858,121.684 175.930 C 120.303 176.126,120.485 182.127,121.878 182.325 C 122.469 182.409,122.681 182.645,122.526 183.049 C 122.376 183.440,122.602 183.728,123.179 183.879 C 123.664 184.005,124.223 184.535,124.421 185.055 C 124.618 185.575,125.055 186.000,125.390 186.000 C 125.726 186.000,126.000 186.287,126.000 186.637 C 126.000 186.988,126.360 187.369,126.800 187.484 C 127.243 187.600,127.600 188.030,127.600 188.447 C 127.600 188.933,127.883 189.200,128.400 189.200 C 128.933 189.200,129.200 189.467,129.200 190.000 C 129.200 190.533,129.467 190.800,130.000 190.800 C 130.533 190.800,130.800 191.067,130.800 191.600 C 130.800 192.124,131.067 192.400,131.573 192.400 C 131.999 192.400,132.462 192.765,132.604 193.214 C 132.844 193.970,133.140 194.020,136.731 193.914 L 140.600 193.800 140.713 189.100 C 140.809 185.065,140.737 184.400,140.203 184.400 C 139.860 184.400,139.402 183.932,139.185 183.359 C 138.925 182.677,138.584 182.397,138.194 182.547 C 137.787 182.703,137.600 182.515,137.600 181.950 C 137.600 181.466,137.275 181.040,136.813 180.919 C 136.381 180.806,135.918 180.373,135.786 179.957 C 135.654 179.541,135.198 179.200,134.773 179.200 C 134.267 179.200,134.000 178.924,134.000 178.400 C 134.000 177.867,133.733 177.600,133.200 177.600 C 132.667 177.600,132.400 177.333,132.400 176.800 C 132.400 176.267,132.133 176.000,131.600 176.000 C 131.067 176.000,130.800 175.733,130.800 175.200 C 130.800 174.760,130.575 174.376,130.300 174.347 C 128.662 174.173,122.790 174.201,122.739 174.382 M97.600 185.061 C 97.600 185.733,97.373 186.000,96.800 186.000 C 96.020 186.000,96.000 186.267,96.000 196.800 C 96.000 207.333,96.020 207.600,96.800 207.600 C 97.333 207.600,97.600 207.867,97.600 208.400 C 97.600 209.133,97.867 209.200,100.800 209.200 C 103.695 209.200,104.000 209.126,104.000 208.428 C 104.000 207.932,104.322 207.610,104.900 207.528 L 105.800 207.400 105.906 196.226 C 105.976 188.969,105.869 184.909,105.602 184.642 C 104.629 183.669,97.600 184.037,97.600 185.061 M246.000 250.800 L 246.000 254.000 131.000 254.000 L 16.000 254.000 16.000 252.050 C 16.000 250.978,15.888 249.538,15.750 248.850 L 15.500 247.600 130.750 247.600 L 246.000 247.600 246.000 250.800 M384.270 250.900 L 384.200 254.200 356.700 254.095 L 329.200 253.989 329.200 250.795 L 329.200 247.600 356.770 247.600 L 384.340 247.600 384.270 250.900 M29.200 269.247 C 29.200 274.492,29.200 274.493,28.300 274.252 C 27.805 274.119,27.097 274.008,26.727 274.005 C 26.357 274.002,25.944 273.652,25.809 273.227 C 25.618 272.627,25.233 272.471,24.082 272.527 L 22.600 272.600 22.481 270.100 C 22.377 267.928,22.259 267.600,21.581 267.600 C 20.939 267.600,20.800 267.321,20.800 266.033 C 20.800 265.154,20.581 264.378,20.300 264.265 C 20.025 264.154,21.915 264.049,24.500 264.032 L 29.200 264.000 29.200 269.247 M60.800 277.400 C 60.800 290.257,60.769 290.800,60.047 290.800 C 59.630 290.800,59.200 290.443,59.084 290.000 C 58.924 289.387,58.538 289.200,57.437 289.200 C 56.267 289.200,56.000 289.052,56.000 288.400 C 56.000 287.813,55.733 287.600,55.000 287.600 C 54.267 287.600,54.000 287.387,54.000 286.800 C 54.000 286.267,53.733 286.000,53.200 286.000 C 52.667 286.000,52.400 285.733,52.400 285.200 C 52.400 284.418,51.853 284.198,50.263 284.338 C 49.828 284.377,49.440 284.076,49.316 283.602 C 49.201 283.161,48.903 282.773,48.653 282.741 C 48.404 282.708,47.930 282.645,47.600 282.600 C 47.270 282.555,46.796 282.492,46.547 282.459 C 46.297 282.427,45.999 282.040,45.884 281.600 C 45.718 280.964,45.338 280.800,44.037 280.800 C 42.667 280.800,42.400 280.670,42.400 280.000 C 42.400 279.333,42.133 279.200,40.800 279.200 L 39.200 279.200 39.200 271.600 L 39.200 264.000 50.000 264.000 L 60.800 264.000 60.800 277.400 M94.000 292.400 L 94.000 320.800 88.200 320.800 L 82.400 320.800 82.400 319.200 C 82.400 317.867,82.267 317.600,81.600 317.600 C 80.933 317.600,80.800 317.333,80.800 316.000 C 80.800 314.686,80.662 314.400,80.028 314.400 C 79.532 314.400,79.210 314.078,79.128 313.500 C 79.058 313.005,78.730 312.600,78.400 312.600 C 77.992 312.600,77.759 312.105,77.673 311.056 C 77.583 309.959,77.333 309.455,76.810 309.319 C 76.405 309.213,75.984 308.783,75.874 308.363 C 75.758 307.919,75.325 307.600,74.837 307.600 C 74.127 307.600,74.000 307.357,74.000 306.000 C 74.000 304.667,73.867 304.400,73.200 304.400 C 72.411 304.400,72.400 304.133,72.400 284.200 L 72.400 264.000 83.200 264.000 L 94.000 264.000 94.000 292.400 M126.000 284.037 C 126.000 303.738,125.987 304.078,125.200 304.284 C 124.760 304.399,124.379 304.787,124.354 305.147 C 124.328 305.506,124.266 305.980,124.215 306.200 C 124.164 306.420,124.094 306.825,124.061 307.100 C 124.027 307.375,123.621 307.600,123.157 307.600 C 122.565 307.600,122.384 307.782,122.550 308.213 C 122.705 308.618,122.457 308.950,121.818 309.193 C 121.068 309.478,120.822 309.903,120.725 311.080 C 120.627 312.270,120.448 312.574,119.900 312.482 C 119.415 312.401,119.200 312.628,119.200 313.220 C 119.200 313.738,118.885 314.157,118.400 314.284 C 117.773 314.448,117.600 314.830,117.600 316.047 C 117.600 317.333,117.463 317.600,116.800 317.600 C 116.133 317.600,116.000 317.867,116.000 319.200 L 116.000 320.800 110.000 320.800 L 104.000 320.800 104.000 292.400 L 104.000 264.000 115.000 264.000 L 126.000 264.000 126.000 284.037 M159.200 270.800 C 159.200 277.333,159.169 277.600,158.400 277.600 C 157.867 277.600,157.600 277.867,157.600 278.400 C 157.600 279.067,157.333 279.200,156.000 279.200 C 154.682 279.200,154.400 279.337,154.400 279.977 C 154.400 280.604,154.075 280.778,152.716 280.877 C 151.395 280.973,150.985 281.182,150.816 281.843 C 150.683 282.361,150.330 282.644,149.900 282.578 C 149.440 282.508,149.200 282.733,149.200 283.235 C 149.200 283.656,148.975 284.021,148.700 284.046 C 148.425 284.072,148.020 284.134,147.800 284.185 C 147.580 284.236,147.085 284.306,146.700 284.339 C 146.296 284.374,146.000 284.727,146.000 285.172 C 146.000 285.668,145.678 285.990,145.100 286.072 C 144.499 286.158,144.239 286.433,144.318 286.900 C 144.414 287.473,144.134 287.600,142.780 287.600 C 141.462 287.600,141.083 287.763,140.916 288.400 C 140.800 288.843,140.370 289.200,139.953 289.200 C 139.467 289.200,139.200 289.483,139.200 290.000 C 139.200 290.450,138.933 290.800,138.590 290.800 C 138.255 290.800,137.821 291.220,137.625 291.733 C 137.430 292.247,136.985 292.667,136.635 292.667 C 136.067 292.667,136.000 291.161,136.000 278.333 L 136.000 264.000 147.600 264.000 L 159.200 264.000 159.200 270.800 M190.800 267.400 L 190.800 270.800 185.163 270.800 C 179.862 270.800,179.513 270.848,179.316 271.600 C 179.100 272.427,178.954 272.457,174.600 272.555 C 172.867 272.594,172.605 272.707,172.640 273.400 C 172.673 274.083,172.426 274.200,170.940 274.200 L 169.200 274.200 169.200 269.100 L 169.200 264.000 180.000 264.000 L 190.800 264.000 190.800 267.400 M222.400 269.100 L 222.401 274.200 220.900 274.200 C 219.742 274.200,219.351 274.019,219.183 273.404 C 218.989 272.694,218.620 272.607,215.783 272.604 C 212.941 272.600,212.577 272.514,212.382 271.800 C 212.180 271.055,211.777 270.992,206.482 270.889 L 200.800 270.778 200.800 267.389 L 200.800 264.000 211.600 264.000 L 222.400 264.000 222.400 269.100 M244.136 270.900 C 244.493 280.321,244.466 283.912,244.036 284.178 C 243.415 284.562,242.400 283.951,242.400 283.193 C 242.400 282.731,242.148 282.509,241.700 282.578 C 241.270 282.644,240.917 282.361,240.784 281.843 C 240.623 281.215,240.201 280.969,239.125 280.878 C 238.093 280.791,237.624 280.535,237.478 279.978 C 237.319 279.367,236.923 279.200,235.637 279.200 C 234.267 279.200,234.000 279.070,234.000 278.400 C 234.000 277.867,233.733 277.600,233.200 277.600 C 232.431 277.600,232.400 277.333,232.400 270.800 L 232.400 264.000 238.137 264.000 L 243.874 264.000 244.136 270.900 M352.400 271.600 L 352.400 279.200 350.163 279.200 C 348.262 279.200,347.894 279.320,347.716 280.000 C 347.600 280.443,347.170 280.800,346.753 280.800 C 346.267 280.800,346.000 281.083,346.000 281.600 C 346.000 282.040,345.865 282.417,345.700 282.438 C 345.535 282.458,344.770 282.503,344.000 282.538 C 343.211 282.573,342.578 282.818,342.550 283.100 C 342.523 283.375,342.478 283.778,342.450 283.995 C 342.423 284.213,342.085 284.364,341.700 284.332 C 339.886 284.180,339.200 284.418,339.200 285.200 C 339.200 285.733,338.933 286.000,338.400 286.000 C 337.867 286.000,337.600 286.267,337.600 286.800 C 337.600 287.333,337.333 287.600,336.800 287.600 C 336.275 287.600,336.000 287.867,336.000 288.377 C 336.000 289.005,335.674 289.178,334.300 289.277 C 333.064 289.366,332.611 289.569,332.642 290.018 C 332.665 290.358,332.260 290.836,331.742 291.080 L 330.800 291.525 330.800 277.762 L 330.800 264.000 341.600 264.000 L 352.400 264.000 352.400 271.600 M379.700 264.265 C 379.379 264.394,379.200 265.314,379.200 266.833 C 379.200 268.933,379.110 269.200,378.400 269.200 C 377.867 269.200,377.600 269.467,377.600 270.000 C 377.600 270.702,377.333 270.800,375.423 270.800 C 373.664 270.800,373.132 270.962,372.657 271.641 C 372.158 272.353,371.622 272.490,369.152 272.541 C 366.603 272.593,366.209 272.701,366.018 273.400 C 365.846 274.030,365.461 274.200,364.200 274.200 L 362.600 274.200 362.488 269.100 L 362.376 264.000 371.288 264.032 C 376.190 264.049,379.975 264.154,379.700 264.265 M207.600 281.600 C 207.600 282.349,207.867 282.400,211.800 282.400 C 215.733 282.400,216.000 282.451,216.000 283.200 C 216.000 283.911,216.267 284.000,218.400 284.000 C 220.488 284.000,220.800 284.098,220.800 284.757 C 220.800 285.711,221.551 286.000,224.033 286.000 C 225.733 286.000,226.000 286.108,226.000 286.800 C 226.000 287.463,226.267 287.600,227.553 287.600 C 228.770 287.600,229.152 287.773,229.316 288.400 C 229.481 289.031,229.862 289.200,231.118 289.200 C 232.390 289.200,232.700 289.341,232.656 289.900 C 232.612 290.448,232.968 290.627,234.300 290.723 C 235.674 290.822,236.000 290.995,236.000 291.623 C 236.000 292.133,236.275 292.400,236.800 292.400 C 237.333 292.400,237.600 292.667,237.600 293.200 C 237.600 293.864,237.867 294.000,239.172 294.000 C 240.498 294.000,240.764 294.141,240.872 294.900 C 240.953 295.470,241.321 295.846,241.878 295.925 C 242.469 296.009,242.681 296.245,242.526 296.649 C 242.380 297.029,242.586 297.323,243.087 297.455 C 244.499 297.824,245.029 317.600,243.627 317.600 C 242.745 317.600,242.225 318.817,242.600 320.000 C 242.853 320.797,242.672 320.800,185.227 320.800 C 127.867 320.800,127.600 320.796,127.600 320.000 C 127.600 319.467,127.867 319.200,128.400 319.200 C 129.067 319.200,129.200 318.933,129.200 317.600 C 129.200 316.267,129.333 316.000,130.000 316.000 C 130.587 316.000,130.800 315.733,130.800 315.000 C 130.800 314.267,131.013 314.000,131.600 314.000 C 132.133 314.000,132.400 313.733,132.400 313.200 C 132.400 312.667,132.667 312.400,133.200 312.400 C 133.867 312.400,134.000 312.133,134.000 310.800 C 134.000 309.360,134.100 309.200,135.000 309.200 C 135.733 309.200,136.000 308.987,136.000 308.400 C 136.000 307.935,136.267 307.600,136.637 307.600 C 136.988 307.600,137.369 307.240,137.484 306.800 C 137.600 306.357,138.030 306.000,138.447 306.000 C 138.984 306.000,139.200 305.713,139.200 305.000 C 139.200 304.267,139.413 304.000,140.000 304.000 C 140.533 304.000,140.800 303.733,140.800 303.200 C 140.800 302.667,141.067 302.400,141.600 302.400 C 142.133 302.400,142.400 302.133,142.400 301.600 C 142.400 301.067,142.667 300.800,143.200 300.800 C 143.733 300.800,144.000 300.533,144.000 300.000 C 144.000 299.355,144.267 299.200,145.377 299.200 C 146.250 299.200,146.946 298.934,147.277 298.474 C 147.565 298.074,148.115 297.630,148.500 297.486 C 148.885 297.343,149.200 296.949,149.200 296.613 C 149.200 296.267,149.548 296.000,150.000 296.000 C 150.587 296.000,150.800 295.733,150.800 295.000 C 150.800 294.100,150.960 294.000,152.400 294.000 C 153.733 294.000,154.000 293.867,154.000 293.200 C 154.000 292.613,154.267 292.400,155.000 292.400 C 155.733 292.400,156.000 292.187,156.000 291.600 C 156.000 290.933,156.267 290.800,157.600 290.800 C 158.933 290.800,159.200 290.667,159.200 290.000 C 159.200 289.333,159.467 289.200,160.800 289.200 C 162.133 289.200,162.400 289.067,162.400 288.400 C 162.400 287.730,162.667 287.600,164.037 287.600 C 165.338 287.600,165.718 287.436,165.884 286.800 C 166.052 286.156,166.430 286.000,167.814 286.000 C 170.050 286.000,170.800 285.688,170.800 284.757 C 170.800 284.097,171.113 284.000,173.237 284.000 C 175.338 284.000,175.704 283.890,175.884 283.200 C 176.076 282.468,176.430 282.400,180.047 282.400 C 183.733 282.400,184.000 282.346,184.000 281.600 C 184.000 280.818,184.267 280.800,195.800 280.800 C 207.333 280.800,207.600 280.818,207.600 281.600 M372.526 282.700 C 372.828 283.222,372.224 284.200,371.600 284.200 C 371.180 284.200,370.963 284.710,370.877 285.900 C 370.778 287.274,370.605 287.600,369.977 287.600 C 369.341 287.600,369.200 287.882,369.200 289.153 C 369.200 290.370,369.027 290.752,368.400 290.916 C 367.939 291.036,367.600 291.462,367.600 291.918 C 367.600 292.428,367.350 292.691,366.900 292.656 C 366.352 292.612,366.173 292.968,366.077 294.300 C 365.978 295.674,365.805 296.000,365.177 296.000 C 364.436 296.000,364.343 296.216,364.241 298.180 C 364.218 298.609,363.837 299.059,363.394 299.180 C 362.950 299.301,362.593 299.670,362.600 300.000 C 362.607 300.330,362.250 300.697,361.806 300.816 C 361.217 300.973,360.967 301.426,360.877 302.496 C 360.790 303.528,360.525 304.033,359.977 304.207 C 359.550 304.343,359.200 304.802,359.200 305.227 C 359.200 305.733,358.924 306.000,358.400 306.000 C 357.733 306.000,357.600 306.267,357.600 307.600 C 357.600 308.933,357.467 309.200,356.800 309.200 C 356.267 309.200,356.000 309.467,356.000 310.000 C 356.000 310.533,355.733 310.800,355.200 310.800 C 354.727 310.800,354.376 311.086,354.341 311.500 C 354.308 311.885,354.245 312.470,354.200 312.800 C 354.155 313.130,354.092 313.619,354.059 313.887 C 354.027 314.156,353.753 314.280,353.452 314.164 C 352.864 313.939,352.249 315.032,352.622 315.636 C 352.746 315.836,352.387 316.000,351.824 316.000 C 351.067 316.000,350.800 316.208,350.800 316.800 C 350.800 317.333,350.533 317.600,350.000 317.600 C 349.333 317.600,349.200 317.867,349.200 319.200 L 349.200 320.800 340.800 320.800 C 332.667 320.800,332.400 320.775,332.400 320.000 C 332.400 319.467,332.133 319.200,331.600 319.200 C 330.832 319.200,330.800 318.933,330.800 312.600 C 330.800 306.267,330.832 306.000,331.600 306.000 C 332.187 306.000,332.400 305.733,332.400 305.000 C 332.400 304.267,332.613 304.000,333.200 304.000 C 333.733 304.000,334.000 303.733,334.000 303.200 C 334.000 302.613,334.267 302.400,335.000 302.400 C 335.733 302.400,336.000 302.187,336.000 301.600 C 336.000 300.948,336.267 300.800,337.437 300.800 C 338.515 300.800,338.925 300.609,339.074 300.037 C 339.184 299.617,339.617 299.184,340.037 299.074 C 340.457 298.965,340.800 298.588,340.800 298.237 C 340.800 297.867,341.135 297.600,341.600 297.600 C 342.133 297.600,342.400 297.333,342.400 296.800 C 342.400 296.267,342.667 296.000,343.200 296.000 C 343.787 296.000,344.000 295.733,344.000 295.000 C 344.000 294.096,344.158 294.000,345.637 294.000 C 346.938 294.000,347.318 293.836,347.484 293.200 C 347.643 292.594,348.030 292.400,349.084 292.400 C 350.138 292.400,350.525 292.206,350.684 291.600 C 350.800 291.157,351.230 290.800,351.647 290.800 C 352.133 290.800,352.400 290.517,352.400 290.000 C 352.400 289.330,352.667 289.200,354.037 289.200 C 355.338 289.200,355.718 289.036,355.884 288.400 C 356.052 287.756,356.430 287.600,357.814 287.600 C 359.916 287.600,360.800 287.291,360.800 286.557 C 360.800 286.174,361.299 286.000,362.400 286.000 C 363.840 286.000,364.000 285.900,364.000 285.000 C 364.000 284.036,364.093 284.000,366.600 284.000 C 368.933 284.000,369.200 283.918,369.200 283.200 C 369.200 282.387,372.094 281.952,372.526 282.700 M32.753 286.300 C 32.589 287.333,32.927 287.600,34.400 287.600 C 35.733 287.600,36.000 287.733,36.000 288.400 C 36.000 289.067,36.267 289.200,37.600 289.200 C 38.918 289.200,39.200 289.337,39.200 289.977 C 39.200 290.605,39.526 290.778,40.900 290.877 C 42.261 290.975,42.577 291.139,42.482 291.700 C 42.401 292.185,42.628 292.400,43.220 292.400 C 43.738 292.400,44.157 292.715,44.284 293.200 C 44.448 293.827,44.830 294.000,46.047 294.000 C 47.437 294.000,47.600 294.105,47.600 295.000 C 47.600 295.713,47.816 296.000,48.353 296.000 C 48.770 296.000,49.200 296.357,49.316 296.800 C 49.431 297.240,49.791 297.600,50.116 297.600 C 50.441 297.600,50.798 297.948,50.909 298.373 C 51.056 298.937,51.529 299.181,52.656 299.273 C 53.705 299.359,54.200 299.592,54.200 300.000 C 54.200 300.330,54.605 300.658,55.100 300.728 C 55.678 300.810,56.000 301.132,56.000 301.628 C 56.000 302.133,56.276 302.400,56.800 302.400 C 57.333 302.400,57.600 302.667,57.600 303.200 C 57.600 303.733,57.867 304.000,58.400 304.000 C 58.987 304.000,59.200 304.267,59.200 305.000 C 59.200 305.733,59.413 306.000,60.000 306.000 C 60.533 306.000,60.800 306.267,60.800 306.800 C 60.800 307.392,61.067 307.600,61.825 307.600 C 62.776 307.600,62.833 307.702,62.621 309.037 C 62.430 310.237,62.522 310.507,63.183 310.680 C 63.618 310.793,64.082 311.227,64.214 311.643 C 64.346 312.059,64.802 312.400,65.227 312.400 C 65.733 312.400,66.000 312.676,66.000 313.200 C 66.000 313.733,66.267 314.000,66.800 314.000 C 67.470 314.000,67.600 314.267,67.600 315.637 C 67.600 316.938,67.764 317.318,68.400 317.484 C 68.843 317.600,69.200 318.030,69.200 318.447 C 69.200 318.933,69.483 319.200,70.000 319.200 C 70.533 319.200,70.800 319.467,70.800 320.000 C 70.800 320.779,70.533 320.800,60.800 320.800 L 50.800 320.800 50.800 319.200 C 50.800 317.867,50.667 317.600,50.000 317.600 C 49.467 317.600,49.200 317.333,49.200 316.800 C 49.200 316.276,48.933 316.000,48.428 316.000 C 47.932 316.000,47.610 315.678,47.528 315.100 C 47.447 314.530,47.143 314.220,46.700 314.256 C 46.186 314.296,46.000 314.012,46.000 313.188 C 46.000 311.544,45.613 310.800,44.757 310.800 C 44.267 310.800,44.000 310.518,44.000 310.000 C 44.000 309.467,43.733 309.200,43.200 309.200 C 42.533 309.200,42.400 308.933,42.400 307.600 C 42.400 306.267,42.267 306.000,41.600 306.000 C 41.076 306.000,40.800 305.733,40.800 305.227 C 40.800 304.802,40.440 304.340,40.000 304.200 C 39.399 304.009,39.200 303.595,39.200 302.536 C 39.200 301.462,39.009 301.075,38.400 300.916 C 37.957 300.800,37.600 300.370,37.600 299.953 C 37.600 299.474,37.317 299.200,36.824 299.200 C 36.216 299.200,36.021 298.875,35.924 297.700 C 35.824 296.495,35.623 296.175,34.900 296.072 C 34.144 295.965,34.000 295.697,34.000 294.399 C 34.000 293.205,33.818 292.796,33.200 292.600 C 32.599 292.409,32.400 291.995,32.400 290.936 C 32.400 289.862,32.209 289.475,31.600 289.316 C 31.157 289.200,30.800 288.770,30.800 288.353 C 30.800 287.867,30.517 287.600,30.000 287.600 C 29.467 287.600,29.200 287.333,29.200 286.800 C 29.200 286.119,29.467 286.000,31.000 286.000 C 31.990 286.000,32.779 286.135,32.753 286.300 M242.505 332.655 C 242.620 333.675,242.618 335.565,242.502 336.855 L 242.289 339.200 212.327 339.200 C 184.014 339.200,182.371 339.239,182.482 339.900 C 182.562 340.371,182.299 340.643,181.682 340.730 C 180.330 340.922,180.492 345.728,181.857 345.922 C 182.486 346.012,182.659 346.251,182.510 346.822 C 182.357 347.406,182.511 347.600,183.126 347.600 C 183.595 347.600,184.055 347.943,184.200 348.400 C 184.451 349.190,184.805 349.200,213.427 349.200 L 242.400 349.200 242.400 352.600 L 242.400 356.000 229.200 356.000 C 216.267 356.000,216.000 356.016,216.000 356.800 C 216.000 357.376,215.733 357.600,215.050 357.600 C 214.077 357.600,213.667 364.090,214.549 365.518 C 214.772 365.879,218.355 366.000,228.824 366.000 L 242.800 366.000 242.797 368.100 C 242.795 369.255,242.679 371.153,242.539 372.319 L 242.284 374.437 211.442 374.399 C 194.479 374.378,180.285 374.369,179.900 374.380 C 178.748 374.413,178.848 382.400,180.000 382.400 C 180.533 382.400,180.800 382.667,180.800 383.200 C 180.800 383.993,181.067 384.000,210.800 384.000 L 240.800 384.000 240.800 385.800 L 240.800 387.600 236.827 387.600 C 233.205 387.600,232.831 387.671,232.600 388.400 C 232.362 389.150,231.995 389.200,226.736 389.200 C 221.462 389.200,221.113 389.248,220.916 390.000 C 220.710 390.787,220.370 390.800,200.000 390.800 C 179.630 390.800,179.290 390.787,179.084 390.000 C 178.887 389.248,178.538 389.200,173.264 389.200 C 168.005 389.200,167.638 389.150,167.400 388.400 C 167.169 387.671,166.795 387.600,163.173 387.600 C 159.467 387.600,159.200 387.546,159.200 386.800 C 159.200 386.063,158.933 386.000,155.800 386.000 C 152.710 386.000,152.400 385.930,152.400 385.229 C 152.400 384.805,152.085 384.376,151.700 384.276 C 151.315 384.175,155.382 384.072,160.737 384.046 C 170.119 384.002,170.483 383.971,170.684 383.200 C 170.800 382.757,171.230 382.400,171.647 382.400 C 172.322 382.400,172.400 382.067,172.400 379.200 C 172.400 376.305,172.326 376.000,171.628 376.000 C 171.144 376.000,170.808 375.679,170.728 375.141 L 170.600 374.282 144.900 374.367 L 119.200 374.451 119.200 373.475 C 119.200 372.641,119.030 372.512,118.039 372.597 C 116.701 372.711,116.244 372.478,115.883 371.500 C 115.696 370.992,115.183 370.800,114.013 370.800 C 112.667 370.800,112.400 370.668,112.400 370.000 C 112.400 369.333,112.133 369.200,110.800 369.200 C 109.467 369.200,109.200 369.067,109.200 368.400 C 109.200 367.883,108.933 367.600,108.447 367.600 C 108.030 367.600,107.600 367.243,107.484 366.800 C 107.277 366.010,107.472 366.000,123.587 366.000 C 132.559 366.000,140.463 365.888,141.150 365.750 L 142.400 365.500 142.400 361.550 C 142.400 357.867,142.346 357.600,141.600 357.600 C 141.067 357.600,140.800 357.333,140.800 356.800 C 140.800 356.008,140.533 356.000,115.000 356.000 C 89.467 356.000,89.200 355.992,89.200 355.200 C 89.200 354.418,88.653 354.198,87.063 354.338 C 86.635 354.376,86.241 354.079,86.124 353.630 C 85.906 352.798,84.958 352.255,84.364 352.622 C 84.164 352.746,84.000 352.387,84.000 351.824 C 84.000 351.067,83.792 350.800,83.200 350.800 C 82.667 350.800,82.400 350.533,82.400 350.000 C 82.400 349.221,82.667 349.200,92.400 349.200 C 102.133 349.200,102.400 349.179,102.400 348.400 C 102.400 347.867,102.667 347.600,103.200 347.600 C 103.745 347.600,104.000 347.333,104.000 346.763 C 104.000 346.265,104.321 345.841,104.790 345.718 C 106.326 345.317,106.160 340.800,104.610 340.800 C 104.267 340.800,104.000 340.450,104.000 340.000 C 104.000 339.212,103.733 339.200,86.600 339.200 C 69.467 339.200,69.200 339.188,69.200 338.400 C 69.200 337.876,68.933 337.600,68.427 337.600 C 68.002 337.600,67.540 337.240,67.400 336.800 C 67.260 336.360,66.798 336.000,66.373 336.000 C 65.867 336.000,65.600 335.724,65.600 335.200 C 65.600 334.667,65.333 334.400,64.800 334.400 C 64.276 334.400,64.000 334.133,64.000 333.627 C 64.000 333.202,63.640 332.740,63.200 332.600 C 62.760 332.460,62.400 331.998,62.400 331.573 C 62.400 330.811,63.712 330.800,152.348 330.800 L 242.296 330.800 242.505 332.655 M337.600 331.787 C 337.600 332.497,337.433 332.711,337.006 332.547 C 336.616 332.397,336.275 332.677,336.015 333.359 C 335.798 333.932,335.366 334.400,335.057 334.400 C 334.747 334.400,334.406 334.733,334.300 335.139 C 333.700 337.433,332.400 336.354,332.400 333.563 L 332.400 330.800 335.000 330.800 C 337.498 330.800,337.600 330.839,337.600 331.787 M112.516 340.000 C 112.683 340.639,112.528 340.800,111.746 340.800 C 110.371 340.800,110.422 347.209,111.800 347.583 C 112.240 347.702,112.600 348.070,112.600 348.400 C 112.600 348.927,116.234 349.012,142.500 349.103 C 171.588 349.202,172.400 349.185,172.400 348.449 C 172.400 348.030,172.756 347.600,173.200 347.484 C 173.917 347.297,174.000 346.938,174.000 344.037 C 174.000 341.067,173.934 340.800,173.200 340.800 C 172.667 340.800,172.400 340.533,172.400 340.000 C 172.400 339.207,172.133 339.200,142.353 339.200 C 112.504 339.200,112.308 339.205,112.516 340.000 M150.800 356.800 C 150.800 357.338,150.533 357.600,149.986 357.600 C 149.213 357.600,149.178 357.806,149.286 361.700 L 149.400 365.800 177.156 365.903 C 197.326 365.977,205.060 365.882,205.456 365.554 C 206.594 364.609,206.193 357.600,205.000 357.600 C 204.267 357.600,204.000 357.387,204.000 356.800 C 204.000 356.008,203.733 356.000,177.400 356.000 C 151.067 356.000,150.800 356.008,150.800 356.800 " stroke="none" fill="#050505" fill-rule="evenodd"></path><path id="path1" d="M151.091 64.289 C 151.801 64.377,153.061 64.379,153.891 64.292 C 154.721 64.205,154.140 64.133,152.600 64.131 C 151.060 64.129,150.381 64.200,151.091 64.289 M176.505 74.287 C 177.114 74.379,178.014 74.377,178.505 74.282 C 178.997 74.187,178.500 74.111,177.400 74.114 C 176.300 74.117,175.897 74.195,176.505 74.287 M244.087 278.467 C 244.024 282.398,243.860 283.990,243.500 284.135 C 243.108 284.293,243.111 284.344,243.513 284.368 C 244.335 284.419,244.432 283.654,244.299 278.179 L 244.174 273.000 244.087 278.467 M244.161 311.600 C 244.161 315.010,244.222 316.405,244.297 314.700 C 244.372 312.995,244.372 310.205,244.297 308.500 C 244.222 306.795,244.161 308.190,244.161 311.600 M322.534 338.400 C 322.534 340.050,322.605 340.725,322.691 339.900 C 322.778 339.075,322.778 337.725,322.691 336.900 C 322.605 336.075,322.534 336.750,322.534 338.400 M242.534 368.800 C 242.534 370.450,242.605 371.125,242.691 370.300 C 242.778 369.475,242.778 368.125,242.691 367.300 C 242.605 366.475,242.534 367.150,242.534 368.800 M130.929 374.300 C 137.489 374.362,148.109 374.361,154.529 374.300 C 160.948 374.238,155.580 374.187,142.600 374.188 C 129.620 374.188,124.368 374.238,130.929 374.300 M198.500 374.300 C 206.585 374.360,219.815 374.360,227.900 374.300 C 235.985 374.239,229.370 374.190,213.200 374.190 C 197.030 374.190,190.415 374.239,198.500 374.300 " stroke="none" fill="#000000" fill-rule="evenodd"></path><path id="path2" d="M151.091 64.289 C 151.801 64.377,153.061 64.379,153.891 64.292 C 154.721 64.205,154.140 64.133,152.600 64.131 C 151.060 64.129,150.381 64.200,151.091 64.289 M176.505 74.287 C 177.114 74.379,178.014 74.377,178.505 74.282 C 178.997 74.187,178.500 74.111,177.400 74.114 C 176.300 74.117,175.897 74.195,176.505 74.287 M244.087 278.467 C 244.024 282.398,243.860 283.990,243.500 284.135 C 243.108 284.293,243.111 284.344,243.513 284.368 C 244.335 284.419,244.432 283.654,244.299 278.179 L 244.174 273.000 244.087 278.467 M244.161 311.600 C 244.161 315.010,244.222 316.405,244.297 314.700 C 244.372 312.995,244.372 310.205,244.297 308.500 C 244.222 306.795,244.161 308.190,244.161 311.600 M322.534 338.400 C 322.534 340.050,322.605 340.725,322.691 339.900 C 322.778 339.075,322.778 337.725,322.691 336.900 C 322.605 336.075,322.534 336.750,322.534 338.400 M242.534 368.800 C 242.534 370.450,242.605 371.125,242.691 370.300 C 242.778 369.475,242.778 368.125,242.691 367.300 C 242.605 366.475,242.534 367.150,242.534 368.800 M130.929 374.300 C 137.489 374.362,148.109 374.361,154.529 374.300 C 160.948 374.238,155.580 374.187,142.600 374.188 C 129.620 374.188,124.368 374.238,130.929 374.300 M198.500 374.300 C 206.585 374.360,219.815 374.360,227.900 374.300 C 235.985 374.239,229.370 374.190,213.200 374.190 C 197.030 374.190,190.415 374.239,198.500 374.300 " stroke="none" fill="#000000" fill-rule="evenodd"></path><path id="path3" d="M151.091 64.289 C 151.801 64.377,153.061 64.379,153.891 64.292 C 154.721 64.205,154.140 64.133,152.600 64.131 C 151.060 64.129,150.381 64.200,151.091 64.289 M176.505 74.287 C 177.114 74.379,178.014 74.377,178.505 74.282 C 178.997 74.187,178.500 74.111,177.400 74.114 C 176.300 74.117,175.897 74.195,176.505 74.287 M244.087 278.467 C 244.024 282.398,243.860 283.990,243.500 284.135 C 243.108 284.293,243.111 284.344,243.513 284.368 C 244.335 284.419,244.432 283.654,244.299 278.179 L 244.174 273.000 244.087 278.467 M244.161 311.600 C 244.161 315.010,244.222 316.405,244.297 314.700 C 244.372 312.995,244.372 310.205,244.297 308.500 C 244.222 306.795,244.161 308.190,244.161 311.600 M322.534 338.400 C 322.534 340.050,322.605 340.725,322.691 339.900 C 322.778 339.075,322.778 337.725,322.691 336.900 C 322.605 336.075,322.534 336.750,322.534 338.400 M242.534 368.800 C 242.534 370.450,242.605 371.125,242.691 370.300 C 242.778 369.475,242.778 368.125,242.691 367.300 C 242.605 366.475,242.534 367.150,242.534 368.800 M130.929 374.300 C 137.489 374.362,148.109 374.361,154.529 374.300 C 160.948 374.238,155.580 374.187,142.600 374.188 C 129.620 374.188,124.368 374.238,130.929 374.300 M198.500 374.300 C 206.585 374.360,219.815 374.360,227.900 374.300 C 235.985 374.239,229.370 374.190,213.200 374.190 C 197.030 374.190,190.415 374.239,198.500 374.300 " stroke="none" fill="#000000" fill-rule="evenodd"></path><path id="path4" d="M151.091 64.289 C 151.801 64.377,153.061 64.379,153.891 64.292 C 154.721 64.205,154.140 64.133,152.600 64.131 C 151.060 64.129,150.381 64.200,151.091 64.289 M176.505 74.287 C 177.114 74.379,178.014 74.377,178.505 74.282 C 178.997 74.187,178.500 74.111,177.400 74.114 C 176.300 74.117,175.897 74.195,176.505 74.287 M244.087 278.467 C 244.024 282.398,243.860 283.990,243.500 284.135 C 243.108 284.293,243.111 284.344,243.513 284.368 C 244.335 284.419,244.432 283.654,244.299 278.179 L 244.174 273.000 244.087 278.467 M244.161 311.600 C 244.161 315.010,244.222 316.405,244.297 314.700 C 244.372 312.995,244.372 310.205,244.297 308.500 C 244.222 306.795,244.161 308.190,244.161 311.600 M322.534 338.400 C 322.534 340.050,322.605 340.725,322.691 339.900 C 322.778 339.075,322.778 337.725,322.691 336.900 C 322.605 336.075,322.534 336.750,322.534 338.400 M242.534 368.800 C 242.534 370.450,242.605 371.125,242.691 370.300 C 242.778 369.475,242.778 368.125,242.691 367.300 C 242.605 366.475,242.534 367.150,242.534 368.800 M130.929 374.300 C 137.489 374.362,148.109 374.361,154.529 374.300 C 160.948 374.238,155.580 374.187,142.600 374.188 C 129.620 374.188,124.368 374.238,130.929 374.300 M198.500 374.300 C 206.585 374.360,219.815 374.360,227.900 374.300 C 235.985 374.239,229.370 374.190,213.200 374.190 C 197.030 374.190,190.415 374.239,198.500 374.300 " stroke="none" fill="#000000" fill-rule="evenodd"></path></g></svg>